SplineFontDB: 3.0
FontName: Butchermann-ExtraBold
FullName: Butchermann ExtraBold
FamilyName: Butchermann
Weight: ExtraBold
Copyright: Copyright (c) 2011 by Typomondo. All rights reserved.
Version: 001.001
ItalicAngle: 0
UnderlinePosition: -103
UnderlineWidth: 102
Ascent: 1638
Descent: 410
sfntRevision: 0x00010000
LayerCount: 2
Layer: 0 0 "Back"  1
Layer: 1 0 "Fore"  0
NeedsXUIDChange: 1
XUID: [1021 14 500265001 11126761]
FSType: 0
OS2Version: 3
OS2_WeightWidthSlopeOnly: 0
OS2_UseTypoMetrics: 1
CreationTime: 1319103480
ModificationTime: 1319105578
PfmFamily: 17
TTFWeight: 800
TTFWidth: 5
LineGap: 47
VLineGap: 0
Panose: 2 0 0 0 0 0 0 0 0 0
OS2TypoAscent: -385
OS2TypoAOffset: 1
OS2TypoDescent: -172
OS2TypoDOffset: 1
OS2TypoLinegap: 94
OS2WinAscent: 233
OS2WinAOffset: 1
OS2WinDescent: 107
OS2WinDOffset: 1
HheadAscent: 233
HheadAOffset: 1
HheadDescent: -107
HheadDOffset: 1
OS2SubXSize: 1331
OS2SubYSize: 1228
OS2SubXOff: 0
OS2SubYOff: 153
OS2SupXSize: 1331
OS2SupYSize: 1228
OS2SupXOff: 0
OS2SupYOff: 716
OS2StrikeYSize: 102
OS2StrikeYPos: 754
OS2Vendor: 'typm'
OS2CodePages: 20000081.00000000
OS2UnicodeRanges: 00000003.00000000.00000000.00000000
Lookup: 4 0 1 "'liga' Standard Ligatures in Latin lookup 0"  {"'liga'"  } ['liga' ('DFLT' <'dflt' > 'latn' <'dflt' > ) ]
MarkAttachClasses: 1
DEI: 91125
LangName: 1033 "" "" "Regular" "1.000;typm;Butchermann-ExtraBold" "Butchermann-ExtraBold" "1.000" "" "Butchermann ExtraBold is a trademark of Typomondo." "Typomondo" "Typomondo" "Copyright (c) 2011 by Typomondo. All rights reserved." "" "" "" "" "" "Butchermann" 
Encoding: Custom
UnicodeInterp: none
NameList: Adobe Glyph List
DisplaySize: -48
AntiAlias: 1
FitToEm: 1
WidthSeparation: 307
WinInfo: 54 27 11
BeginPrivate: 4
StdHW 5 [279]
StdVW 4 [55]
StemSnapH 13 [279 334 362]
StemSnapV 19 [55 82 389 446 502]
EndPrivate
Grid
-2048 1114.5 m 0
 4096 1114.5 l 0
EndSplineSet
BeginChars: 338 329

StartChar: o_o
Encoding: 327 -1 0
Width: 2279
VWidth: 2308
Flags: HW
LayerCount: 2
Fore
SplineSet
960 155 m 1
 903 107 834 -6 840 -83 c 1
 840 -141 l 1
 820 -141 l 2
 799 -141 796 -131 796 -116 c 0
 796 -99 801 -79 801 -69 c 0
 801 -48 778 -37 761 -35 c 1
 761 -55 l 1
 748 -53 l 1
 720 -78 l 1
 700 -60 l 1
 700 -99 l 1
 672 -122 l 1
 574 -105 654 5 560 5 c 0
 534 5 519 -20 507 -20 c 0
 505 -20 501 -18 499 -15 c 1
 455 -66 l 1
 435 -35 396 39 356 39 c 0
 346 39 291 19 280 15 c 1
 275 75 219 84 219 155 c 1
 221 155 l 1
 149 396 108 688 73 955 c 1
 66 951 l 1
 59 953 l 1
 79 975 l 1
 59 975 l 1
 59 997 l 1
 62 997 l 1
 59 1018 l 1
 68 1016 l 1
 75 1030 81 1049 81 1065 c 0
 81 1071 79 1076 79 1080 c 1
 60 1080 l 1
 103 1092 173 1375 560 1375 c 1
 560 1355 l 1
 581 1375 l 1
 621 1375 660 1355 700 1355 c 1
 700 1375 l 1
 785 1375 896 1301 960 1250 c 1
 980 1270 l 1
 982 1254 l 1
 964 1250 l 1
 1001 1227 l 1
 982 1208 l 1
 989 1194 1024 1165 1043 1165 c 2
 1047 1165 l 1
 1100 1102 l 1
 1086 1102 l 1
 1080 1078 1080 1053 1080 1027 c 0
 1080 1001 1080 975 1082 953 c 1
 1100 933 l 1
 1100 876 1082 822 1082 765 c 1
 1100 765 l 1
 1081 554 1000 369 940 175 c 1
 960 155 l 1
680 365 m 1
 660 385 l 1
 660 408 l 2
 660 427 667 435 680 448 c 1
 680 513 l 2
 680 534 676 559 660 575 c 1
 660 621 l 2
 660 669 648 787 579 787 c 2
 540 787 l 1
 540 765 l 1
 519 765 l 1
 483 724 458 675 458 617 c 2
 458 448 l 2
 458 441 465 431 470 427 c 1
 458 427 l 1
 458 365 l 2
 458 348 468 334 481 323 c 1
 481 281 510 207 540 175 c 1
 560 175 l 2
 623 175 641 239 641 293 c 0
 641 304 641 313 639 323 c 1
 660 323 l 1
 660 365 l 1
 680 365 l 1
79 912 m 1
 59 912 l 1
 59 933 l 1
 79 912 l 1
79 892 m 1
 59 892 l 1
 62 902 l 1
 79 892 l 1
1727 -143 m 0
 1219 -143 1329 534 1214 955 c 1
 1206 951 l 1
 1222 1076 1227 1375 1700 1375 c 1
 1700 1355 l 1
 1722 1375 l 1
 1762 1375 1800 1355 1840 1355 c 1
 1840 1375 l 1
 1925 1375 2036 1301 2100 1250 c 1
 2120 1270 l 1
 2122 1254 l 1
 2104 1250 l 1
 2142 1227 l 1
 2122 1208 l 1
 2129 1194 2165 1165 2184 1165 c 2
 2188 1165 l 1
 2240 1102 l 1
 2226 1102 l 1
 2220 1078 2220 1053 2220 1027 c 0
 2220 1001 2220 975 2222 953 c 1
 2240 933 l 1
 2240 876 2222 822 2222 765 c 1
 2240 765 l 1
 2221 554 2140 369 2080 175 c 1
 2100 155 l 1
 2043 107 1974 -6 1980 -83 c 1
 1980 -141 l 1
 1960 -141 l 2
 1939 -141 1936 -131 1936 -116 c 0
 1936 -66 1925 -49 1909 -49 c 1
 1852 -62 1815 -143 1727 -143 c 0
1800 621 m 0
 1800 669 1789 787 1720 787 c 2
 1680 787 l 1
 1680 765 l 1
 1660 765 l 1
 1624 724 1598 675 1598 617 c 2
 1598 448 l 2
 1598 441 1605 431 1610 427 c 1
 1598 427 l 1
 1598 365 l 2
 1598 348 1609 334 1622 323 c 1
 1622 281 1650 207 1680 175 c 1
 1700 175 l 2
 1763 175 1782 239 1782 293 c 0
 1782 304 1782 313 1780 323 c 1
 1782 322 1782 322 1784 322 c 0
 1805 322 1812 369 1812 426 c 0
 1812 503 1800 598 1800 621 c 0
EndSplineSet
Ligature2: "'liga'" o o
EndChar

StartChar: E
Encoding: 38 69 4
Width: 1239
VWidth: 2308
Flags: HW
LayerCount: 2
Fore
SplineSet
233 555 m 1
 255 555 l 1
 233 575 l 1
 213 750 194 925 194 1102 c 1
 215 1102 l 1
 215 1122 l 1
 174 1122 l 1
 174 1165 l 1
 146 1218 99 1272 54 1312 c 1
 72 1312 l 1
 93 1333 l 1
 243 1359 394 1370 545 1370 c 0
 756 1370 969 1349 1177 1312 c 1
 1143 1285 1118 1246 1096 1208 c 1
 1096 1049 976 902 976 723 c 1
 849 723 707 787 574 787 c 1
 574 617 l 1
 556 596 l 1
 594 617 l 1
 775 617 l 2
 795 617 821 610 836 596 c 1
 874 596 l 1
 874 561 871 524 856 490 c 1
 858 472 860 452 860 434 c 0
 860 402 855 371 836 343 c 1
 827 346 783 365 775 365 c 2
 594 365 l 1
 556 343 l 1
 556 216 l 1
 574 197 l 1
 574 237 l 1
 756 237 l 2
 802 237 862 216 917 216 c 1
 917 186 897 162 897 133 c 1
 874 111 l 1
 876 42 l 2
 876 15 865 -18 858 -50 c 1
 853 -55 849 -69 849 -83 c 1
 814 -120 l 1
 793 -78 l 1
 814 -79 814 -83 814 -87 c 1
 816 -83 816 -76 816 -69 c 0
 816 2 812 28 735 28 c 0
 692 28 657 -42 640 -74 c 1
 637 -81 l 1
 635 -78 l 1
 568 -78 574 -79 574 -15 c 1
 556 5 l 1
 556 -4 565 -32 565 -55 c 0
 565 -81 552 -103 495 -103 c 1
 495 50 l 1
 478 65 445 72 417 72 c 0
 410 72 401 72 396 70 c 1
 373 50 l 1
 357 50 351 28 351 3 c 0
 351 -13 353 -27 355 -35 c 1
 315 -78 l 1
 294 -78 l 1
 296 -41 l 1
 296 156 257 360 233 555 c 1
874 -44 m 1
 874 -53 858 -59 855 -70 c 1
 855 -60 856 -55 858 -50 c 1
 862 -46 865 -44 871 -44 c 2
 874 -44 l 1
853 -78 m 1
 851 -79 l 2
 851 -78 853 -78 853 -78 c 1
EndSplineSet
EndChar

StartChar: F
Encoding: 39 70 5
Width: 1215
VWidth: 2308
Flags: HW
LayerCount: 2
Fore
SplineSet
56 1298 m 1
 73 1318 l 1
 51 1299 l 1
 33 1318 l 1
 251 1359 l 1
 267 1344 293 1338 313 1338 c 1
 333 1359 l 1
 594 1359 l 1
 610 1342 628 1336 646 1336 c 0
 670 1336 694 1345 715 1359 c 1
 715 1318 l 1
 754 1359 l 1
 888 1340 1026 1340 1155 1298 c 1
 1023 1298 995 819 995 708 c 1
 1015 708 l 1
 1015 666 l 1
 937 682 877 728 796 728 c 1
 796 749 l 1
 790 749 766 749 766 739 c 0
 766 735 768 732 773 728 c 1
 763 726 747 726 733 726 c 0
 692 726 641 732 613 749 c 1
 628 732 635 695 635 668 c 0
 635 658 635 649 633 643 c 1
 613 623 l 1
 914 623 l 1
 928 603 l 1
 914 580 l 1
 914 455 l 1
 895 455 l 1
 910 431 914 399 914 371 c 0
 914 363 898 336 895 328 c 1
 873 365 817 374 770 374 c 0
 749 374 729 372 715 371 c 1
 718 374 720 378 720 380 c 0
 720 385 710 389 703 389 c 0
 696 389 689 387 689 380 c 0
 689 378 689 376 691 374 c 2
 673 390 l 1
 673 371 l 1
 633 371 l 1
 633 390 l 1
 615 371 613 345 613 319 c 2
 613 286 l 1
 594 286 l 1
 613 265 l 1
 613 165 633 68 633 -30 c 2
 633 -109 l 1
 613 -129 l 1
 613 -109 l 1
 594 -87 l 1
 599 -79 613 -53 613 -46 c 2
 613 -39 l 2
 613 -32 582 -30 534 -30 c 1
 515 -39 510 -66 510 -103 c 0
 510 -122 517 -136 517 -155 c 1
 515 -153 508 -153 493 -151 c 1
 493 -131 l 1
 473 -109 l 1
 473 -72 l 1
 394 -9 l 1
 333 -9 318 -59 318 -116 c 0
 318 -120 333 -123 333 -125 c 2
 333 -134 l 1
 313 -129 295 -120 295 -114 c 2
 295 158 l 1
 331 201 300 274 333 328 c 1
 313 350 l 1
 313 371 l 1
 295 390 l 1
 313 411 l 1
 295 434 l 1
 295 686 l 1
 265 717 285 791 251 791 c 1
 251 951 l 2
 251 1125 235 1150 56 1298 c 1
56 1298 m 1
 51 1298 l 1
 51 1299 l 1
 56 1298 l 1
EndSplineSet
EndChar

StartChar: G
Encoding: 40 71 6
Width: 1073
VWidth: 2308
Flags: HW
LayerCount: 2
Fore
SplineSet
482 210 m 1
 539 155 l 1
 581 168 l 1
 580 151 l 1
 602 149 l 1
 602 184 681 190 703 210 c 1
 681 232 l 1
 687 244 703 273 703 290 c 2
 703 295 l 1
 681 295 l 2
 643 295 609 282 581 255 c 1
 581 345 562 431 562 525 c 1
 597 485 641 476 687 476 c 0
 731 476 777 485 821 485 c 0
 868 485 950 478 984 443 c 1
 984 345 l 2
 984 186 970 -13 823 -59 c 1
 808 -83 782 -55 782 -125 c 0
 782 -132 775 -140 742 -146 c 1
 722 -123 l 1
 742 -125 l 1
 701 -57 l 1
 646 -76 637 -94 637 -127 c 0
 637 -132 641 -138 641 -148 c 1
 641 -136 634 -125 602 -125 c 0
 583 -125 578 -105 578 -105 c 1
 578 -103 585 -99 585 -97 c 0
 585 -76 517 2 502 22 c 1
 504 12 504 -2 504 -13 c 0
 504 -53 497 -94 488 -131 c 1
 463 -114 442 -57 442 -20 c 1
 421 -42 l 1
 401 -42 l 1
 405 -44 l 1
 381 -83 l 1
 381 -105 444 -125 444 -148 c 0
 444 -168 440 -190 416 -188 c 2
 381 -186 l 1
 381 -144 360 -105 360 -62 c 1
 321 -62 283 -4 261 22 c 1
 256 19 l 1
 193 155 159 273 159 420 c 0
 159 538 78 826 78 1043 c 0
 78 1067 85 1099 101 1117 c 1
 106 1106 l 1
 110 1111 l 1
 101 1180 l 1
 115 1211 136 1238 159 1263 c 1
 202 1243 l 1
 215 1263 l 1
 202 1285 l 1
 289 1285 356 1368 460 1368 c 1
 460 1349 l 1
 484 1349 471 1368 502 1368 c 1
 482 1327 l 1
 493 1336 521 1351 521 1368 c 1
 678 1368 873 1292 984 1180 c 1
 961 1180 l 1
 984 1134 l 1
 984 1137 l 1
 1026 1093 1035 1029 1035 969 c 0
 1035 877 982 758 982 619 c 0
 982 606 1000 561 1003 547 c 1
 958 547 l 2
 917 547 648 545 643 606 c 1
 634 594 l 1
 639 603 641 614 641 623 c 0
 641 640 634 656 622 675 c 1
 643 695 l 1
 622 695 l 1
 602 717 l 1
 602 745 l 1
 581 737 l 1
 576 770 553 780 523 780 c 0
 451 780 442 741 442 677 c 1
 437 680 l 1
 444 669 445 658 445 649 c 2
 442 612 l 1
 442 615 l 1
 436 590 421 579 421 547 c 1
 442 525 l 1
 421 485 l 1
 458 418 442 336 482 274 c 1
 460 274 l 1
 460 255 l 1
 471 255 497 249 497 232 c 1
 493 232 l 2
 482 232 482 216 482 210 c 1
482 210 m 1
 502 232 l 1
 502 221 495 210 482 210 c 1
502 232 m 1
 497 232 l 1
 502 246 l 1
 502 232 l 1
634 594 m 2
 632 590 629 586 625 582 c 2
 634 594 l 2
624 580 m 2
 624 579 622 577 622 577 c 1
 624 580 l 2
EndSplineSet
EndChar

StartChar: H
Encoding: 41 72 7
Width: 1516
VWidth: 2308
Flags: HW
LayerCount: 2
Fore
SplineSet
1002 -141 m 1
 1032 -81 l 1
 1022 -57 l 2
 1022 -59 1020 -59 1020 -59 c 2
 1019 -59 1019 -59 1019 -57 c 1
 971 -83 l 1
 962 -81 l 1
 921 -44 l 1
 925 -66 l 1
 925 -94 914 -122 881 -122 c 1
 877 -114 853 -99 853 -88 c 0
 853 -87 855 -83 862 -81 c 1
 822 -59 l 1
 802 -85 l 1
 804 -48 822 -13 822 24 c 1
 781 3 l 1
 761 46 l 1
 795 46 804 131 804 199 c 0
 804 236 802 267 802 278 c 0
 802 311 823 341 823 374 c 0
 823 381 816 385 811 385 c 0
 807 385 804 383 802 383 c 1
 781 404 l 1
 728 404 676 383 621 383 c 1
 621 362 l 1
 593 332 l 1
 612 341 l 1
 615 309 623 274 623 244 c 2
 621 3 l 1
 540 -37 l 1
 542 -24 l 1
 538 -20 l 1
 461 -16 l 2
 431 -15 403 -72 339 -81 c 1
 294 -42 l 1
 296 -39 300 -37 306 -37 c 0
 318 -37 333 -42 339 -46 c 1
 339 256 285 599 220 894 c 0
 206 962 178 1029 178 1099 c 0
 178 1204 93 1281 -7 1289 c 1
 77 1289 364 1296 420 1351 c 1
 426 1329 l 2
 427 1327 429 1327 429 1327 c 1
 436 1327 442 1336 442 1345 c 0
 442 1347 440 1349 440 1351 c 1
 526 1351 614 1373 700 1373 c 1
 676 1347 630 1227 600 1226 c 1
 621 1204 l 1
 621 1006 600 809 600 614 c 1
 635 614 665 636 700 636 c 1
 700 614 l 1
 748 614 792 636 840 636 c 1
 840 625 l 1
 860 645 862 656 862 675 c 0
 862 682 862 689 862 700 c 2
 862 1016 l 2
 862 1043 888 1141 921 1141 c 1
 921 1178 862 1173 862 1268 c 0
 862 1305 840 1336 840 1373 c 1
 895 1373 950 1368 1002 1351 c 1
 1024 1373 l 1
 1059 1373 1087 1351 1122 1351 c 1
 1122 1373 l 1
 1146 1347 l 1
 1282 1351 l 1
 1314 1312 1384 1347 1423 1310 c 1
 1481 1310 l 2
 1414 1310 1330 1106 1307 1051 c 1
 1261 920 l 1
 1263 911 l 1
 1256 867 l 1
 1249 870 l 1
 1242 867 l 1
 1263 846 l 1
 1242 786 1192 696 1192 633 c 0
 1192 617 1196 605 1201 594 c 1
 1166 594 1159 555 1159 516 c 0
 1159 489 1163 459 1163 446 c 0
 1163 397 1142 348 1142 299 c 1
 1106 269 l 1
 1122 278 l 1
 1122 156 1082 42 1082 -81 c 0
 1082 -123 1039 -141 1002 -141 c 1
802 -186 m 1
 802 -375 l 1
 761 -375 l 1
 761 -333 l 2
 761 -294 774 -213 802 -186 c 1
EndSplineSet
EndChar

StartChar: I
Encoding: 42 73 8
Width: 859
VWidth: 2308
Flags: HW
LayerCount: 2
Fore
SplineSet
528 -101 m 1
 487 -79 l 1
 487 -76 486 -60 486 -48 c 0
 486 -39 487 -27 502 -25 c 1
 467 50 l 1
 408 50 l 1
 388 28 l 1
 388 -6 l 2
 388 -11 405 -41 408 -48 c 1
 388 -16 l 1
 388 -30 l 2
 388 -44 389 -79 366 -79 c 1
 347 -59 l 1
 303 218 226 597 226 870 c 0
 226 927 248 990 248 1039 c 0
 248 1069 224 1082 207 1102 c 1
 207 1176 141 1215 85 1250 c 1
 65 1290 l 1
 85 1312 l 1
 71 1312 l 2
 50 1312 39 1320 27 1335 c 1
 13 1335 l 1
 48 1338 82 1351 108 1377 c 1
 388 1377 l 1
 388 1355 l 1
 397 1359 440 1377 447 1377 c 2
 548 1377 l 1
 567 1361 l 1
 586 1377 l 1
 660 1377 736 1375 808 1355 c 1
 749 1272 l 1
 727 1272 l 1
 727 1250 l 1
 749 1250 l 1
 667 1102 l 1
 683 1099 697 1092 709 1080 c 1
 685 966 681 813 648 703 c 1
 627 703 l 1
 629 682 633 656 648 640 c 1
 648 470 l 1
 613 470 l 1
 629 462 629 437 629 422 c 1
 627 408 l 1
 609 387 l 1
 609 365 l 1
 633 365 631 317 631 302 c 0
 631 223 609 149 609 72 c 0
 609 65 623 35 627 28 c 1
 609 7 l 1
 627 7 l 1
 648 -35 l 1
 609 -35 l 1
 586 -15 l 1
 567 -15 l 1
 548 7 l 1
 548 -55 l 1
 548 -55 565 -55 568 -41 c 1
 568 -48 567 -51 567 -59 c 1
 528 -101 l 1
EndSplineSet
EndChar

StartChar: J
Encoding: 43 74 9
Width: 940
VWidth: 2308
Flags: HW
LayerCount: 2
Fore
SplineSet
254 -16 m 1
 254 -30 250 -44 245 -57 c 0
 241 -66 236 -74 230 -81 c 1
 210 -60 l 1
 210 -41 218 -30 218 -25 c 0
 218 -13 204 -9 151 12 c 1
 111 12 l 1
 51 52 l 1
 9 52 -15 170 -30 201 c 1
 -9 244 l 1
 -30 264 -30 278 -30 306 c 1
 -42 319 -51 334 -51 352 c 0
 -51 470 53 400 111 453 c 1
 166 453 l 1
 120 431 l 1
 130 411 l 1
 192 474 l 1
 210 474 l 1
 230 496 l 1
 230 453 l 1
 210 453 l 1
 230 431 l 1
 229 350 l 1
 227 297 232 179 310 179 c 1
 363 253 374 295 374 355 c 0
 374 392 371 435 371 496 c 0
 371 511 391 533 391 559 c 0
 391 580 371 601 371 623 c 2
 371 789 l 2
 371 851 391 912 391 981 c 1
 411 1001 411 1027 411 1053 c 2
 411 1064 l 1
 391 1064 l 1
 391 1127 l 1
 376 1145 371 1167 371 1191 c 1
 343 1226 319 1272 310 1317 c 1
 332 1317 l 1
 310 1338 l 1
 310 1359 l 1
 591 1359 l 2
 686 1359 779 1336 872 1317 c 1
 811 1254 l 1
 793 1254 l 1
 811 1233 l 1
 793 1211 l 1
 793 1134 779 1049 711 1001 c 1
 732 958 l 1
 713 940 707 877 707 822 c 0
 707 791 709 763 711 749 c 1
 654 684 691 552 652 474 c 1
 632 474 l 1
 632 453 l 1
 652 453 l 1
 652 360 612 273 612 179 c 1
 582 138 553 98 553 46 c 0
 553 19 551 -11 531 -32 c 1
 531 -30 l 1
 510 -44 l 1
 501 -46 492 -46 490 -48 c 1
 490 -46 490 -44 492 -41 c 2
 510 -20 l 1
 510 12 l 1
 492 33 l 1
 411 -32 l 1
 411 -50 l 1
 391 -70 l 1
 352 -70 l 1
 352 -74 l 1
 328 -50 332 -18 332 12 c 1
 291 52 l 1
 256 52 245 9 245 -39 c 1
 247 -25 254 -16 254 -16 c 1
EndSplineSet
EndChar

StartChar: K
Encoding: 44 75 10
Width: 1265
VWidth: 2308
Flags: HW
LayerCount: 2
Fore
SplineSet
817 -37 m 1
 776 -37 l 1
 756 -16 l 2
 754 -13 754 -9 754 -6 c 0
 754 19 769 50 776 68 c 1
 772 68 l 1
 717 195 l 1
 735 216 l 1
 717 216 l 1
 689 246 660 281 652 323 c 1
 640 232 598 267 575 216 c 1
 616 48 l 1
 605 26 l 1
 612 3 621 -18 636 -37 c 1
 596 -16 l 1
 596 -32 616 -42 621 -57 c 1
 616 -69 l 1
 634 -87 l 1
 596 -87 l 1
 577 -62 575 -41 575 -16 c 1
 550 0 526 5 496 5 c 0
 472 5 461 -20 455 -55 c 1
 436 -76 l 1
 417 -55 l 1
 417 -33 l 1
 397 -30 373 35 373 57 c 0
 373 63 374 66 374 68 c 1
 395 91 l 1
 395 111 l 1
 343 111 374 341 336 383 c 1
 358 411 l 1
 356 427 l 1
 337 427 334 450 334 470 c 0
 334 478 336 485 336 489 c 1
 313 511 l 1
 315 533 l 1
 336 533 l 1
 328 552 273 741 274 747 c 1
 288 752 295 767 295 780 c 2
 295 786 l 1
 274 805 l 1
 290 805 l 1
 290 888 220 1117 155 1183 c 1
 155 1226 l 1
 174 1226 l 1
 131 1233 50 1301 15 1331 c 1
 126 1359 242 1375 356 1375 c 1
 374 1336 l 1
 417 1375 l 1
 436 1331 l 1
 455 1359 l 1
 455 1353 l 2
 455 1331 478 1331 496 1331 c 1
 496 1368 l 1
 535 1331 l 1
 561 1375 l 1
 596 1375 l 1
 596 1277 l 2
 596 1154 616 1032 616 911 c 1
 684 981 717 1043 717 1143 c 1
 754 1146 749 1336 767 1377 c 1
 776 1375 l 1
 776 1353 l 1
 796 1331 l 1
 796 1353 l 1
 819 1370 850 1375 876 1375 c 1
 886 1349 1191 1312 1237 1310 c 1
 1122 1252 1051 1137 937 1078 c 1
 957 1078 l 1
 937 1058 l 1
 937 964 874 881 874 787 c 1
 896 765 904 728 904 689 c 0
 904 649 896 605 896 575 c 0
 896 518 918 462 918 406 c 1
 896 406 l 1
 944 309 960 201 992 98 c 1
 997 111 l 1
 997 -20 l 2
 997 -48 995 -72 981 -99 c 1
 977 -97 l 1
 977 -60 942 -32 918 5 c 1
 861 3 867 -51 867 -66 c 1
 867 -66 865 -66 837 -64 c 1
 837 -55 817 -46 817 -37 c 1
765 -37 m 1
 756 -37 l 1
 756 -33 l 2
 756 -35 761 -35 765 -37 c 1
452 -62 m 1
 452 -60 l 1
 452 -62 l 1
EndSplineSet
EndChar

StartChar: L
Encoding: 45 76 11
Width: 861
VWidth: 2308
Flags: HW
LayerCount: 2
Fore
SplineSet
912 232 m 1
 912 168 l 1
 892 168 l 1
 912 149 l 1
 883 89 873 3 873 -62 c 1
 852 -62 l 1
 813 -103 l 1
 815 -105 817 -109 817 -113 c 0
 817 -125 809 -138 772 -141 c 1
 739 -107 l 1
 745 -107 750 -105 750 -105 c 1
 750 -105 757 -125 772 -125 c 1
 772 -83 l 1
 752 -83 l 1
 772 -62 l 1
 732 -62 l 1
 691 -20 l 1
 673 -42 l 1
 674 -79 l 1
 671 -66 664 -55 653 -55 c 1
 630 -125 l 1
 630 -39 592 21 592 42 c 1
 555 40 547 -22 547 -79 c 1
 547 -78 549 -78 551 -76 c 2
 547 -83 l 1
 530 -118 l 1
 512 -118 l 1
 490 -97 l 1
 490 -20 l 1
 472 -20 l 1
 451 -6 l 1
 431 -20 l 1
 384 -20 363 -35 356 -62 c 1
 354 -59 350 -57 350 -57 c 1
 259 30 261 255 231 360 c 1
 250 380 l 1
 231 422 l 1
 250 443 l 1
 231 464 l 1
 231 485 l 1
 210 485 l 1
 210 717 l 1
 171 758 l 1
 190 800 l 1
 171 800 l 1
 171 1032 l 1
 143 1069 157 1119 129 1159 c 1
 151 1202 l 1
 129 1243 l 1
 116 1243 l 1
 129 1264 l 1
 111 1264 l 1
 90 1285 l 1
 90 1327 l 1
 70 1307 l 1
 50 1307 l 1
 50 1327 l 1
 -3 1349 l 1
 29 1349 57 1370 90 1370 c 2
 431 1370 l 1
 451 1353 l 1
 457 1368 474 1371 490 1371 c 0
 500 1371 507 1370 512 1370 c 1
 530 1349 l 1
 572 1349 l 1
 572 1370 l 1
 752 1370 l 1
 708 1326 673 1289 612 1264 c 1
 612 1211 586 1196 551 1159 c 1
 551 1117 l 1
 530 1117 l 1
 530 1097 l 1
 555 1097 574 1092 574 1064 c 1
 572 1011 l 1
 553 990 549 951 549 912 c 0
 549 886 551 861 551 844 c 0
 551 833 535 793 530 780 c 1
 549 765 555 671 555 577 c 0
 555 492 551 408 551 380 c 1
 537 380 l 1
 537 362 574 317 574 284 c 0
 574 281 572 278 572 274 c 1
 592 255 l 1
 660 256 l 1
 709 258 757 230 804 232 c 0
 826 232 841 255 861 255 c 2
 892 255 l 2
 898 255 927 271 933 274 c 1
 933 232 l 1
 912 232 l 1
350 -125 m 1
 350 -99 350 -79 356 -62 c 1
 361 -70 372 -88 372 -88 c 1
 372 -125 350 -125 350 -125 c 1
892 212 m 1
 912 190 l 1
 892 190 l 1
 892 212 l 1
739 -107 m 1
 736 -109 732 -109 732 -109 c 1
 732 -99 l 1
 739 -107 l 1
EndSplineSet
EndChar

StartChar: M
Encoding: 46 77 12
Width: 1522
VWidth: 2308
Flags: HW
LayerCount: 2
Fore
SplineSet
190 1055 m 1
 209 1097 l 1
 185 1097 l 1
 183 1099 183 1101 183 1102 c 0
 183 1110 193 1119 202 1119 c 0
 204 1119 206 1119 208 1117 c 2
 49 1329 l 1
 137 1347 623 1394 650 1414 c 1
 650 1398 661 1389 674 1389 c 0
 677 1389 681 1389 685 1391 c 1
 650 1349 l 1
 659 1241 751 1097 751 988 c 2
 751 972 l 1
 768 1034 834 1235 834 1308 c 0
 834 1340 811 1370 811 1403 c 0
 811 1407 811 1410 812 1414 c 1
 830 1414 l 1
 851 1391 l 1
 851 1414 l 1
 936 1414 884 1370 952 1370 c 1
 965 1382 985 1388 1006 1388 c 2
 1013 1388 l 1
 1031 1414 l 1
 1052 1414 l 1
 1055 1368 1411 1331 1474 1308 c 1
 1372 1245 l 1
 1316 1245 1314 1182 1314 1139 c 1
 1332 1117 l 1
 1297 1076 l 1
 1314 1055 l 1
 1291 1012 l 1
 1277 1023 l 1
 1273 1012 l 1
 1298 984 l 1
 1275 957 1270 859 1270 765 c 0
 1270 693 1273 623 1273 592 c 0
 1273 516 1262 286 1212 234 c 1
 1227 212 l 1
 1227 210 1192 -18 1192 -41 c 1
 1173 -18 l 1
 1157 -39 1131 -57 1131 -78 c 1
 1107 -35 l 1
 1120 -32 1126 -24 1131 -18 c 1
 1113 2 l 1
 1113 57 1082 66 1033 66 c 1
 1011 65 l 1
 965 57 980 24 952 12 c 1
 921 13 929 19 929 22 c 1
 952 22 l 1
 930 44 l 1
 906 21 l 2
 904 19 902 19 901 19 c 0
 895 19 890 30 890 37 c 0
 890 40 890 42 892 44 c 1
 948 54 954 228 954 332 c 0
 954 431 930 499 930 586 c 1
 952 592 l 1
 952 633 l 1
 897 575 871 317 871 234 c 1
 862 236 l 1
 857 236 855 232 851 225 c 1
 851 227 l 1
 849 221 l 1
 839 195 832 142 830 129 c 1
 849 107 l 1
 809 102 836 5 731 2 c 1
 735 26 l 1
 735 46 656 291 650 297 c 1
 654 308 661 323 661 334 c 0
 661 453 577 531 570 631 c 1
 570 547 l 2
 570 441 612 323 612 234 c 1
 607 234 l 1
 612 22 l 1
 578 22 551 39 530 65 c 1
 506 26 l 1
 510 22 l 1
 508 15 533 7 532 0 c 2
 530 -35 l 1
 503 -30 l 1
 471 65 l 1
 429 65 l 1
 405 42 l 1
 405 31 425 22 451 12 c 1
 451 2 l 2
 451 -20 436 -59 429 -76 c 1
 366 -76 352 7 350 22 c 1
 346 188 309 424 261 580 c 1
 271 592 l 1
 250 614 l 1
 271 633 l 1
 234 677 l 1
 245 739 l 1
 250 739 l 1
 236 800 243 898 209 949 c 1
 209 937 l 1
 204 937 202 949 202 949 c 1
 190 1055 l 1
1314 992 m 1
 1298 984 l 1
 1300 990 1308 992 1314 992 c 1
827 1391 m 0
 827 1394 827 1396 825 1396 c 0
 823 1396 821 1391 821 1391 c 1
 821 1389 823 1388 825 1388 c 0
 827 1388 827 1389 827 1391 c 0
851 212 m 1
 849 216 l 1
 849 221 l 2
 849 223 851 223 851 225 c 2
 851 212 l 1
600 234 m 1
 591 234 l 1
 591 232 593 232 595 232 c 0
 596 232 598 232 600 234 c 1
1227 174 m 1
 1233 170 l 2
 1229 172 1227 172 1223 172 c 1
 1223 172 1225 174 1227 174 c 1
1214 168 m 1
 1216 168 l 1
 1219 172 l 1
 1214 168 l 1
EndSplineSet
EndChar

StartChar: N
Encoding: 47 78 13
Width: 1306
VWidth: 2308
Flags: HW
LayerCount: 2
Fore
SplineSet
566 262 m 1
 563 265 559 267 555 267 c 0
 548 267 546 249 546 242 c 1
 566 242 l 1
 566 125 587 3 587 -107 c 0
 587 -132 585 -160 566 -180 c 1
 581 -199 589 -234 589 -262 c 0
 589 -271 589 -278 587 -285 c 1
 566 -306 l 1
 546 -285 l 1
 557 -266 l 1
 546 -243 545 -199 545 -159 c 0
 545 -134 545 -111 546 -96 c 1
 508 -55 l 1
 465 -74 l 1
 465 -96 l 1
 446 -113 l 1
 427 -96 l 1
 427 -74 l 1
 386 -96 l 1
 386 -223 l 1
 401 -243 l 1
 386 -266 l 1
 388 -267 390 -271 390 -273 c 0
 390 -280 380 -289 373 -289 c 0
 369 -289 367 -287 365 -285 c 2
 347 -266 l 1
 286 429 l 1
 266 429 l 1
 266 494 l 1
 237 525 186 1018 186 1093 c 0
 186 1125 186 1165 165 1189 c 1
 185 1209 l 1
 49 1209 119 1248 50 1272 c 1
 86 1294 l 1
 105 1294 l 1
 107 1296 107 1298 107 1299 c 0
 107 1307 100 1317 95 1317 c 0
 93 1317 93 1317 91 1314 c 2
 105 1336 l 1
 251 1336 397 1357 546 1357 c 1
 546 1377 l 1
 587 1377 l 2
 605 1377 610 1347 610 1320 c 0
 610 1299 607 1280 607 1272 c 1
 638 1241 615 1167 647 1167 c 1
 666 1145 l 1
 666 1127 l 1
 686 1104 l 1
 666 1104 l 1
 708 1062 l 1
 708 1025 767 890 788 851 c 1
 788 937 797 1029 797 1110 c 0
 797 1200 775 1299 726 1377 c 1
 747 1377 l 2
 845 1377 951 1338 1055 1338 c 0
 1086 1338 1127 1336 1148 1314 c 1
 1204 1317 l 2
 1213 1317 1256 1298 1266 1294 c 1
 1213 1292 1138 1176 1108 1145 c 1
 1108 923 1048 717 1048 494 c 1
 1048.00003052 413.699981689 1029 225.840232993 1029 137 c 1
 1010 116 1005 93 1005 68 c 0
 1005 42 1010 17 1010 -6 c 0
 1010 -27 1001 -57 987 -74 c 1
 987 -123 970.578947368 -116 948 -153 c 1
 928 -138 l 1
 933 -60 l 2
 933 -55 911 -20 907 -13 c 1
 895 -33 887 -50 887 -64 c 0
 887 -81 895 -97 907 -118 c 1
 887 -131 874 -159 867 -180 c 1
 867 -175 869 -169 869 -164 c 0
 869 -140 860 -114 849 -96 c 1
 826 -160 l 1
 788 -118 l 1
 788 -153 l 1
 767 -138 l 1
 767 -96 l 1
 738 -64 760 9 726 9 c 1
 728 50 l 2
 728 66 719 79 708 93 c 1
 726 93 l 1
 692 131 686 144 686 197 c 1
 666 177 l 1
 666 219 647 262 647 304 c 1
 607 346 l 1
 607 409 l 1
 590 429 573 455 561 483 c 1
 566 444 568 397 568 352 c 0
 568 315 566 282 566 262 c 1
808 -223 m 1
 808 -245 802 -250 788 -266 c 1
 788 -285 l 1
 777 -285 767 -276 767 -266 c 2
 767 -192 l 2
 767 -177 770 -160 788 -160 c 1
 788 -180 l 2
 788 -195 788 -223 808 -223 c 1
EndSplineSet
EndChar

StartChar: O
Encoding: 48 79 14
Width: 1075
VWidth: 2308
Flags: HW
LayerCount: 2
Fore
SplineSet
680 -123 m 1
 681 -118 l 2
 681 -120 681 -122 680 -123 c 1
 680 -127 l 1
 672 -144 654 -159 641 -159 c 0
 608 -159 600 -157 600 -159 c 1
 600 -146 602 -134 602 -125 c 0
 602 -88 599 2 547 2 c 0
 475 2 460 -60 458 -125 c 1
 456 -129 453 -134 453 -138 c 1
 403 -138 402 -97 402 -83 c 0
 402 -24 296 7 259 42 c 1
 259 22 l 1
 241 22 l 1
 259 42 l 1
 230 77 180 120 180 170 c 1
 201 170 l 1
 201 274 140 350 140 468 c 0
 140 615 81 749 81 885 c 1
 59 907 l 1
 81 890 l 1
 75 951 l 1
 68 946 l 1
 59 949 l 1
 81 972 l 1
 59 990 l 1
 59 1196 310 1370 501 1370 c 1
 521 1349 l 1
 542 1370 l 1
 576 1370 606 1349 641 1349 c 1
 662 1370 l 1
 704 1327 785 1312 842 1307 c 1
 882 1264 l 1
 882 1287 l 1
 903 1287 l 1
 901 1264 l 1
 921 1243 l 1
 903 1222 l 1
 917 1222 986 1217 986 1191 c 0
 986 1187 984 1185 982 1182 c 1
 1023 1137 l 1
 1003 1137 l 1
 1003 1080 1001 993 1043 949 c 1
 1014 949 1003 927 1003 905 c 0
 1003 886 1008 868 1017 856 c 1
 1010 844 1001 826 1001 811 c 0
 1001 807 1001 805 1003 802 c 1
 1023 802 l 1
 1023 789 l 2
 1023 737 1023 422 962 422 c 1
 962 380 943 337 943 295 c 1
 962 295 l 1
 914 227 l 1
 921 212 l 1
 915 151 880 89 842 42 c 1
 842 -13 820 -62 803 -118 c 1
 789 -118 781 -122 780 -127 c 1
 780 -96 783 -66 783 -55 c 0
 783 -44 771 -18 755 -18 c 1
 743 -20 l 1
 693 -70 681 -90 680 -123 c 1
621 339 m 1
 641 360 l 1
 641 527 l 2
 641 588 621 601 621 678 c 2
 621 696 l 1
 582 759 l 1
 582 782 556 780 542 780 c 1
 542 802 l 1
 521 802 l 1
 521 791 514 780 501 780 c 1
 501 759 l 1
 481 759 l 1
 442 696 l 1
 442 642 420 621 420 550 c 0
 420 520 420 487 442 464 c 1
 420 464 l 1
 420 446 424 444 442 444 c 1
 442 339 l 1
 463 317 465 234 481 234 c 1
 499 210 503 170 542 170 c 0
 597 170 621 274 621 317 c 1
 602 317 l 1
 602 339 l 1
 621 339 l 1
460 -120 m 1
 460 -122 458 -125 458 -129 c 2
 458 -125 l 2
 458 -123 460 -122 460 -120 c 1
EndSplineSet
EndChar

StartChar: P
Encoding: 49 80 15
Width: 1183
VWidth: 2308
Flags: HW
LayerCount: 2
Fore
SplineSet
32 1322 m 1
 196 1347 360 1364 527 1364 c 2
 574 1364 l 1
 590 1382 599 1386 609 1386 c 0
 615 1386 620 1384 626 1384 c 0
 629 1384 633 1384 638 1388 c 1
 638 1366 680 1364 694 1364 c 1
 714 1347 l 1
 773 1386 l 1
 775 1357 872 1355 895 1355 c 1
 895 1364 l 1
 1051 1364 1134 1185 1134 1049 c 1
 1013 929 1183 291 833 291 c 1
 814 311 l 1
 808 311 l 2
 789 311 799 291 779 291 c 2
 773 291 l 1
 773 311 l 1
 722 286 l 1
 714 311 l 1
 694 311 l 1
 694 291 l 1
 673 311 l 1
 673 291 l 1
 655 269 l 1
 655 192 673 116 673 39 c 1
 655 17 l 1
 689 17 662 -66 689 -92 c 1
 673 -79 l 1
 673 -96 l 1
 661 -96 653 -97 652 -101 c 1
 652 -88 653 -79 655 -74 c 1
 644 -51 l 1
 613 -66 l 1
 613 -88 l 1
 594 -88 l 1
 613 -101 613 -111 613 -123 c 1
 594 -88 l 1
 576 -88 571 -90 571 -90 c 1
 571 -83 574 -76 574 -76 c 1
 574 -69 554 -57 554 -46 c 1
 513 -22 l 1
 480 -30 455 -22 455 -66 c 1
 471 -88 l 1
 455 -88 l 2
 393 -88 351 138 351 179 c 0
 351 205 355 230 373 249 c 1
 329 251 334 336 334 363 c 0
 334 564 233 774 233 1006 c 0
 233 1074 220 1148 176 1202 c 0
 137 1250 75 1270 32 1322 c 1
833 732 m 1
 795 796 l 1
 633 796 l 1
 633 776 l 1
 653 776 655 774 655 754 c 2
 655 712 l 2
 655 691 652 691 633 691 c 1
 655 671 l 1
 655 522 l 1
 673 501 l 1
 673 480 l 1
 687 480 694 490 694 501 c 1
 833 501 l 1
 833 732 l 1
EndSplineSet
EndChar

StartChar: Q
Encoding: 50 81 16
Width: 1113
VWidth: 2308
Flags: HW
LayerCount: 2
Fore
SplineSet
944 1229 m 1
 935 1250 l 1
 1038 1139 1055 1099 1055 955 c 0
 1055 905 1071 858 1075 807 c 1
 1055 807 l 1
 1055 724 1046 376 1016 323 c 1
 1034 323 l 1
 1009 267 1000 201 955 155 c 1
 975 133 l 1
 965 135 l 1
 953 123 l 1
 955 112 l 1
 975 112 l 1
 975 91 l 1
 1046 28 l 1
 1062 28 1086 33 1095 50 c 1
 1095 -57 1038 -30 1034 -78 c 1
 981 -78 931 -231 914 -276 c 1
 914 -245 l 1
 894 -245 l 1
 894 -180 867 -122 795 -120 c 1
 795 -116 796 -114 796 -111 c 0
 796 -90 784 -69 775 -55 c 1
 701 -78 631 -78 553 -78 c 0
 548 -78 448 -20 437 -15 c 1
 453 -15 l 1
 411 31 358 66 314 112 c 1
 314 98 l 1
 304 140 256 165 233 197 c 1
 253 197 l 1
 242 209 168 328 172 334 c 1
 183 362 l 1
 135 408 l 1
 147 429 156 461 156 489 c 0
 156 498 156 505 154 513 c 1
 124 542 52 821 52 870 c 0
 52 900 72 933 72 955 c 0
 72 967 61 975 50 975 c 0
 48 975 45 975 43 975 c 1
 52 993 65 1014 85 1020 c 1
 72 1020 l 1
 102 1049 131 1101 131 1145 c 1
 129 1143 126 1143 124 1143 c 0
 115 1143 107 1150 107 1159 c 0
 107 1211 485 1366 555 1366 c 0
 889 1366 798 1273 944 1229 c 1
553 343 m 1
 594 302 597 197 655 197 c 1
 655 199 675 260 694 260 c 1
 694 345 l 1
 699 343 706 343 714 343 c 1
 714 374 734 354 734 408 c 1
 715 408 l 1
 736 415 736 490 736 508 c 0
 736 570 719 621 714 680 c 1
 708 735 712 828 633 828 c 0
 543 828 533 661 533 597 c 0
 533 545 515 498 515 448 c 1
 537 446 553 362 553 343 c 1
708 696 m 2
 710 691 712 687 712 682 c 1
 708 696 l 2
EndSplineSet
EndChar

StartChar: R
Encoding: 51 82 17
Width: 1286
VWidth: 2308
Flags: HW
LayerCount: 2
Fore
SplineSet
664 212 m 1
 687 207 l 1
 687 94 708 -6 708 -118 c 1
 692 -92 l 1
 689 -87 l 1
 692 -90 l 1
 692 -42 678 -6 608 -6 c 1
 581 -33 567 -74 567 -111 c 1
 590 -94 602 -87 608 -74 c 1
 608 -99 l 1
 588 -120 l 1
 557 -120 546 -105 544 -92 c 1
 544 -99 548 -105 548 -111 c 1
 523 -85 532 -25 486 -25 c 0
 458 -25 451 -37 451 -60 c 1
 453 -51 465 -41 468 -41 c 1
 448 -81 l 1
 433 -42 407 -25 407 21 c 0
 407 98 404 179 368 247 c 1
 387 247 l 1
 387 306 367 358 367 418 c 0
 367 424 368 431 368 439 c 1
 346 439 l 1
 346 468 326 492 326 522 c 1
 346 543 l 1
 346 561 333 566 319 566 c 0
 314 566 309 564 305 564 c 1
 307 606 l 1
 321 615 326 634 326 649 c 1
 287 649 l 1
 287 768 267 886 267 1006 c 1
 217 1058 228 1157 147 1174 c 1
 147 1248 46 1235 46 1299 c 1
 136 1299 217 1344 307 1344 c 1
 346 1322 l 1
 402 1379 501 1377 571 1377 c 0
 656 1377 785 1375 848 1347 c 1
 879 1366 l 1
 929 1364 l 1
 947 1342 1060 1290 1089 1281 c 0
 1137 1266 1169 1194 1209 1194 c 1
 1241 1164 1239 1108 1239 1067 c 0
 1239 935 1225 782 1209 649 c 0
 1204 606 1137 507 1137 448 c 0
 1137 437 1139 427 1144 420 c 1
 1128 417 l 1
 1100 387 1049 408 1049 352 c 1
 1107 291 1109 201 1109 121 c 1
 1086 107 l 1
 1089 81 l 1
 1119 46 1133 -15 1133 -59 c 1
 1098 -113 l 1
 1089 -111 l 1
 1049 -69 l 1
 1049 -88 l 1
 960 -88 1003 -57 949 -25 c 1
 953 -64 l 1
 953 -79 936 -90 929 -105 c 1
 889 -83 l 1
 889 -66 908 -51 908 -35 c 1
 896 -25 l 1
 870 -25 l 1
 870 -27 852 -32 848 -33 c 1
 833 -4 827 21 827 50 c 0
 827 72 827 93 829 114 c 1
 809 142 l 1
 815 210 l 1
 820 201 l 1
 824 207 l 1
 809 227 l 1
 809 247 l 1
 789 269 l 1
 792 290 l 1
 792 302 787 321 783 334 c 1
 754 334 717 319 687 311 c 1
 687 332 l 1
 669 311 l 1
 678 311 l 1
 687 247 l 1
 664 212 l 1
809 564 m 0
 820 568 827 573 827 584 c 1
 848 584 l 1
 848 606 855 614 870 627 c 1
 870 691 l 1
 881 691 889 703 889 712 c 0
 889 728 870 737 870 754 c 1
 789 816 l 1
 708 816 l 1
 687 796 l 1
 669 816 l 1
 669 796 l 1
 648 796 l 1
 669 774 l 1
 669 691 l 1
 656 691 648 680 648 669 c 1
 669 669 l 1
 669 588 662 561 773 561 c 0
 785 561 798 561 809 564 c 0
827 543 m 1
 809 564 l 1
 809 543 l 1
 827 543 l 1
708 -118 m 1
 710 -120 710 -120 710 -122 c 0
 710 -123 710 -123 708 -125 c 1
 708 -118 l 1
689 -87 m 1
 687 -87 687 -85 687 -83 c 2
 689 -87 l 1
EndSplineSet
EndChar

StartChar: S
Encoding: 52 83 18
Width: 1089
VWidth: 2308
Flags: HW
LayerCount: 2
Fore
SplineSet
999 660 m 1
 1019 660 l 1
 999 638 l 1
 999 660 l 1
375 -37 m 1
 375 -57 l 1
 370 -60 353 -74 346 -74 c 0
 318 -74 311 -35 276 -35 c 1
 252 -13 199 37 197 70 c 1
 174 102 136 153 136 192 c 0
 136 212 130 216 118 216 c 2
 95 216 l 1
 134 276 204 290 280 290 c 0
 342 290 407 281 456 281 c 1
 477 300 l 1
 475 290 l 1
 475 273 479 258 497 258 c 1
 497 175 l 1
 508 177 l 1
 523 177 538 172 538 153 c 1
 558 153 l 1
 598 177 626 205 658 237 c 1
 637 258 l 1
 637 281 l 1
 619 300 l 1
 619 343 l 1
 551 339 l 2
 524 337 495 343 477 363 c 1
 471 362 464 362 456 362 c 0
 420 362 373 376 357 406 c 1
 336 385 l 1
 130 483 55 568 55 813 c 0
 55 883 75 951 75 1018 c 1
 136 1122 l 1
 136 1312 582 1361 596 1375 c 1
 728 1375 783 1357 892 1281 c 1
 899 1290 l 1
 947 1236 1010 1196 1059 1143 c 1
 1059 1122 l 1
 1039 1122 l 1
 1039 967 1019 814 1019 660 c 1
 1039 660 l 1
 1039 638 l 1
 1019 615 l 1
 1004 623 948 661 925 661 c 0
 923 661 921 660 920 660 c 2
 899 638 l 1
 838 680 l 1
 838 660 l 1
 677 660 l 2
 641 660 632 682 632 708 c 0
 632 726 635 747 637 765 c 1
 619 743 l 1
 577 786 l 1
 538 786 l 2
 532 786 503 768 497 765 c 1
 497 743 l 1
 477 721 l 1
 477 684 517 615 558 615 c 1
 558 596 l 1
 577 615 l 1
 725 615 973 496 973 323 c 0
 973 313 964 234 945 234 c 0
 943 234 941 234 939 236 c 2
 958 216 l 1
 958 160 858 98 858 28 c 1
 818 -35 l 1
 821 -64 l 1
 797 -64 l 1
 797 -79 l 1
 758 -97 l 1
 755 -90 737 -60 737 -57 c 1
 797 -57 l 1
 737 -16 l 1
 658 -57 l 1
 658 -79 l 1
 635 -101 637 -132 637 -162 c 1
 619 -162 l 1
 619 -141 l 2
 619 -114 621 -79 637 -57 c 1
 637 -30 l 1
 635 -32 632 -33 619 -35 c 1
 572 -35 l 1
 572 -39 577 -41 577 -42 c 0
 577 -48 561 -76 558 -83 c 1
 538 -62 l 1
 538 -35 l 1
 436 -35 l 1
 436 -66 456 -94 456 -125 c 1
 417 -79 l 1
 417 -57 l 1
 398 -57 l 1
 375 -37 l 1
EndSplineSet
EndChar

StartChar: T
Encoding: 53 84 19
Width: 1320
VWidth: 2308
Flags: HW
LayerCount: 2
Fore
SplineSet
568 162 m 1
 547 183 l 1
 547 271 529 348 529 437 c 1
 547 457 l 1
 547 498 l 1
 529 520 l 1
 542 534 547 559 547 584 c 0
 547 631 529 684 507 710 c 1
 510 714 512 717 512 719 c 0
 512 728 496 730 489 730 c 0
 463 730 428 728 407 710 c 1
 359 710 331 708 287 689 c 1
 267 710 l 1
 227 668 l 1
 227 933 227 1008 127 1257 c 1
 67 1299 l 1
 86 1320 l 1
 146 1317 l 1
 171 1314 199 1342 217 1340 c 1
 315 1340 394 1362 489 1362 c 2
 788 1362 l 2
 941 1362 1103 1301 1249 1299 c 1
 1249 1202 1148 1174 1148 1110 c 1
 1130 1088 l 1
 1170 1067 l 1
 1110 668 l 1
 1089 689 l 1
 1069 689 l 1
 1049 710 l 1
 980 710 927 752 868 752 c 1
 868 726 868 668 848 647 c 1
 868 625 l 1
 868 478 l 1
 848 457 l 1
 848 392 l 1
 868 372 l 1
 829 267 l 1
 848 246 l 1
 848 227 l 1
 829 205 l 1
 848 183 l 1
 848 -48 l 2
 848 -87 829 -127 827 -169 c 1
 813 -169 806 -169 804 -177 c 1
 804 -146 807 -122 809 -113 c 1
 769 -90 l 1
 748 -113 l 1
 748 -175 l 1
 707 -175 l 1
 707 -132 l 1
 689 -153 667 -159 644 -159 c 0
 625 -159 605 -155 588 -153 c 1
 586 -160 586 -169 586 -175 c 1
 586 -173 608 -171 608 -169 c 1
 608 -197 570 -212 547 -212 c 1
 547 -83 568 37 568 162 c 1
EndSplineSet
EndChar

StartChar: U
Encoding: 54 85 20
Width: 1359
VWidth: 2308
Flags: HW
LayerCount: 2
Fore
SplineSet
311 70 m 1
 333 91 l 1
 274 149 302 321 252 343 c 1
 252 448 l 1
 231 468 l 1
 231 490 l 1
 252 511 l 1
 252 533 l 1
 231 533 l 1
 231 555 l 1
 252 575 l 1
 252 599 202 953 191 1018 c 1
 170 1018 l 1
 191 1038 l 1
 172 1056 168 1108 168 1150 c 0
 168 1173 168 1192 170 1206 c 1
 112 1266 133 1310 31 1310 c 1
 31 1333 l 1
 147 1333 266 1375 372 1375 c 2
 602 1375 l 1
 572 1333 l 1
 578 1208 l 2
 580 1173 576 1128 552 1101 c 1
 562 1090 590 1008 590 995 c 2
 590 807 l 2
 590 741 552 682 552 615 c 0
 552 564 574 511 574 452 c 0
 574 444 572 435 572 427 c 1
 589 409 592 387 592 363 c 0
 592 345 590 325 590 306 c 0
 590 295 609 251 613 237 c 1
 671 237 l 1
 713 281 l 1
 713 302 l 2
 713 330 713 363 733 385 c 1
 713 385 l 1
 731 406 734 429 734 457 c 0
 734 476 733 494 733 511 c 1
 753 533 l 1
 733 555 l 1
 733 575 l 1
 753 596 l 1
 733 615 l 1
 733 638 l 1
 753 638 l 1
 753 786 773 933 773 1080 c 1
 759 1101 l 1
 773 1101 l 1
 773 1143 l 1
 753 1165 l 1
 773 1185 l 1
 773 1235 792 1281 792 1333 c 1
 753 1375 l 1
 796 1351 842 1347 889 1347 c 0
 906 1347 923 1349 939 1349 c 0
 977 1349 1016 1345 1053 1333 c 1
 1049 1336 1048 1340 1048 1342 c 0
 1048 1351 1067 1353 1074 1353 c 1
 1074 1333 l 1
 1112 1333 1225 1314 1255 1290 c 1
 1336 1290 l 1
 1234 1227 l 1
 1193 1143 l 1
 1214 1122 l 1
 1193 1122 l 1
 1193 1101 l 1
 1142 830 1077 814 1077 481 c 0
 1077 461 1068 441 1053 427 c 1
 1053 406 l 1
 1074 385 l 1
 1053 385 l 1
 1053 358 l 2
 1053 336 1051 319 1033 300 c 1
 1053 281 l 1
 1033 281 l 1
 1033 269 l 2
 1033 246 1021 212 1013 195 c 1
 1033 175 l 1
 1013 175 l 1
 993 153 l 1
 1013 133 l 1
 993 133 l 1
 952 70 l 1
 963 48 l 1
 834 48 l 1
 840 -46 l 2
 842 -74 812 -99 792 -127 c 1
 788 -120 773 -92 773 -85 c 0
 773 -46 812 -11 812 28 c 1
 753 48 l 1
 692 5 l 1
 694 -32 l 2
 694 -50 685 -64 671 -78 c 1
 671 48 l 1
 633 91 l 1
 590 91 l 2
 574 91 569 77 569 63 c 0
 569 52 572 37 572 30 c 0
 572 15 567 5 552 5 c 1
 552 -16 l 1
 511 5 l 1
 491 48 l 1
 491 5 l 1
 473 -16 l 1
 491 -35 l 1
 488 -44 474 -64 473 -72 c 1
 451 -72 l 1
 441 -62 434 -57 430 -50 c 1
 419 12 375 70 311 70 c 1
432 -78 m 1
 432 -78 418 -74 418 -33 c 1
 419 -39 423 -42 430 -50 c 1
 432 -59 432 -69 432 -78 c 1
EndSplineSet
EndChar

StartChar: V
Encoding: 55 86 21
Width: 1248
VWidth: 2308
Flags: HW
LayerCount: 2
Fore
SplineSet
1006 858 m 1
 1004 849 l 1
 1002 848 l 1
 930 700 948 498 858 354 c 1
 860 317 l 2
 860 299 853 282 839 269 c 1
 839 207 801 84 758 39 c 1
 758 17 l 1
 779 17 l 1
 711 -27 807 -123 644 -160 c 1
 626 -118 l 1
 644 -99 644 -85 666 -66 c 1
 567 -66 639 -131 526 -131 c 1
 510 -111 l 1
 484 -111 l 1
 456 -101 l 1
 466 -74 l 1
 441 -97 l 1
 441 -99 l 1
 425 -118 l 1
 399 -109 392 -88 392 -66 c 0
 392 -30 350 13 350 39 c 0
 350 111 338 184 309 249 c 1
 329 269 l 1
 259 269 283 444 270 480 c 0
 195 689 246 935 189 1146 c 1
 169 1125 l 1
 169 1209 l 1
 117 1277 37 1336 -36 1336 c 1
 44 1344 504 1379 526 1386 c 1
 559 1347 l 1
 526 1364 l 1
 506 1344 504 1320 504 1292 c 2
 504 1259 l 1
 526 1268 l 1
 526 1255 l 1
 512 1238 l 1
 515 1218 524 1185 545 1174 c 1
 526 1154 l 1
 526 1111 l 2
 526 997 556 876 565 759 c 1
 545 776 l 1
 545 649 565 524 565 397 c 1
 605 501 l 1
 585 522 l 1
 593 536 746 1294 746 1301 c 1
 768 1336 l 1
 765 1364 l 1
 746 1364 l 1
 746 1386 l 1
 784 1364 l 1
 807 1386 l 1
 834 1364 990 1362 1099 1362 c 2
 1186 1362 l 2
 1219 1362 1247 1359 1280 1359 c 1
 1157 1345 1041 1021 1006 859 c 1
 1006 858 l 1
EndSplineSet
EndChar

StartChar: W
Encoding: 56 87 22
Width: 1717
VWidth: 2308
Flags: HW
LayerCount: 2
Fore
SplineSet
1193 1362 m 1
 1172 1384 l 1
 1193 1368 l 1
 1193 1384 l 1
 1213 1405 l 1
 1234 1384 l 1
 1234 1362 l 1
 1239 1361 1244 1361 1252 1361 c 0
 1280 1361 1311 1371 1333 1384 c 1
 1333 1362 l 1
 1473 1362 1604 1298 1735 1257 c 1
 1674 1235 l 1
 1674 1231 l 1
 1656 1235 l 1
 1578 1217 1568 1185 1514 1130 c 1
 1514 1110 l 1
 1496 1088 l 1
 1510 1088 l 1
 1403 1053 1320 761 1274 668 c 1
 1283 647 l 1
 1274 647 l 1
 1255 592 1191 389 1191 323 c 0
 1191 317 1191 313 1193 309 c 1
 1172 309 l 1
 1193 288 l 1
 1172 267 l 1
 1154 267 l 1
 1127 179 1095 107 1095 15 c 0
 1095 2 1073 -11 1073 -24 c 1
 1060 -15 l 1
 1064 -11 1068 -7 1073 -6 c 1
 1064 -6 1053 -4 1046 0 c 1
 1033 15 l 1
 1040 0 l 1
 1007 12 977 35 933 35 c 1
 935 33 937 30 937 28 c 0
 937 21 928 12 920 12 c 0
 917 12 915 13 913 15 c 1
 913 3 l 1
 894 -7 l 1
 894 7 893 22 893 35 c 1
 911 56 913 81 913 107 c 0
 913 209 875 323 875 429 c 0
 875 444 859 481 854 498 c 1
 854 390 812 290 812 183 c 1
 793 183 l 1
 793 175 791 170 791 162 c 0
 791 102 813 28 815 -30 c 1
 812 -15 l 1
 793 -35 l 1
 782 -35 775 -27 773 -18 c 1
 773 -13 771 -7 771 -4 c 2
 771 0 l 1
 767 13 762 26 752 35 c 1
 732 35 l 1
 731 28 731 19 731 12 c 1
 725 21 712 26 712 35 c 1
 671 77 l 1
 662 59 657 37 653 15 c 1
 627 44 532 317 532 352 c 1
 511 352 l 1
 532 372 l 1
 474 487 487 631 391 730 c 1
 371 730 l 1
 391 752 l 1
 353 795 l 1
 330 795 l 1
 330 858 310 920 310 983 c 1
 291 1004 l 1
 295 1008 297 1012 297 1014 c 0
 297 1025 266 1025 266 1036 c 0
 266 1039 268 1043 272 1047 c 1
 235 1047 l 1
 251 1067 l 1
 231 1088 l 1
 210 1088 l 1
 231 1110 l 1
 187 1155 117 1169 71 1215 c 1
 48 1215 l 2
 26 1215 6 1218 -8 1235 c 1
 15 1238 371 1338 371 1322 c 1
 371 1362 458 1327 493 1362 c 1
 532 1320 l 1
 551 1340 l 1
 572 1340 l 1
 551 1362 l 1
 572 1362 l 1
 592 1340 l 1
 592 1331 l 2
 592 1307 594 1275 611 1257 c 1
 592 1261 l 1
 592 1194 l 1
 611 1194 l 1
 611 1164 609 1146 609 1134 c 0
 609 1111 613 1095 632 1047 c 1
 631 1029 l 1
 631 972 651 911 671 858 c 1
 671 974 701 1083 732 1194 c 1
 712 1194 l 1
 738 1204 766 1314 773 1340 c 1
 762 1347 l 1
 773 1362 l 1
 773 1353 l 1
 793 1384 l 1
 773 1384 l 1
 793 1405 l 1
 986 1405 l 1
 972 1362 l 1
 992 1342 994 1317 994 1289 c 2
 994 1257 l 1
 1016 1233 1058 1014 1073 962 c 1
 1097 1018 1110 1086 1154 1130 c 1
 1134 1152 l 1
 1134 1174 l 1
 1180 1218 1197 1255 1197 1310 c 0
 1197 1326 1195 1342 1193 1362 c 1
EndSplineSet
EndChar

StartChar: X
Encoding: 57 88 23
Width: 1285
VWidth: 2308
Flags: HW
LayerCount: 2
Fore
SplineSet
442 689 m 1
 442 730 l 2
 442 780 422 830 422 879 c 1
 374 942 368 1018 302 1067 c 1
 300 1161 149 1231 80 1280 c 1
 59 1280 l 2
 33 1280 1 1280 -19 1299 c 1
 89 1299 193 1342 302 1342 c 1
 302 1362 l 1
 402 1359 l 1
 432 1357 476 1359 501 1384 c 1
 501 1362 l 1
 486 1362 l 1
 541 1342 l 1
 562 1362 l 1
 562 1342 l 1
 641 1280 l 1
 602 1280 l 1
 602 1236 l 1
 620 1218 622 1200 622 1180 c 0
 622 1171 622 1161 622 1152 c 1
 639 1128 656 1101 665 1073 c 1
 678 1095 763 1272 763 1317 c 0
 763 1318 763 1318 763 1320 c 1
 742 1320 l 1
 742 1342 l 1
 722 1342 l 1
 722 1362 l 1
 742 1373 l 1
 742 1362 l 1
 831 1362 1250 1303 1304 1257 c 1
 1319 1257 l 1
 1185 1222 1028 1157 963 1027 c 1
 984 1027 l 1
 984 1004 l 1
 963 1027 l 1
 884 877 921 706 824 564 c 1
 842 542 l 1
 842 499 l 1
 824 499 l 1
 824 478 l 1
 827 481 831 483 833 483 c 0
 838 483 842 476 842 468 c 0
 842 461 838 453 833 453 c 0
 831 453 827 455 824 459 c 1
 824 383 863 304 863 237 c 0
 863 234 863 230 863 227 c 1
 944 140 935 -13 984 -113 c 1
 963 -113 l 1
 944 -90 l 1
 944 -69 l 1
 921 -46 890 -48 863 -48 c 1
 842 -25 l 1
 782 -25 l 1
 763 -48 l 1
 701 -48 l 1
 701 54 683 153 641 247 c 1
 641 165 l 1
 601 165 601 50 601 24 c 0
 601 -22 601 -27 622 -69 c 1
 582 -25 l 1
 562 -25 l 1
 562 -53 l 1
 523 -48 l 1
 501 -69 l 1
 483 -69 l 1
 462 -48 l 1
 422 -90 l 1
 402 -90 l 1
 402 -113 l 1
 383 -113 l 1
 383 -69 l 1
 360 -90 l 1
 341 -69 l 1
 341 -25 l 1
 383 37 l 1
 385 65 399 93 413 116 c 1
 402 120 l 1
 402 142 l 1
 460 205 422 309 462 352 c 1
 442 352 l 1
 462 372 l 1
 462 415 l 1
 501 478 l 1
 501 522 464 527 462 555 c 1
 457 553 l 1
 442 564 l 1
 462 564 l 1
 449 615 432 668 422 721 c 1
 442 689 l 1
EndSplineSet
EndChar

StartChar: Y
Encoding: 58 89 24
Width: 1514
VWidth: 2308
Flags: HW
LayerCount: 2
Fore
SplineSet
1556 1248 m 1
 1552 1224 l 1
 1467 1224 1375 1182 1323 1111 c 1
 1327 1108 l 1
 1327 1097 1281 1076 1281 1078 c 1
 1264 1055 1141 933 1141 930 c 0
 1106 831 1062 385 1062 276 c 0
 1062 184 1047 -48 1007 -48 c 0
 1004 -48 1002 -46 1000 -44 c 1
 1002 -44 1002 -42 1002 -42 c 1
 1002 -33 999 -20 981 -16 c 1
 951 -44 879 -57 835 -59 c 1
 822 -85 l 1
 800 -64 l 1
 766 151 782 538 621 719 c 1
 621 826 525 894 499 993 c 1
 520 993 l 1
 453 1001 437 1060 379 1078 c 1
 379 1119 l 1
 378 1117 374 1115 372 1115 c 0
 365 1115 356 1125 356 1134 c 0
 356 1136 358 1139 360 1141 c 1
 269 1185 89 1310 -2 1310 c 1
 -2 1329 l 1
 18 1310 l 1
 98 1329 177 1351 260 1351 c 1
 260 1371 l 1
 295 1371 324 1353 360 1351 c 1
 379 1371 l 1
 621 1371 l 1
 621 1351 l 1
 629 1344 680 1270 680 1248 c 2
 680 1246 l 1
 701 1224 l 1
 702 1226 704 1227 708 1227 c 0
 715 1227 724 1218 724 1211 c 0
 724 1208 722 1206 720 1204 c 1
 822 1036 l 1
 940 1246 l 1
 921 1266 l 1
 921 1289 l 1
 940 1289 l 1
 940 1326 962 1357 962 1394 c 1
 977 1373 995 1371 1016 1371 c 2
 1041 1371 l 1
 1104 1307 1213 1353 1262 1310 c 1
 1362 1310 l 1
 1362 1273 1522 1252 1556 1248 c 1
EndSplineSet
EndChar

StartChar: Z
Encoding: 59 90 25
Width: 1519
VWidth: 2308
Flags: HW
LayerCount: 2
Fore
SplineSet
82 1283 m 1
 108 1310 l 1
 228 1324 338 1375 460 1375 c 2
 638 1375 l 1
 634 1371 633 1368 633 1364 c 0
 633 1359 641 1355 648 1355 c 0
 657 1355 664 1359 664 1364 c 0
 664 1368 662 1371 659 1375 c 1
 880 1375 l 2
 954 1375 1028 1355 1102 1355 c 1
 1102 1333 l 1
 1120 1335 1136 1336 1155 1336 c 0
 1280 1336 1392 1270 1521 1270 c 1
 1498 1245 1424 1202 1422 1165 c 1
 1332 1021 1274 851 1164 726 c 1
 1165 728 1165 730 1165 732 c 0
 1165 741 1146 743 1140 743 c 1
 1140 723 l 1
 1121 700 l 1
 1116 698 1112 698 1107 698 c 0
 1099 698 1090 700 1081 700 c 1
 1081 680 l 1
 1030 680 1014 612 1003 612 c 1
 1003 612 1002 614 1000 617 c 1
 961 596 l 1
 961 575 l 1
 880 490 l 1
 880 468 l 1
 859 448 l 1
 858 450 854 452 852 452 c 0
 845 452 836 443 836 435 c 0
 836 431 838 429 840 427 c 1
 821 408 l 1
 824 404 826 400 826 397 c 0
 826 385 793 385 793 374 c 0
 793 371 796 367 799 363 c 1
 780 343 l 1
 760 343 l 1
 780 323 l 1
 740 302 l 1
 740 281 l 1
 720 258 l 1
 787 258 994 262 1060 216 c 1
 1065 197 l 1
 1060 153 l 1
 1020 133 l 1
 1000 91 l 1
 1020 70 l 1
 921 -53 l 1
 900 -53 l 1
 880 -33 l 1
 880 -41 900 -50 900 -57 c 1
 834 -35 768 -6 696 -6 c 0
 677 -6 657 -11 638 -15 c 1
 638 -33 l 1
 624 -33 l 1
 624 3 606 28 539 28 c 1
 499 5 l 1
 499 -15 l 1
 483 -18 478 -24 478 -30 c 2
 480 -42 l 1
 460 -33 l 1
 460 -22 l 1
 404 -15 399 -4 399 5 c 1
 379 5 l 1
 362 24 355 65 355 98 c 0
 355 138 408 207 437 258 c 1
 460 258 l 1
 460 281 465 306 480 323 c 1
 480 339 l 2
 480 360 485 363 497 363 c 2
 518 363 l 1
 518 408 l 1
 499 408 l 1
 539 448 l 1
 539 490 l 1
 559 490 l 1
 559 640 659 651 659 700 c 1
 679 714 694 743 699 765 c 1
 580 765 l 2
 528 765 488 723 437 723 c 1
 298 638 l 1
 319 660 l 1
 298 660 l 1
 279 680 l 1
 279 1056 89 1174 82 1283 c 1
EndSplineSet
EndChar

StartChar: a
Encoding: 66 97 26
Width: 988
VWidth: 2308
Flags: HW
LayerCount: 2
Fore
SplineSet
677 -120 m 1
 633 -83 l 1
 596 -107 l 1
 572 -105 l 1
 593 -83 l 1
 593 -44 604 -6 604 33 c 1
 586 22 l 1
 568 42 l 1
 584 42 l 1
 567 63 552 83 539 105 c 1
 505 100 l 1
 480 116 l 1
 460 83 l 1
 480 83 l 1
 482 63 l 1
 465 65 l 1
 465 59 467 56 467 50 c 0
 467 30 454 -25 438 -25 c 0
 433 -25 426 -18 424 -11 c 1
 421 -50 417 -94 396 -148 c 1
 373 -127 l 1
 373 -140 l 2
 373 -171 338 -169 316 -169 c 1
 314 -148 l 1
 290 -155 264 -160 239 -164 c 1
 194 -116 208 -20 202 42 c 1
 218 40 l 1
 222 63 l 1
 198 68 192 179 185 207 c 1
 224 207 222 265 222 291 c 1
 202 271 l 1
 198 341 l 1
 198 389 208 503 224 545 c 1
 206 545 l 1
 209 557 241 631 241 636 c 0
 241 710 208 780 208 856 c 0
 208 877 222 905 244 916 c 1
 218 993 209 1058 208 1139 c 1
 224 1161 l 1
 180 1180 69 1322 25 1322 c 0
 23 1322 21 1322 19 1322 c 1
 19 1357 426 1388 613 1388 c 0
 626 1388 646 1373 655 1366 c 1
 721 1386 793 1389 864 1389 c 2
 1033 1388 l 1
 825 1268 839 1155 839 944 c 0
 839 874 830 752 797 691 c 1
 810 691 816 700 816 712 c 0
 816 714 816 717 816 719 c 1
 834 733 l 1
 823 723 818 705 818 682 c 0
 818 623 845 540 848 501 c 1
 829 501 l 1
 829 536 l 1
 818 516 811 492 811 468 c 2
 811 459 l 1
 834 434 l 1
 830 481 l 1
 850 481 l 1
 850 474 l 2
 850 319 804 165 804 12 c 0
 804 -9 804 -132 773 -136 c 1
 758 -122 l 1
 734 -125 l 1
 718 -105 l 1
 674 -123 l 1
 677 -120 l 1
473 418 m 1
 454 418 l 1
 456 395 461 371 461 348 c 0
 461 327 456 308 442 291 c 1
 443 271 l 1
 461 291 l 1
 581 291 l 1
 579 319 579 348 576 376 c 0
 576 380 565 392 565 397 c 0
 565 411 572 424 572 439 c 1
 570 457 577 524 547 524 c 1
 565 545 l 1
 547 545 l 1
 563 564 l 1
 544 564 l 1
 542 586 l 1
 554 586 561 596 561 606 c 1
 541 606 l 1
 535 708 l 1
 519 615 471 533 471 439 c 0
 471 431 473 424 473 418 c 1
836 332 m 1
 834 330 834 330 832 330 c 0
 829 330 827 334 823 334 c 0
 821 334 821 325 821 323 c 2
 821 308 l 1
 823 317 830 323 836 332 c 1
779 -141 m 1
 769 -136 l 1
 779 -141 l 1
672 -125 m 1
 672 -123 672 -123 674 -123 c 1
 672 -125 l 1
EndSplineSet
EndChar

StartChar: b
Encoding: 67 98 27
Width: 1331
VWidth: 2308
Flags: HW
LayerCount: 2
Fore
SplineSet
980 -132 m 1
 919 -132 l 1
 900 -111 l 1
 879 -132 l 1
 851 -101 742 -66 700 -66 c 1
 679 -88 l 1
 657 -64 l 1
 639 -111 l 1
 598 -69 l 1
 619 -46 l 1
 600 -46 l 2
 568 -46 460 -44 460 -92 c 1
 438 -111 l 1
 412 -109 397 -39 397 -18 c 1
 403 17 l 1
 412 13 l 1
 418 17 l 1
 377 100 l 1
 399 121 399 155 399 184 c 1
 396 181 l 1
 359 207 l 1
 355 246 l 2
 355 255 373 300 377 311 c 1
 359 311 l 1
 344 332 l 1
 325 365 318 557 318 605 c 0
 318 721 259 830 259 942 c 1
 297 984 l 1
 278 981 l 1
 278 1006 l 1
 272 1004 l 1
 243 1004 146 1185 117 1217 c 1
 93 1241 60 1254 38 1281 c 1
 58 1277 l 1
 116 1277 162 1318 216 1322 c 1
 216 1303 l 1
 237 1322 l 1
 259 1299 l 1
 259 1322 l 1
 504 1362 753 1364 1000 1364 c 0
 1260 1364 1280 1093 1280 902 c 0
 1280 842 1173 580 1140 522 c 1
 1161 499 l 1
 1143 496 l 1
 1120 525 l 1
 1120 498 1118 439 1080 439 c 1
 1081 448 l 2
 1081 452 1071 459 1062 459 c 2
 1061 459 l 1
 1076 439 l 1
 1018 417 l 1
 1094 411 1136 323 1136 255 c 0
 1136 193 1099 142 1099 79 c 0
 1099 -2 1018 -50 1000 -131 c 1
 980 -111 l 1
 980 -132 l 1
718 564 m 1
 775 564 799 543 840 543 c 1
 840 522 l 1
 860 543 l 1
 871 543 879 553 879 564 c 0
 879 575 871 584 860 584 c 1
 862 594 879 647 879 649 c 2
 879 710 l 2
 879 756 840 774 799 774 c 2
 718 774 l 1
 700 754 l 1
 679 754 l 1
 679 735 677 732 659 732 c 1
 659 710 l 1
 679 710 l 1
 679 691 l 1
 700 669 l 1
 700 649 l 1
 679 649 l 1
 679 584 l 1
 691 584 l 2
 705 584 718 580 718 564 c 1
860 121 m 1
 860 290 l 1
 840 290 l 1
 840 311 818 315 795 315 c 0
 783 315 770 313 760 313 c 0
 744 313 726 313 718 332 c 1
 709 319 674 269 659 269 c 1
 659 258 666 247 679 247 c 1
 679 100 l 1
 728 100 772 79 819 79 c 1
 819 75 819 59 825 57 c 1
 825 59 828 61 830 61 c 0
 834 61 837 59 840 59 c 1
 840 72 837 83 837 96 c 0
 837 111 844 121 860 121 c 1
259 964 m 1
 259 984 l 1
 265 984 272 984 278 981 c 1
 270 977 265 972 259 964 c 1
EndSplineSet
EndChar

StartChar: c
Encoding: 68 99 28
Width: 1132
VWidth: 2308
Flags: HW
LayerCount: 2
Fore
SplineSet
438 -83 m 1
 440 -51 l 1
 440 -33 416 -20 400 -20 c 0
 379 -20 359 -42 339 -42 c 0
 291 -42 287 83 259 84 c 1
 280 107 l 1
 206 107 201 265 199 317 c 1
 178 317 l 1
 178 397 138 468 138 547 c 1
 164 579 l 1
 159 590 l 1
 138 571 l 1
 138 590 l 1
 108 715 59 839 59 969 c 0
 59 1062 114 1176 178 1243 c 1
 219 1222 l 1
 219 1252 l 1
 275 1305 375 1368 458 1370 c 1
 458 1349 l 1
 477 1371 512 1389 540 1389 c 0
 699 1389 846 1384 960 1264 c 1
 940 1264 l 1
 940 1243 l 1
 960 1243 l 1
 982 1264 l 1
 1021 1222 l 1
 1021 1174 1070 1148 1100 1117 c 1
 1100 1086 1078 1056 1056 1038 c 1
 1067 1032 l 1
 1080 1020 1084 977 1084 939 c 0
 1084 876 1059 664 1041 527 c 1
 1010 543 977 547 942 547 c 0
 915 547 890 545 864 545 c 0
 822 545 780 561 739 570 c 1
 720 547 l 1
 700 570 l 1
 700 592 720 592 720 612 c 0
 720 629 699 686 680 695 c 1
 700 717 l 1
 685 715 l 1
 680 733 l 1
 660 717 l 1
 652 728 637 752 637 770 c 0
 637 774 637 776 639 780 c 1
 606 780 571 759 564 726 c 1
 560 739 l 1
 540 754 l 1
 540 739 l 1
 521 739 516 726 516 712 c 0
 516 705 518 696 519 691 c 1
 499 675 l 1
 497 666 l 1
 497 627 525 594 525 555 c 1
 519 550 495 496 495 492 c 0
 495 408 525 193 581 128 c 1
 608 128 609 168 639 168 c 1
 639 190 l 1
 697 253 646 295 732 362 c 1
 789 362 919 336 960 295 c 1
 960 297 l 1
 982 295 l 1
 964 271 945 242 940 212 c 1
 960 212 l 1
 940 190 l 1
 943 166 l 1
 943 77 870 44 861 3 c 1
 840 22 l 1
 803 -18 778 -64 739 -103 c 1
 739 -83 l 1
 700 -125 l 1
 689 -81 650 -20 599 -20 c 1
 621 -42 l 1
 621 -83 l 1
 591 -85 l 2
 565 -87 560 -62 560 -42 c 1
 519 -42 l 1
 510 -30 495 -15 481 -9 c 1
 490 -41 499 -48 499 -83 c 1
 458 -103 l 1
 438 -83 l 1
581 -25 m 1
 579 -35 571 -39 564 -42 c 1
 576 -42 581 -37 581 -25 c 1
346 -18 m 2
 346 -18 344 -16 342 -16 c 0
 340 -16 340 -18 340 -20 c 1
 340 -18 344 -18 346 -18 c 2
EndSplineSet
EndChar

StartChar: d
Encoding: 69 100 29
Width: 1249
VWidth: 2308
Flags: HW
LayerCount: 2
Fore
SplineSet
611 -55 m 0
 443 -55 500 -122 419 -227 c 1
 398 -204 l 1
 398 -160 401 -118 379 -78 c 1
 398 -78 l 1
 379 -57 l 1
 379 339 268 872 97 1227 c 1
 106 1224 l 1
 118 1270 l 1
 97 1290 l 1
 78 1272 l 1
 78 1289 65 1290 46 1290 c 0
 37 1290 28 1290 23 1290 c 1
 76 1296 122 1333 178 1333 c 0
 340 1333 496 1375 658 1375 c 0
 748 1375 830 1335 924 1335 c 0
 929 1335 935 1335 941 1335 c 1
 982 1310 l 1
 994 1310 1193 1122 1200 1101 c 1
 1180 1101 l 1
 1223 1058 1221 983 1221 927 c 0
 1221 643 1042 378 1040 111 c 1
 1020 111 l 1
 1020 19 982 -81 908 -138 c 1
 901 -122 l 1
 880 -141 l 1
 894 -141 l 1
 841 -162 l 1
 819 -141 l 1
 780 -183 l 1
 739 -141 l 1
 718 -166 l 1
 679 -162 l 1
 679 -109 679 -55 611 -55 c 0
739 153 m 1
 760 133 l 1
 780 133 l 1
 799 153 l 1
 819 153 823 168 823 188 c 0
 823 205 819 227 819 237 c 1
 830 251 850 323 859 323 c 1
 859 339 856 355 856 374 c 0
 856 390 859 406 880 406 c 1
 880 415 878 427 865 427 c 1
 874 429 880 439 880 448 c 2
 880 533 l 2
 880 555 876 579 859 596 c 1
 859 658 832 721 760 721 c 2
 699 721 l 1
 699 698 686 660 658 660 c 1
 658 680 l 1
 640 680 l 1
 640 671 648 660 658 660 c 1
 658 596 l 1
 640 575 l 1
 640 555 l 1
 658 555 l 1
 658 490 l 2
 658 474 658 468 640 468 c 1
 640 406 l 2
 640 389 640 385 658 385 c 1
 658 323 l 1
 640 323 l 1
 640 311 648 300 658 300 c 1
 640 281 l 1
 640 237 l 2
 640 218 646 210 658 195 c 1
 658 175 l 1
 677 155 681 142 681 128 c 0
 681 116 679 105 679 91 c 1
 699 91 l 1
 699 109 701 111 720 111 c 1
 720 153 l 1
 739 153 l 1
901 -141 m 1
 908 -138 l 1
 915 -141 l 1
 901 -141 l 1
EndSplineSet
EndChar

StartChar: e
Encoding: 70 101 30
Width: 1312
VWidth: 2308
Flags: HW
LayerCount: 2
Fore
SplineSet
311 508 m 1
 290 529 l 1
 191 1056 l 1
 211 1056 l 1
 211 1078 l 1
 191 1078 l 1
 149 1154 114 1229 29 1266 c 1
 51 1266 l 1
 170 1357 538 1368 692 1368 c 0
 880 1368 1069 1344 1253 1308 c 1
 1206 1261 1092 1082 1092 1023 c 0
 1092 997 1090 969 1072 951 c 1
 1074 921 l 1
 1074 842 1051 754 1032 677 c 1
 995 695 935 719 908 719 c 0
 880 719 851 721 833 739 c 1
 757 739 691 752 617 761 c 1
 631 754 635 712 635 669 c 0
 635 629 631 586 631 571 c 1
 932 571 l 1
 932 424 l 2
 932 400 914 282 891 276 c 1
 833 319 l 1
 652 319 l 1
 631 299 l 1
 631 149 l 1
 652 135 l 1
 670 149 l 1
 652 193 l 1
 757 190 860 172 972 172 c 1
 972 149 l 2
 972 128 952 94 952 66 c 1
 932 44 l 1
 952 24 l 1
 952 3 l 1
 932 3 l 1
 932 -16 l 1
 952 -39 l 1
 928 -66 932 -109 932 -144 c 1
 914 -122 l 1
 891 -122 l 1
 891 -60 l 1
 871 -39 l 1
 772 -39 l 1
 755 -57 731 -60 705 -60 c 0
 691 -60 676 -59 661 -59 c 1
 631 -81 l 1
 591 -39 l 1
 591 -16 l 1
 574 0 554 3 532 3 c 2
 492 3 l 1
 471 -16 l 1
 471 -39 l 1
 436 -39 446 -103 412 -103 c 1
 412 -122 l 1
 376 63 309 278 309 466 c 0
 309 481 309 494 311 508 c 1
EndSplineSet
EndChar

StartChar: f
Encoding: 71 102 31
Width: 1216
VWidth: 2308
Flags: HW
LayerCount: 2
Fore
SplineSet
592 288 m 1
 612 267 l 1
 612 168 l 2
 612 57 632 -48 632 -162 c 1
 612 -183 l 1
 612 -162 l 1
 592 -141 l 1
 600 -125 612 -109 612 -90 c 0
 612 -35 581 -27 533 -27 c 1
 496 -78 531 -144 493 -186 c 1
 493 -164 l 1
 472 -141 l 1
 472 -70 l 1
 454 -48 422 -6 391 -6 c 0
 347 -6 340 -64 312 -90 c 1
 312 -141 l 1
 291 -113 l 1
 291 162 l 1
 308 181 310 205 310 227 c 0
 310 239 310 253 310 264 c 0
 310 290 314 313 332 332 c 1
 312 352 l 1
 312 372 l 1
 291 392 l 1
 312 415 l 1
 291 437 l 1
 291 689 l 1
 262 721 284 795 251 795 c 1
 251 1047 l 2
 251 1088 212 1115 212 1152 c 1
 159 1215 94 1268 32 1320 c 1
 251 1362 l 1
 268 1344 287 1340 312 1340 c 1
 332 1362 l 1
 592 1362 l 1
 611 1344 630 1340 655 1340 c 0
 677 1340 693 1349 713 1362 c 1
 713 1320 l 1
 752 1362 l 1
 887 1342 1025 1344 1154 1299 c 1
 1021 1299 994 821 994 710 c 1
 1014 710 l 1
 1014 668 l 1
 936 684 876 730 793 730 c 1
 793 752 l 1
 773 752 l 1
 773 730 l 1
 673 730 l 1
 658 745 632 750 612 752 c 1
 627 733 634 698 634 671 c 0
 634 661 634 654 632 647 c 1
 612 625 l 1
 913 625 l 1
 927 603 l 1
 913 584 l 1
 913 457 l 1
 892 457 l 1
 909 434 913 400 913 372 c 0
 913 367 896 337 892 332 c 1
 874 367 817 376 769 376 c 0
 748 376 728 374 713 372 c 1
 713 392 l 1
 692 392 l 1
 692 372 l 1
 673 392 l 1
 673 372 l 1
 632 372 l 1
 632 392 l 1
 614 374 611 350 611 327 c 0
 611 313 612 299 612 288 c 1
 592 288 l 1
312 -113 m 2
 312 -99 319 -90 326 -83 c 1
 321 -94 314 -107 312 -122 c 1
 312 -113 l 2
328 -79 m 1
 332 -70 l 1
 332 -78 l 1
 330 -78 330 -78 328 -79 c 1
EndSplineSet
EndChar

StartChar: g
Encoding: 72 103 32
Width: 1183
VWidth: 2308
Flags: HW
LayerCount: 2
Fore
SplineSet
851 -103 m 1
 851 -83 l 1
 832 -74 l 1
 811 -103 l 1
 786 -114 l 1
 770 -103 l 1
 752 -125 l 1
 732 -125 l 1
 732 -103 l 1
 710 -125 l 1
 732 -125 l 1
 732 -146 l 1
 710 -160 l 1
 710 -125 l 1
 691 -146 l 1
 651 -103 l 1
 610 -103 l 1
 610 -83 l 1
 592 -83 l 1
 592 -103 l 1
 572 -125 570 -138 570 -168 c 1
 538 -166 531 -127 531 -103 c 1
 511 -83 l 1
 491 -83 l 1
 489 -116 464 -146 429 -146 c 1
 410 -125 l 1
 429 -125 l 1
 429 -103 l 1
 391 -103 l 1
 371 -83 l 1
 343 -83 334 -42 330 -20 c 1
 315 -32 l 1
 273 -32 258 118 230 149 c 1
 230 300 190 434 130 570 c 1
 149 570 l 1
 122 597 68 953 68 1012 c 0
 68 1041 68 1074 91 1097 c 1
 91 1180 l 1
 170 1243 l 1
 209 1243 l 1
 209 1312 310 1353 378 1353 c 0
 389 1353 401 1351 410 1349 c 1
 428 1368 455 1370 482 1370 c 2
 491 1370 l 1
 491 1349 l 1
 511 1349 l 1
 511 1364 515 1371 529 1371 c 2
 552 1370 l 1
 511 1307 l 1
 552 1349 l 1
 592 1329 l 1
 570 1349 l 1
 570 1370 l 1
 610 1349 l 1
 626 1353 642 1359 656 1359 c 0
 933 1359 1152 1194 1152 907 c 0
 1152 844 1085 668 1085 568 c 0
 1085 540 1090 518 1103 507 c 1
 974 507 854 547 732 547 c 1
 719 561 710 571 710 590 c 2
 710 612 l 1
 732 612 l 1
 691 652 l 1
 710 675 l 1
 691 675 l 1
 671 696 l 1
 671 728 l 1
 651 717 l 1
 638 745 624 758 592 758 c 1
 570 780 l 1
 552 758 l 1
 511 758 l 1
 511 719 l 2
 511 698 505 669 491 652 c 1
 491 570 l 1
 471 570 l 1
 471 547 l 1
 491 527 l 1
 491 501 l 2
 491 492 474 452 471 443 c 1
 491 422 l 1
 511 422 l 1
 509 383 l 2
 509 369 520 348 531 337 c 1
 531 300 l 2
 531 276 535 251 552 232 c 1
 531 232 l 1
 531 212 l 1
 552 223 l 1
 570 190 l 1
 552 170 l 1
 570 170 l 1
 610 128 l 1
 610 107 l 1
 631 128 l 1
 651 128 l 1
 671 107 l 1
 671 128 l 1
 708 128 745 142 770 170 c 1
 782 170 l 1
 770 255 l 1
 752 255 l 2
 716 255 686 221 651 212 c 1
 651 304 631 395 631 487 c 1
 635 485 1071 400 1094 400 c 1
 1025 273 1103 -83 972 -83 c 1
 941 -107 907 -131 872 -146 c 1
 872 -134 l 2
 872 -122 869 -103 851 -103 c 1
EndSplineSet
EndChar

StartChar: h
Encoding: 73 104 33
Width: 1518
VWidth: 2308
Flags: HW
LayerCount: 2
Fore
SplineSet
1092 -62 m 1
 1094 -62 l 1
 1094 -105 1050 -125 1013 -125 c 1
 1043 -62 l 1
 1034 -41 l 1
 1034 -42 l 1
 1030 -41 l 1
 981 -64 l 1
 972 -62 l 1
 934 -25 l 1
 937 -50 l 1
 937 -78 925 -103 893 -103 c 1
 886 -96 865 -85 865 -74 c 0
 865 -70 867 -66 872 -62 c 1
 833 -42 l 1
 812 -69 l 1
 814 -32 833 5 833 42 c 1
 791 22 l 1
 772 63 l 1
 807 63 814 147 814 216 c 0
 814 253 812 286 812 297 c 0
 812 330 835 358 835 390 c 0
 835 399 827 402 821 402 c 0
 818 402 814 400 812 400 c 1
 791 422 l 1
 737 422 687 400 631 400 c 1
 631 380 l 1
 604 352 l 1
 620 360 l 1
 624 330 635 291 635 262 c 2
 631 22 l 1
 552 -20 l 1
 554 -6 l 1
 547 -2 l 1
 471 -2 l 1
 431 -20 l 1
 429 -48 374 -59 351 -62 c 1
 307 -25 l 1
 307 -22 311 -20 316 -20 c 0
 329 -20 348 -25 351 -27 c 1
 348 116 311 256 311 400 c 0
 311 645 191 883 191 1117 c 0
 191 1226 100 1301 -4 1307 c 1
 80 1307 376 1317 431 1370 c 1
 436 1347 l 1
 438 1345 440 1345 440 1345 c 1
 447 1345 453 1355 453 1364 c 0
 453 1366 451 1368 451 1370 c 1
 539 1370 624 1389 712 1389 c 1
 674 1347 645 1292 613 1243 c 1
 631 1222 l 1
 631 1025 613 828 613 633 c 1
 648 633 677 652 712 652 c 1
 712 633 l 1
 761 633 805 652 853 652 c 1
 853 642 l 1
 873 666 879 733 879 807 c 0
 879 898 872 995 872 1032 c 0
 872 1056 902 1159 932 1159 c 1
 932 1198 872 1187 872 1285 c 0
 872 1322 853 1353 853 1389 c 1
 906 1389 962 1386 1013 1370 c 1
 1037 1389 l 1
 1070 1389 1099 1370 1133 1370 c 1
 1133 1389 l 1
 1157 1364 l 1
 1294 1370 l 1
 1324 1331 1394 1366 1433 1327 c 1
 1489 1327 l 1
 1419 1317 1341 1130 1317 1067 c 1
 1297 1021 1273 964 1271 927 c 2
 1269 885 l 1
 1255 885 l 1
 1273 865 l 1
 1249 791 1227 717 1192 649 c 1
 1214 612 l 1
 1177 612 1169 573 1169 534 c 0
 1169 507 1173 480 1173 464 c 0
 1173 415 1153 367 1153 317 c 1
 1115 288 l 1
 1133 295 l 1
 1133 175 1092 61 1092 -62 c 1
EndSplineSet
EndChar

StartChar: i
Encoding: 74 105 34
Width: 882
VWidth: 2308
Flags: HW
LayerCount: 2
Fore
SplineSet
491 -7 m 1
 493 -7 l 1
 493 19 478 35 453 35 c 0
 417 35 395 -6 373 -27 c 1
 312 -25 325 297 312 352 c 0
 277 505 240 652 240 811 c 0
 240 883 252 953 252 1025 c 1
 272 1025 l 1
 211 1150 l 2
 189 1196 89 1218 91 1289 c 0
 91 1290 91 1292 91 1296 c 1
 50 1320 l 1
 62 1340 l 1
 32 1320 l 1
 13 1340 l 1
 141 1340 264 1382 391 1382 c 1
 412 1361 l 1
 465 1361 516 1382 572 1382 c 1
 620 1340 766 1357 834 1340 c 1
 808 1317 753 1273 753 1235 c 1
 773 1235 l 1
 734 1194 711 1141 692 1088 c 1
 713 1067 l 1
 672 929 633 767 633 623 c 0
 633 580 653 540 653 498 c 1
 641 483 635 459 633 439 c 1
 613 457 l 1
 613 426 633 400 633 371 c 1
 592 352 l 1
 611 352 615 332 615 317 c 0
 615 201 592 86 592 -27 c 1
 609 -27 613 -46 613 -60 c 0
 613 -64 613 -69 613 -70 c 1
 595 -66 578 -55 572 -37 c 1
 572 -50 l 1
 544 -51 l 1
 521 -53 488 -44 488 -20 c 0
 488 -16 489 -13 491 -7 c 1
EndSplineSet
EndChar

StartChar: j
Encoding: 75 106 35
Width: 967
VWidth: 2308
Flags: HW
LayerCount: 2
Fore
SplineSet
275 -16 m 1
 255 5 l 1
 73 5 76 57 -5 195 c 1
 14 216 l 1
 14 267 -45 299 -45 385 c 1
 -66 385 l 1
 -5 427 l 1
 30 427 134 441 171 453 c 1
 136 427 l 1
 155 427 l 2
 183 427 187 468 215 468 c 1
 235 490 l 1
 255 490 l 1
 255 468 l 1
 235 448 l 1
 255 448 l 1
 255 363 l 1
 299 317 277 205 356 195 c 1
 415 236 l 1
 415 300 l 1
 436 323 l 1
 415 343 l 1
 415 553 l 1
 436 575 l 1
 395 615 l 1
 395 1038 l 1
 375 1038 l 1
 375 1097 334 1146 334 1206 c 1
 296 1270 l 1
 296 1292 273 1312 255 1324 c 1
 255 1353 l 1
 235 1353 l 1
 244 1359 270 1375 279 1375 c 0
 292 1375 314 1371 314 1353 c 1
 334 1353 l 1
 356 1375 l 1
 496 1375 l 2
 539 1375 860 1310 917 1290 c 1
 902 1283 845 1250 836 1248 c 1
 821 1248 l 1
 821 1227 839 1209 839 1189 c 1
 836 1143 l 1
 811 1141 806 995 757 995 c 1
 775 977 778 937 778 896 c 0
 778 784 757 691 757 575 c 1
 738 555 736 527 736 501 c 0
 736 490 736 480 736 468 c 1
 716 468 l 1
 736 448 l 1
 736 371 727 265 695 195 c 1
 716 175 l 1
 695 175 l 1
 695 137 672 129 658 100 c 1
 646 72 662 15 637 -35 c 1
 657 -57 l 1
 637 -79 l 1
 616 -79 614 -50 614 -35 c 1
 596 -35 l 1
 583 -22 568 -15 550 -15 c 2
 515 -16 l 1
 515 -57 l 1
 456 -57 l 1
 436 -35 l 1
 415 -35 l 1
 415 -16 l 1
 314 -16 l 1
 314 -35 l 1
 275 5 l 1
 275 -16 l 1
EndSplineSet
EndChar

StartChar: k
Encoding: 76 107 36
Width: 1354
VWidth: 2308
Flags: HW
LayerCount: 2
Fore
SplineSet
856 -37 m 1
 838 -37 l 1
 838 -59 l 1
 816 -37 l 1
 816 -16 l 1
 798 3 l 1
 798 26 803 50 816 68 c 1
 814 123 742 160 740 216 c 1
 720 216 l 1
 720 236 l 1
 701 253 698 271 698 291 c 0
 698 300 700 311 700 321 c 1
 680 327 l 1
 667 288 641 251 619 218 c 1
 619 190 l 2
 619 109 620 24 650 -53 c 1
 639 -37 l 1
 619 -59 l 1
 580 -16 l 1
 560 -16 l 1
 539 0 l 1
 520 -16 l 1
 499 -16 l 1
 499 -37 l 1
 479 -59 l 1
 469 -37 439 -22 418 -16 c 1
 418 91 l 1
 400 91 l 1
 403 192 l 2
 405 227 403 273 379 300 c 1
 379 426 l 1
 361 427 357 448 357 466 c 0
 357 476 359 483 359 489 c 1
 344 489 l 1
 359 511 l 1
 339 511 l 1
 339 596 318 678 318 763 c 1
 304 784 l 1
 318 784 l 1
 318 846 l 2
 318 912 177 1115 177 1174 c 0
 177 1178 177 1182 178 1183 c 2
 198 1204 l 1
 160 1204 l 1
 115 1241 68 1263 18 1290 c 1
 149 1320 284 1355 416 1355 c 1
 460 1353 l 1
 479 1331 l 1
 479 1373 l 1
 499 1373 l 1
 499 1331 l 1
 539 1331 l 1
 539 1353 l 1
 560 1331 l 1
 580 1331 l 1
 580 1373 l 1
 661 1373 l 1
 636 1322 619 1263 619 1204 c 0
 619 1021 661 844 661 658 c 1
 694 768 706 957 720 1078 c 1
 726 1148 783 1224 783 1290 c 2
 783 1331 l 1
 803 1310 l 1
 803 1331 l 1
 783 1331 l 1
 803 1373 l 1
 824 1373 l 1
 824 1353 l 1
 880 1353 l 1
 880 1373 l 1
 901 1359 l 1
 919 1373 l 1
 1061 1373 l 2
 1141 1373 1271 1336 1341 1310 c 1
 1195 1310 1109 1152 1000 1078 c 1
 980 1078 l 1
 980 995 975 903 942 826 c 1
 919 826 l 1
 827 596 l 1
 849 596 l 1
 849 553 l 1
 827 553 l 1
 928 427 938 256 1037 131 c 1
 1017 111 l 1
 1017 91 l 1
 1037 91 l 1
 1111 -37 l 1
 1091 -37 l 1
 1091 -16 l 1
 1072 3 l 1
 1072 -37 l 1
 979 -37 l 1
 979 -16 l 1
 938 -16 l 1
 930 -39 917 -66 898 -79 c 1
 877 -79 l 1
 877 -37 l 1
 856 -16 l 1
 856 -37 l 1
EndSplineSet
EndChar

StartChar: l
Encoding: 77 108 37
Width: 943
VWidth: 2308
Flags: HW
LayerCount: 2
Fore
SplineSet
1020 253 m 1
 998 209 l 1
 975 209 l 1
 996 188 l 1
 975 188 l 1
 968 94 924 9 917 -85 c 1
 876 -85 l 1
 854 -107 l 1
 873 -127 l 1
 832 -127 l 1
 815 -85 l 1
 795 -85 l 1
 797 -64 l 1
 776 -64 l 1
 778 -44 l 1
 760 -22 l 1
 739 -22 l 1
 738 -44 l 1
 718 -44 l 2
 703 -44 699 -27 699 -11 c 0
 699 0 701 13 703 21 c 1
 685 42 l 1
 644 42 l 1
 622 21 l 1
 622 -22 l 1
 559 -22 l 1
 561 -2 l 1
 500 -2 l 1
 498 -18 472 -24 452 -24 c 0
 447 -24 442 -22 437 -22 c 1
 433 -85 l 1
 449 -107 l 1
 432 -107 l 1
 432 -122 419 -129 406 -129 c 1
 391 -127 l 1
 373 -107 l 1
 307 358 l 1
 327 378 l 1
 308 378 l 1
 290 400 l 1
 312 441 l 1
 292 441 l 1
 294 466 l 1
 294 524 287 579 287 636 c 0
 287 654 289 675 290 693 c 1
 270 693 l 1
 270 712 248 715 231 715 c 1
 240 728 255 752 255 772 c 0
 255 774 255 776 255 777 c 1
 236 777 l 1
 217 798 l 1
 224 903 l 1
 211 920 205 942 205 964 c 0
 205 986 211 1011 213 1030 c 1
 194 1051 l 1
 196 1073 l 1
 178 1095 l 1
 180 1122 183 1157 203 1178 c 1
 183 1178 l 1
 164 1200 l 1
 145 1200 l 1
 146 1220 l 1
 166 1220 l 1
 168 1243 l 1
 127 1243 l 1
 127 1261 l 1
 111 1283 l 1
 60 1283 62 1289 18 1305 c 1
 120 1305 215 1368 317 1368 c 2
 537 1368 l 1
 558 1351 l 1
 558 1368 l 1
 579 1377 l 1
 577 1368 l 1
 598 1368 l 1
 600 1388 l 1
 620 1388 l 1
 637 1368 l 1
 697 1368 l 1
 681 1388 l 1
 901 1388 l 1
 894 1366 l 1
 836 1326 l 1
 795 1326 773 1283 732 1283 c 1
 741 1268 l 1
 738 1235 690 1213 685 1178 c 1
 664 1155 l 1
 662 1136 l 1
 642 1136 l 1
 640 1115 l 1
 660 1115 l 1
 674 1101 677 1082 677 1064 c 0
 677 1004 646 940 646 900 c 0
 646 853 655 809 655 770 c 0
 655 765 655 761 655 758 c 2
 631 420 l 1
 651 400 l 1
 629 400 l 1
 618 392 l 1
 648 358 l 1
 637 358 l 1
 644 336 l 1
 629 313 l 1
 642 281 l 1
 660 293 l 1
 658 255 862 249 874 242 c 1
 880 253 l 1
 1020 253 l 1
EndSplineSet
EndChar

StartChar: m
Encoding: 78 109 38
Width: 1661
VWidth: 2308
Flags: HW
LayerCount: 2
Fore
SplineSet
860 1136 m 1
 840 1136 l 1
 840 1157 l 1
 860 1141 l 1
 873 1155 880 1182 880 1204 c 0
 880 1209 880 1215 878 1220 c 1
 919 1283 l 1
 921 1289 921 1294 921 1299 c 0
 921 1331 896 1359 896 1380 c 0
 896 1382 898 1386 898 1388 c 1
 919 1410 l 1
 939 1388 l 1
 939 1410 l 1
 979 1410 l 1
 1000 1368 l 1
 1079 1368 l 1
 1090 1388 1121 1389 1142 1389 c 0
 1282 1389 1479 1331 1621 1305 c 1
 1601 1283 l 1
 1562 1283 l 1
 1501 1243 l 1
 1501 1220 l 1
 1475 1220 l 1
 1420 1157 l 1
 1420 1095 l 1
 1429 1095 l 1
 1400 1053 l 1
 1400 1039 1398 1029 1394 1016 c 1
 1385 1002 l 1
 1380 1001 l 1
 1378 1006 1376 1012 1371 1012 c 0
 1367 1012 1365 1012 1361 1011 c 1
 1380 967 l 1
 1324 789 1283 299 1179 188 c 1
 1190 168 l 1
 1160 147 l 1
 1179 125 l 1
 1160 125 l 1
 1160 42 l 1
 1132 9 1129 -39 1120 -79 c 1
 1100 -64 l 1
 1100 0 l 1
 1079 21 l 1
 1079 -22 l 1
 1061 -44 l 1
 1030 13 1040 42 959 42 c 1
 941 21 939 5 939 -22 c 1
 898 -22 l 1
 898 21 l 1
 878 21 l 1
 878 40 959 545 959 545 c 1
 939 545 l 1
 921 525 919 489 919 462 c 1
 878 400 l 1
 878 389 l 2
 878 363 878 336 860 315 c 1
 860 293 854 269 840 253 c 1
 840 210 l 1
 817 188 l 1
 817 133 777 81 777 33 c 0
 777 26 779 19 780 13 c 1
 753 9 720 -2 699 -22 c 1
 685 -22 l 1
 699 0 l 1
 668 75 692 192 639 253 c 1
 639 256 637 258 637 262 c 0
 637 282 646 304 653 321 c 1
 639 341 599 522 578 573 c 1
 578 253 l 1
 599 253 l 1
 599 210 l 1
 578 210 l 1
 599 188 l 1
 578 168 574 125 574 84 c 0
 574 52 576 21 578 0 c 1
 537 0 l 1
 499 21 l 1
 499 61 l 1
 478 42 l 1
 458 61 l 1
 458 59 458 59 458 57 c 0
 458 50 451 40 446 40 c 0
 444 40 444 42 441 44 c 1
 397 21 l 1
 397 -105 l 1
 377 -127 l 1
 338 -127 l 1
 338 -85 l 1
 337 -85 337 -85 335 -85 c 0
 329 -85 327 -81 327 -76 c 0
 327 -70 329 -64 335 -64 c 0
 337 -64 337 -64 338 -64 c 1
 338 21 l 1
 316 42 l 1
 316 105 l 1
 298 125 l 1
 300 214 l 2
 302 325 256 434 257 545 c 1
 237 545 l 1
 257 568 l 1
 257 571 257 573 257 577 c 0
 257 606 248 610 217 610 c 1
 224 633 237 660 257 673 c 1
 217 673 l 1
 215 675 213 677 213 680 c 0
 213 687 222 696 230 696 c 0
 231 696 235 695 237 693 c 1
 237 758 217 821 217 885 c 1
 176 885 l 1
 176 903 l 2
 176 935 200 967 200 1011 c 0
 200 1018 200 1023 198 1030 c 1
 176 1030 l 1
 198 1053 l 1
 198 1073 l 2
 198 1164 38 1220 36 1263 c 1
 58 1243 l 1
 194 1301 699 1375 718 1388 c 1
 718 1368 l 1
 759 1388 l 1
 718 1347 l 1
 718 1283 l 2
 718 1248 740 1218 740 1178 c 0
 740 1171 740 1165 738 1157 c 1
 792 1092 759 988 799 948 c 1
 860 1136 l 1
EndSplineSet
EndChar

StartChar: n
Encoding: 79 110 39
Width: 1455
VWidth: 2308
Flags: HW
LayerCount: 2
Fore
SplineSet
456 -72 m 1
 456 -94 l 1
 437 -114 l 1
 418 -114 l 1
 418 -72 l 1
 403 -87 379 -94 357 -94 c 1
 337 -114 l 1
 317 -94 l 1
 256 390 l 1
 276 411 l 1
 204 444 175 995 175 1088 c 1
 157 1099 l 1
 175 1119 l 1
 154 1152 83 1292 57 1310 c 1
 57 1331 l 1
 16 1353 l 1
 191 1353 377 1380 558 1380 c 1
 572 1364 597 1359 617 1359 c 1
 617 1380 l 1
 676 1380 l 1
 676 1275 l 1
 718 1233 l 1
 698 1213 l 1
 698 1185 718 1167 737 1148 c 1
 735 1146 734 1143 734 1141 c 0
 734 1134 743 1125 750 1125 c 0
 752 1125 755 1127 757 1128 c 1
 757 1090 827 848 859 848 c 1
 859 849 l 2
 859 962 897 1058 897 1171 c 1
 884 1187 838 1379 838 1380 c 1
 859 1380 l 1
 882 1357 1017 1351 1151 1351 c 0
 1288 1351 1427 1357 1457 1359 c 1
 1420 1353 1353 1222 1323 1191 c 1
 1323 1169 l 1
 1228.4 1060 1213.73333333 621 1158 455 c 1
 1138 455 l 1
 1158 434 l 1
 1158 411 l 1
 1140 392 1134 367 1134 341 c 0
 1134 323 1136 302 1138 286 c 1
 1105 286 l 1
 1119 265 l 1
 1103 249 1095 212 1095 183 c 0
 1095 174 1095 166 1097 158 c 1
 1075 133 1084 75 1038 75 c 1
 1038 30 l 2
 1038 2 1037 -30 1018 -51 c 1
 1016 -74 1007 -159 979 -159 c 1
 957 -157 l 1
 957 -134 l 2
 957 -123 981 -101 981 -69 c 0
 981 -62 981 -57 979 -51 c 1
 957 -30 l 1
 937 -51 l 1
 937 -134 l 1
 898 -199 l 1
 898 -114 l 1
 818 -94 l 1
 797 -157 l 1
 778 -134 l 1
 778 -94 l 1
 757 -94 l 1
 757 -134 l 1
 734 -109 720 31 720 74 c 0
 720 111 702 133 676 158 c 1
 698 181 l 1
 672 216 658 264 658 306 c 1
 634 332 617 352 617 390 c 1
 637 411 l 1
 617 411 l 1
 617 446 590 459 576 489 c 1
 576 328 l 1
 562 311 556 291 556 271 c 0
 556 239 567 207 576 181 c 1
 558 158 l 1
 558 -114 l 1
 537 -94 536 -79 536 -51 c 1
 497 -51 l 2
 491 -51 462 -69 456 -72 c 1
EndSplineSet
EndChar

StartChar: o
Encoding: 80 111 40
Width: 1138
VWidth: 2308
Flags: HW
LayerCount: 2
Fore
SplineSet
219 155 m 1
 221 155 l 1
 221 201 191 276 178 323 c 0
 122 522 108 750 73 955 c 1
 66 951 l 1
 59 953 l 1
 79 975 l 1
 59 975 l 1
 59 997 l 1
 62 997 l 1
 59 1018 l 1
 68 1016 l 1
 75 1030 81 1049 81 1065 c 0
 81 1071 79 1076 79 1080 c 1
 60 1080 l 1
 103 1092 173 1375 560 1375 c 1
 560 1355 l 1
 581 1375 l 1
 621 1375 660 1355 700 1355 c 1
 700 1375 l 1
 785 1375 896 1301 960 1250 c 1
 980 1270 l 1
 982 1254 l 1
 964 1250 l 1
 1001 1227 l 1
 982 1208 l 1
 989 1194 1024 1165 1043 1165 c 0
 1045 1165 1045 1165 1047 1165 c 1
 1100 1102 l 1
 1086 1102 l 1
 1080 1078 1080 1053 1080 1027 c 0
 1080 1001 1080 975 1082 953 c 1
 1100 933 l 1
 1100 876 1082 822 1082 765 c 1
 1100 765 l 1
 1077 594 1043 464 982 302 c 0
 966 260 940 219 940 175 c 1
 960 155 l 1
 927 155 906 96 901 70 c 1
 846 13 840 -25 840 -83 c 0
 840 -101 840 -120 840 -141 c 1
 820 -141 l 2
 799 -141 796 -131 796 -116 c 0
 796 -99 801 -79 801 -69 c 0
 801 -48 778 -37 761 -35 c 1
 761 -55 l 1
 748 -53 l 1
 720 -78 l 1
 700 -60 l 1
 700 -99 l 1
 672 -122 l 1
 574 -105 654 5 560 5 c 0
 534 5 519 -20 507 -20 c 0
 505 -20 501 -18 499 -15 c 1
 455 -66 l 1
 435 -35 396 39 356 39 c 0
 346 39 291 19 280 15 c 1
 275 75 219 84 219 155 c 1
680 365 m 1
 660 385 l 1
 660 408 l 2
 660 427 667 435 680 448 c 1
 680 513 l 2
 680 534 676 559 660 575 c 1
 660 621 l 2
 660 669 648 787 579 787 c 2
 540 787 l 1
 540 765 l 1
 519 765 l 1
 483 724 458 675 458 617 c 2
 458 448 l 2
 458 441 465 431 470 427 c 1
 458 427 l 1
 458 365 l 2
 458 348 468 334 481 323 c 1
 481 281 510 207 540 175 c 1
 560 175 l 2
 623 175 641 239 641 293 c 0
 641 304 641 313 639 323 c 1
 660 323 l 1
 660 365 l 1
 680 365 l 1
79 912 m 1
 59 912 l 1
 59 933 l 1
 79 912 l 1
79 892 m 1
 59 892 l 1
 62 902 l 1
 79 892 l 1
EndSplineSet
EndChar

StartChar: p
Encoding: 81 112 41
Width: 1207
VWidth: 2308
Flags: HW
LayerCount: 2
Fore
SplineSet
395 -83 m 1
 395 -85 l 1
 339 -85 336 66 336 147 c 0
 336 166 336 179 336 188 c 1
 316 210 l 1
 325 223 337 247 337 265 c 0
 337 269 313 293 313 348 c 0
 313 365 316 380 316 387 c 0
 316 395 299 431 295 441 c 1
 295 420 l 1
 286 601 236 768 236 953 c 0
 236 1011 236 1136 195 1180 c 0
 161 1217 56 1272 56 1327 c 1
 209 1347 362 1368 516 1368 c 0
 540 1368 553 1347 577 1347 c 1
 575 1355 l 1
 675 1368 l 1
 696 1347 l 1
 735 1368 l 1
 750 1344 l 1
 758 1347 791 1368 796 1368 c 0
 1018 1368 1160 1259 1160 1036 c 0
 1160 1021 1157 990 1137 990 c 1
 1137 861 1043 274 877 274 c 0
 837 274 796 293 756 293 c 1
 756 276 l 1
 752 293 732 297 714 297 c 0
 708 297 701 297 696 297 c 1
 696 297 696 297 696 299 c 0
 696 304 691 319 689 319 c 0
 673 319 673 291 662 291 c 0
 660 291 658 291 656 293 c 1
 656 315 l 1
 636 315 l 1
 636 293 l 1
 615 293 l 1
 636 255 636 210 636 168 c 1
 615 162 l 1
 615 147 l 2
 615 111 636 79 636 42 c 1
 615 22 l 1
 636 22 l 1
 615 -16 l 1
 636 0 l 1
 638 -39 l 2
 638 -44 619 -74 615 -81 c 1
 615 -64 l 1
 579 -60 l 1
 557 -74 l 1
 557 -57 l 1
 534 -83 l 1
 516 -64 l 1
 518 -42 l 1
 496 -42 l 1
 485 -64 418 -60 395 -83 c 1
703 800 m 2
 636 800 l 1
 636 777 l 2
 636 759 638 758 656 758 c 1
 656 715 l 1
 647 708 634 695 631 684 c 1
 615 695 l 1
 615 673 l 1
 636 673 l 1
 615 652 l 1
 636 652 l 1
 636 525 l 1
 615 505 l 1
 656 505 l 1
 656 485 l 1
 696 485 l 1
 710 498 715 505 735 505 c 2
 796 505 l 1
 796 494 805 485 817 485 c 1
 817 503 815 522 815 538 c 0
 815 564 819 590 837 610 c 1
 837 673 l 2
 837 712 824 750 796 777 c 1
 796 800 l 1
 778 777 l 1
 735 777 l 1
 735 798 719 800 703 800 c 2
682 293 m 1
 696 297 l 1
 696 293 l 1
 682 293 l 1
636 293 m 1
 638 291 638 290 638 288 c 2
 638 288 638 286 636 284 c 1
 636 293 l 1
634 278 m 2
 636 284 l 1
 636 274 l 1
 634 274 634 276 634 278 c 2
EndSplineSet
EndChar

StartChar: q
Encoding: 82 113 42
Width: 1117
VWidth: 2308
Flags: HW
LayerCount: 2
Fore
SplineSet
936 1263 m 1
 952 1243 l 1
 1043 1159 1056 1083 1056 972 c 0
 1056 921 1072 872 1076 822 c 1
 1056 822 l 1
 1056 741 1047 392 1017 339 c 1
 1035 339 l 1
 1010 284 999 216 956 170 c 1
 973 151 l 1
 967 151 954 142 954 138 c 0
 954 131 960 128 966 128 c 0
 969 128 971 128 975 129 c 1
 975 107 l 1
 1047 42 l 1
 1063 42 1087 48 1096 65 c 1
 1096 -44 1039 -13 1033 -62 c 1
 980 -62 931 -219 915 -264 c 1
 915 -231 l 1
 895 -231 l 1
 895 -164 868 -109 796 -103 c 1
 796 -101 796 -99 796 -96 c 0
 796 -79 781 -51 774 -41 c 1
 716 -57 661 -62 602 -62 c 0
 542 -62 486 -35 436 2 c 1
 454 2 l 1
 410 48 357 81 315 129 c 1
 315 107 l 1
 313 144 257 186 234 212 c 1
 254 212 l 1
 219 246 204 300 173 339 c 1
 173 341 171 343 171 345 c 0
 171 354 178 367 184 374 c 1
 136 422 l 1
 147 446 157 478 157 507 c 0
 157 515 155 520 155 527 c 1
 125 557 53 833 53 885 c 0
 53 916 73 942 73 972 c 1
 44 990 l 1
 86 1032 l 1
 73 1032 l 1
 103 1064 132 1115 132 1159 c 1
 130 1157 129 1157 125 1157 c 0
 118 1157 106 1165 106 1174 c 0
 106 1222 486 1380 556 1380 c 0
 635 1380 803 1375 855 1307 c 1
 859 1277 910 1264 940 1250 c 1
 936 1254 936 1257 936 1263 c 1
554 360 m 1
 593 317 598 212 656 212 c 1
 656 219 674 274 695 274 c 1
 695 362 l 1
 698 360 702 358 706 358 c 2
 715 360 l 1
 715 387 735 369 735 422 c 1
 715 422 l 1
 737 429 737 505 737 525 c 0
 737 588 730 652 707 712 c 1
 715 696 l 1
 715 712 l 2
 715 763 702 844 634 844 c 0
 544 844 534 675 534 612 c 0
 534 561 516 515 516 464 c 1
 538 462 554 378 554 360 c 1
875 1329 m 1
 875 1326 875 1305 869 1305 c 1
 868 1307 864 1308 860 1308 c 0
 859 1308 857 1308 855 1307 c 1
 855 1318 862 1329 875 1329 c 1
695 739 m 0
 695 741 695 743 697 743 c 0
 700 743 707 715 707 712 c 1
 702 721 695 726 695 739 c 0
1035 -83 m 1
 1033 -76 1033 -70 1033 -62 c 2
 1035 -83 l 1
693 371 m 0
 693 372 693 376 695 380 c 1
 695 362 l 1
 693 365 693 367 693 371 c 0
EndSplineSet
EndChar

StartChar: r
Encoding: 83 114 43
Width: 1286
VWidth: 2308
Flags: HW
LayerCount: 2
Fore
SplineSet
647 175 m 1
 649 175 l 1
 649 91 628 5 628 -79 c 1
 609 -57 l 1
 609 -35 l 1
 574 -35 l 2
 545 -35 510 -39 508 -76 c 1
 480 -72 454 -57 427 -57 c 1
 408 -94 l 1
 408 -79 l 1
 388 -122 l 1
 351 -122 345 -22 345 52 c 0
 345 89 347 120 347 131 c 0
 347 160 347 193 327 216 c 1
 334 216 l 1
 345 230 347 249 347 267 c 0
 347 297 343 309 327 343 c 1
 347 406 l 1
 327 429 318 461 306 490 c 1
 327 511 l 1
 327 533 l 1
 286 553 l 1
 286 612 308 579 308 617 c 0
 308 677 268 853 268 995 c 0
 268 1113 89 1213 47 1310 c 1
 135 1310 246 1312 327 1353 c 1
 367 1333 l 1
 401 1366 482 1375 528 1375 c 1
 528 1353 l 1
 533 1357 565 1375 568 1375 c 0
 657 1375 744 1353 828 1353 c 1
 837 1368 l 1
 886 1336 1250 1292 1250 1122 c 0
 1250 905 1149 715 1149 511 c 1
 1132 492 1083 429 1083 392 c 0
 1083 387 1085 380 1088 376 c 1
 1069 385 l 1
 1050 363 l 1
 1006 363 988 343 988 300 c 1
 1007 300 1011 239 1011 183 c 0
 1011 144 1009 107 1009 96 c 0
 1009 31 1009 -37 1029 -99 c 1
 1009 -162 l 1
 909 -99 l 1
 881 -99 900 -79 869 -79 c 0
 825 -79 834 -94 808 -122 c 1
 808 -107 816 -88 830 -83 c 1
 830 -78 800 -59 795 -55 c 1
 788 -57 l 1
 788 -88 l 1
 784 -57 749 -62 749 26 c 1
 751 26 753 28 753 31 c 0
 753 33 751 39 751 42 c 0
 751 44 751 46 753 48 c 1
 769 48 l 1
 769 70 l 1
 749 70 l 1
 769 91 l 1
 749 96 745 138 745 179 c 0
 745 212 747 246 749 258 c 1
 727 281 l 1
 727 315 l 1
 723 300 701 297 677 297 c 0
 657 297 637 299 628 300 c 1
 647 236 l 1
 628 216 l 1
 624 192 l 1
 647 175 l 1
793 553 m 0
 828 553 849 638 849 666 c 0
 849 682 858 689 869 700 c 1
 826 782 799 807 709 807 c 0
 686 807 688 780 679 780 c 0
 677 780 670 786 668 786 c 2
 631 786 l 1
 640 784 647 772 647 763 c 2
 647 680 l 1
 628 658 l 1
 647 658 l 1
 647 642 644 627 644 610 c 0
 644 557 714 553 763 553 c 0
 775 553 786 553 793 553 c 0
408 -122 m 1
 406 -116 406 -111 406 -105 c 0
 406 -101 406 -97 408 -94 c 1
 408 -122 l 1
508 -76 m 1
 522 -79 l 1
 508 -79 l 1
 508 -76 l 1
EndSplineSet
EndChar

StartChar: s
Encoding: 84 115 44
Width: 1034
VWidth: 2308
Flags: HW
LayerCount: 2
Fore
SplineSet
548 765 m 1
 565 765 l 1
 543 786 l 1
 543 765 l 1
 504 786 l 1
 464 743 l 1
 464 700 l 2
 464 652 493 627 522 596 c 1
 522 580 l 1
 543 596 l 1
 784 596 883 434 883 216 c 1
 865 216 l 1
 865 140 841 131 804 70 c 1
 804 31 744 2 744 -78 c 1
 723 -66 l 1
 723 -78 l 1
 718 -74 688 -57 682 -57 c 0
 655 -57 631 -78 603 -78 c 1
 603 -57 l 1
 543 -57 l 1
 543 -78 l 1
 522 -78 l 1
 504 -57 l 1
 504 -78 l 1
 422 -78 l 1
 422 -101 399 -103 380 -103 c 1
 322 -99 l 1
 242 -15 l 1
 242 28 187 94 163 129 c 1
 163 175 l 1
 146 186 l 1
 142 175 l 1
 123 175 l 1
 123 201 163 207 163 237 c 1
 188 237 220 242 242 258 c 1
 443 258 l 1
 443 281 l 1
 464 281 l 1
 464 216 l 1
 484 197 l 1
 464 175 l 1
 464 156 482 153 496 153 c 0
 498 153 502 153 504 153 c 1
 504 137 513 131 528 131 c 2
 565 133 l 1
 603 197 l 1
 603 237 l 1
 583 258 l 1
 583 323 l 1
 565 302 l 1
 543 323 l 1
 494 323 450 343 403 343 c 1
 394 354 378 362 364 363 c 1
 364 385 l 1
 343 385 l 1
 322 363 l 1
 253 397 165 448 123 513 c 1
 123 582 63 658 63 743 c 2
 63 925 l 2
 63 1157 292 1375 504 1375 c 1
 522 1355 l 1
 529 1359 559 1375 565 1375 c 0
 814 1375 876 1250 904 1250 c 1
 904 1213 965 1220 965 1185 c 1
 983 1174 1007 1134 1007 1110 c 0
 1007 1106 1006 1102 1006 1101 c 1
 985 1101 l 1
 944 638 l 1
 925 617 l 1
 965 617 l 1
 965 596 l 1
 883 596 l 1
 865 617 l 1
 865 638 l 1
 854 629 837 621 823 617 c 1
 784 660 l 1
 784 638 l 1
 644 638 l 1
 620 664 607 696 583 723 c 1
 603 743 l 1
 554 743 577 754 548 765 c 1
EndSplineSet
EndChar

StartChar: t
Encoding: 85 116 45
Width: 1458
VWidth: 2308
Flags: HW
LayerCount: 2
Fore
SplineSet
681 -160 m 1
 661 -140 l 1
 663 -62 l 2
 663 -24 657 15 642 50 c 1
 661 28 l 1
 661 177 l 1
 642 177 l 1
 642 260 621 328 621 411 c 0
 621 417 621 424 621 429 c 1
 605 444 l 1
 621 448 l 1
 621 492 l 1
 602 513 l 1
 621 575 l 1
 607 592 600 617 600 642 c 0
 600 649 600 654 602 660 c 1
 584 678 581 705 581 728 c 0
 581 739 581 749 581 759 c 1
 565 730 366 698 320 680 c 1
 301 703 l 1
 301 680 l 1
 259 640 l 1
 259 840 211 1161 39 1290 c 1
 97 1290 152 1305 200 1335 c 1
 211 1333 222 1333 233 1333 c 0
 322 1333 414 1377 502 1377 c 2
 943 1377 l 2
 1089 1377 1240 1335 1383 1312 c 1
 1383 1296 1271 1108 1262 1102 c 1
 1244 1102 l 1
 1244 1080 l 1
 1262 1080 l 1
 1262 946 1240 813 1223 680 c 1
 1203 680 l 1
 1163 723 l 1
 1145 719 1129 717 1112 717 c 0
 1059 717 1013 737 961 765 c 1
 943 765 l 1
 961 703 l 1
 943 660 l 1
 959 643 963 584 963 529 c 0
 963 487 961 446 961 429 c 1
 957 431 957 434 956 434 c 0
 954 434 952 431 952 427 c 0
 952 415 965 380 965 369 c 0
 965 323 945 278 945 234 c 0
 945 216 948 195 961 177 c 1
 943 111 938 39 938 -33 c 0
 938 -105 943 -178 943 -245 c 1
 922 -267 l 1
 922 -183 l 1
 862 -183 l 1
 862 -225 l 1
 841 -225 l 1
 825 -210 821 -180 821 -160 c 1
 681 -160 l 1
EndSplineSet
EndChar

StartChar: u
Encoding: 86 117 46
Width: 1519
VWidth: 2308
Flags: HW
LayerCount: 2
Fore
SplineSet
576 -6 m 1
 538 15 l 1
 538 31 539 61 416 61 c 1
 416 77 359 311 357 315 c 1
 355 313 351 311 350 311 c 0
 342 311 333 321 333 328 c 0
 333 330 335 334 337 336 c 1
 316 358 l 1
 337 400 l 1
 316 400 l 1
 300 417 294 450 294 478 c 0
 294 489 294 498 296 505 c 1
 311 516 l 1
 296 525 l 1
 296 545 l 2
 296 696 239 859 215 1011 c 1
 202 1011 l 1
 215 1030 l 1
 172 1076 176 1141 176 1200 c 1
 103 1277 116 1305 -4 1305 c 1
 110 1329 287 1331 397 1368 c 1
 397 1347 l 1
 416 1368 l 1
 677 1368 l 1
 657 1347 l 1
 657 1283 l 1
 637 1263 l 2
 638 1264 641 1264 645 1264 c 0
 652 1264 661 1257 661 1250 c 0
 661 1246 659 1245 657 1243 c 2
 637 1220 l 1
 650 1202 659 1180 659 1155 c 0
 659 1134 652 1111 637 1095 c 1
 674 1058 683 939 683 835 c 0
 683 774 680 721 677 693 c 1
 657 693 l 1
 657 545 l 2
 657 481 698 408 698 354 c 0
 698 334 696 313 696 295 c 0
 696 244 729 230 777 230 c 1
 818 253 l 1
 818 273 l 1
 838 293 l 1
 818 315 l 1
 863 365 858 461 858 525 c 1
 867 531 l 1
 838 568 l 1
 858 588 l 1
 858 633 l 1
 877 633 l 1
 877 772 899 914 899 1053 c 1
 877 1073 l 1
 877 1095 l 1
 899 1095 l 1
 902 1099 904 1102 904 1104 c 0
 904 1115 869 1113 869 1125 c 0
 869 1128 872 1130 877 1136 c 1
 858 1155 l 1
 860 1155 860 1154 862 1154 c 0
 869 1154 877 1164 877 1169 c 0
 877 1171 875 1173 873 1174 c 1
 895 1192 900 1243 900 1283 c 0
 900 1299 900 1314 899 1326 c 1
 877 1347 l 1
 998 1347 l 2
 1069 1347 1134 1329 1199 1305 c 1
 1218 1326 l 1
 1332 1326 1426 1243 1540 1243 c 1
 1477 1209 1426 1165 1378 1115 c 1
 1398 1097 l 1
 1394 1097 l 2
 1385 1097 1375 1088 1375 1078 c 0
 1375 1076 1376 1074 1378 1073 c 2
 1400 1053 l 1
 1378 1053 l 1
 1278 876 1241 673 1241 470 c 0
 1241 446 1231 420 1218 400 c 1
 1218 358 l 1
 1199 358 l 1
 1201 332 l 2
 1201 319 1199 293 1179 293 c 1
 1199 253 l 1
 1159 168 l 2
 1160 170 1162 172 1166 172 c 0
 1173 172 1183 162 1183 155 c 0
 1183 151 1181 149 1179 147 c 1
 1159 168 l 1
 1138 125 l 1
 1159 105 l 1
 1138 105 l 1
 1097 42 l 1
 1097 21 l 1
 1090 19 1081 19 1072 19 c 0
 1039 19 1002 28 978 42 c 1
 972 30 943 -22 917 -24 c 1
 914 -16 899 9 899 17 c 0
 899 19 937 19 937 21 c 1
 877 42 l 1
 818 0 l 1
 818 28 l 1
 818 28 814 44 798 44 c 1
 798 26 l 1
 794 59 781 94 716 94 c 1
 709 86 698 81 687 81 c 0
 683 81 680 81 677 83 c 1
 680 46 l 1
 680 31 682 -22 657 -22 c 1
 650 0 637 28 617 42 c 1
 610 42 604 42 600 40 c 1
 617 24 l 1
 576 -6 l 1
EndSplineSet
EndChar

StartChar: v
Encoding: 87 118 47
Width: 1412
VWidth: 2308
Flags: HW
LayerCount: 2
Fore
SplineSet
694 -85 m 1
 674 -105 l 1
 674 -127 l 1
 635 -127 l 1
 635 -105 l 1
 615 -105 609 -64 609 -22 c 0
 609 7 611 33 613 42 c 1
 547 79 512 201 499 253 c 1
 478 230 l 1
 476 234 476 236 476 239 c 0
 476 258 489 281 499 293 c 1
 478 293 l 1
 478 315 l 1
 458 336 l 1
 458 378 l 1
 378 435 290 967 241 1095 c 1
 206 1095 l 1
 220 1115 l 1
 202 1209 141 1298 93 1299 c 1
 93 1320 l 1
 -7 1320 l 1
 181 1353 377 1368 575 1368 c 1
 575 1388 l 1
 613 1388 l 1
 637 1368 l 1
 594 1368 l 1
 594 1305 l 1
 613 1283 l 1
 613 1178 l 1
 635 1178 l 1
 613 1157 l 1
 620 1146 635 1119 635 1102 c 2
 635 1095 l 1
 654 1074 657 1043 657 1011 c 0
 657 981 654 949 654 925 c 0
 654 905 683 795 694 777 c 1
 679 793 l 1
 721 732 677 455 735 404 c 1
 779 525 770 708 795 842 c 1
 775 863 l 1
 795 885 l 1
 795 955 793 1027 814 1095 c 1
 812 1093 809 1092 807 1092 c 0
 799 1092 793 1101 793 1108 c 0
 793 1136 856 1241 856 1290 c 0
 856 1296 856 1301 854 1305 c 1
 874 1326 l 1
 874 1368 l 1
 895 1368 l 1
 915 1388 l 1
 915 1368 l 1
 1092 1368 1256 1338 1416 1338 c 1
 1335 1298 l 1
 1234 1235 1131 955 1131 798 c 1
 1111 798 l 1
 1111 728 1037 448 1009 400 c 1
 1029 400 l 1
 1029 378 l 1
 1009 358 l 1
 1009 306 983 228 950 188 c 1
 950 137 932 83 932 31 c 1
 895 5 895 -20 895 -44 c 1
 874 -64 l 2
 872 -66 869 -69 867 -69 c 0
 860 -69 851 -59 851 -51 c 0
 851 -50 853 -46 854 -44 c 1
 814 -44 l 1
 814 -62 810 -90 795 -105 c 1
 735 -105 l 1
 714 -85 l 1
 694 -85 l 1
EndSplineSet
EndChar

StartChar: w
Encoding: 88 119 48
Width: 1549
VWidth: 2308
Flags: HW
LayerCount: 2
Fore
SplineSet
758 68 m 1
 758 48 l 1
 718 48 l 1
 718 3 l 1
 659 68 l 1
 638 26 l 1
 638 48 l 1
 618 26 l 1
 611 31 417 588 417 658 c 1
 359 741 l 1
 359 763 l 1
 316 805 l 1
 306 856 276 960 276 1020 c 0
 276 1025 276 1032 278 1038 c 1
 242 1038 l 1
 257 1058 l 1
 216 1058 l 1
 215 1060 213 1062 213 1065 c 0
 213 1073 222 1082 229 1082 c 0
 231 1082 234 1080 237 1078 c 1
 237 1127 165 1206 116 1206 c 1
 104 1226 45 1268 14 1268 c 0
 12 1268 10 1268 8 1268 c 1
 115 1308 224 1331 338 1331 c 1
 338 1353 l 1
 377 1353 l 1
 377 1331 l 1
 397 1331 l 2
 401 1331 432 1349 438 1353 c 1
 456 1335 478 1331 503 1331 c 2
 517 1331 l 1
 498 1353 l 1
 517 1353 l 1
 537 1331 l 1
 517 1310 l 1
 531 1292 539 1257 539 1229 c 0
 539 1220 539 1213 537 1206 c 1
 559 1183 l 1
 559 1078 l 1
 587 1045 611 902 638 846 c 1
 635 874 633 902 633 929 c 0
 633 1006 640 1093 677 1164 c 1
 659 1183 l 1
 659 1206 l 1
 677 1206 l 1
 677 1248 700 1289 700 1331 c 1
 718 1353 l 1
 700 1373 l 1
 878 1373 l 1
 878 1326 902 1215 939 1183 c 1
 939 1120 l 1
 959 1101 l 1
 980 1101 l 1
 959 1078 l 1
 974 1045 976 1001 999 974 c 1
 999 937 l 1
 1061 1120 l 1
 1038 1143 l 1
 1061 1164 l 1
 1057 1169 1085 1231 1083 1261 c 2
 1079 1331 l 1
 1061 1353 l 1
 1099 1373 l 1
 1120 1331 l 1
 1140 1331 l 2
 1147 1331 1191 1349 1201 1353 c 1
 1219 1331 l 1
 1342 1331 1464 1289 1581 1248 c 1
 1525 1248 1455 1229 1420 1183 c 1
 1420 1143 l 1
 1379 1101 l 1
 1400 1101 l 1
 1379 1078 l 1
 1394 1078 l 1
 1346 1021 1224 786 1224 654 c 0
 1224 631 1230 608 1240 594 c 1
 1219 575 l 1
 1201 575 l 1
 1201 483 1178 392 1178 300 c 1
 1160 274 l 1
 1160 278 l 1
 1127 244 1124 199 1124 153 c 0
 1124 131 1124 109 1124 89 c 0
 1124 57 1124 3 1099 3 c 1
 1079 -16 l 1
 1077 19 967 26 939 26 c 1
 939 3 l 1
 918 -16 l 1
 899 3 l 1
 899 111 l 1
 913 120 l 1
 913 142 885 153 878 174 c 1
 899 195 l 1
 878 216 l 1
 878 281 862 411 839 468 c 1
 819 378 802 295 802 203 c 0
 802 179 791 151 779 131 c 1
 779 91 l 1
 799 91 l 1
 779 48 l 1
 758 68 l 1
7 1268 m 1
 8 1268 l 1
 7 1268 l 1
EndSplineSet
EndChar

StartChar: x
Encoding: 89 120 49
Width: 1311
VWidth: 2308
Flags: HW
LayerCount: 2
Fore
SplineSet
451 696 m 1
 451 739 l 2
 451 789 431 837 431 886 c 1
 383 949 377 1025 311 1076 c 1
 311 1169 156 1241 89 1287 c 1
 68 1287 l 2
 42 1287 10 1289 -10 1308 c 1
 98 1308 202 1349 311 1349 c 1
 311 1370 l 1
 411 1366 l 2
 443 1364 488 1366 512 1391 c 1
 512 1370 l 1
 495 1370 l 1
 552 1349 l 1
 571 1370 l 1
 571 1349 l 1
 652 1287 l 1
 613 1287 l 1
 613 1245 l 1
 629 1227 633 1209 633 1189 c 0
 633 1180 631 1169 631 1159 c 1
 648 1136 665 1108 674 1080 c 1
 689 1102 772 1280 772 1326 c 0
 772 1327 772 1327 772 1329 c 1
 753 1329 l 1
 753 1349 l 1
 731 1349 l 1
 731 1370 l 1
 753 1380 l 1
 753 1370 l 1
 844 1370 1259 1314 1313 1264 c 1
 1328 1264 l 1
 1190 1227 1043 1167 972 1034 c 1
 993 1034 l 1
 993 1012 l 1
 972 1034 l 1
 893 885 932 714 833 571 c 1
 853 550 l 1
 853 507 l 1
 833 507 l 1
 833 487 l 1
 853 487 l 1
 853 466 l 1
 833 466 l 1
 833 444 l 2
 833 374 872 308 872 246 c 0
 872 242 872 237 872 234 c 1
 953 151 946 -6 993 -103 c 1
 972 -103 l 1
 953 -83 l 1
 953 -60 l 1
 930 -39 899 -41 872 -41 c 1
 853 -18 l 1
 791 -18 l 1
 772 -41 l 1
 712 -41 l 1
 712 61 694 162 652 255 c 1
 652 170 l 1
 650 172 l 1
 620 172 611 125 611 74 c 0
 611 19 622 -42 631 -60 c 1
 591 -18 l 1
 571 -18 l 1
 571 -44 l 1
 532 -41 l 1
 512 -60 l 1
 492 -60 l 1
 471 -41 l 1
 431 -83 l 1
 413 -83 l 1
 413 -103 l 1
 392 -103 l 1
 392 -60 l 1
 369 -83 l 1
 351 -60 l 1
 351 -18 l 1
 392 44 l 1
 392 72 408 100 422 123 c 1
 413 129 l 1
 413 149 l 1
 471 212 432 317 471 362 c 1
 451 362 l 1
 471 381 l 1
 471 422 l 1
 512 487 l 1
 512 516 497 545 471 562 c 1
 466 561 l 1
 451 571 l 1
 471 571 l 1
 458 625 441 678 431 733 c 1
 451 696 l 1
EndSplineSet
EndChar

StartChar: y
Encoding: 90 121 50
Width: 1321
VWidth: 2308
Flags: HW
LayerCount: 2
Fore
SplineSet
338 1132 m 1
 234 1180 148 1255 55 1322 c 1
 51 1322 l 1
 55 1331 l 1
 76 1322 l 1
 129 1347 192 1327 247 1349 c 1
 257 1364 l 1
 276 1364 l 1
 278 1368 l 1
 294 1353 315 1344 338 1342 c 1
 338 1364 l 1
 466 1368 l 1
 581 1368 642 1128 679 1027 c 1
 709 1099 743 1178 797 1236 c 1
 772 1266 l 1
 778 1281 l 1
 818 1281 818 1359 818 1386 c 1
 839 1364 l 1
 857 1362 l 1
 878 1380 l 1
 887 1324 1091 1324 1140 1299 c 1
 1140 1320 l 1
 1150 1289 1275 1259 1307 1259 c 1
 1187 1254 1168 1154 1119 1154 c 1
 1106 1145 1093 1127 1091 1110 c 1
 1078 1088 l 1
 1059 1090 l 1
 1056 1029 987 1008 959 964 c 0
 913 892 907 474 839 332 c 1
 857 332 l 1
 857 262 839 192 839 121 c 1
 816 98 811 68 811 37 c 0
 811 5 816 -27 816 -55 c 1
 797 -88 l 1
 785 -76 776 -55 762 -44 c 1
 721 -72 618 -72 618 -132 c 1
 577 -88 566 12 566 114 c 0
 566 221 577 334 577 395 c 0
 577 494 438 877 438 964 c 0
 438 972 440 977 442 981 c 1
 437 984 l 1
 356 986 338 1071 338 1132 c 1
15 1299 m 1
 23 1307 33 1318 44 1320 c 1
 33 1312 30 1299 15 1299 c 1
338 1111 m 1
 338 1108 l 1
 330 1108 324 1110 317 1111 c 1
 338 1111 l 1
1078 1080 m 1
 1078 1069 l 1
 1077 1069 1077 1073 1077 1074 c 2
 1078 1080 l 1
1078 1088 m 1
 1080 1088 1080 1086 1080 1083 c 1
 1080 1083 1080 1082 1078 1080 c 1
 1078 1088 l 1
51 1322 m 1
 51 1320 50 1320 48 1320 c 1
 48 1320 50 1320 51 1322 c 1
EndSplineSet
EndChar

StartChar: z
Encoding: 91 122 51
Width: 1354
VWidth: 2308
Flags: HW
LayerCount: 2
Fore
SplineSet
313 640 m 1
 333 660 l 1
 313 660 l 1
 313 643 l 1
 280 743 275 833 254 933 c 0
 225 1071 105 1182 72 1312 c 1
 185 1312 287 1377 394 1377 c 2
 554 1377 l 1
 554 1355 l 1
 573 1355 l 1
 573 1377 l 1
 955 1377 l 1
 955 1355 l 1
 975 1355 997 1355 1017 1355 c 0
 1063 1355 1110 1353 1156 1335 c 1
 1156 1312 l 1
 1175 1312 l 1
 1196 1335 l 1
 1257 1312 l 1
 1257 1290 l 1
 1275 1290 l 1
 1275 1159 1135 1139 1135 870 c 1
 1126 856 1071 745 1056 745 c 1
 1036 765 l 1
 1036 723 l 1
 1015 703 l 1
 975 703 l 1
 975 677 966 640 934 640 c 1
 934 617 l 1
 916 597 l 1
 896 597 l 1
 896 538 855 540 855 507 c 1
 835 513 l 1
 835 448 l 1
 815 448 l 1
 815 429 l 1
 794 429 l 1
 794 387 l 1
 774 387 l 1
 774 365 l 1
 755 365 l 1
 774 343 l 1
 760 343 753 328 753 315 c 0
 753 309 753 306 755 302 c 1
 734 260 l 1
 715 282 l 1
 716 258 l 2
 716 244 709 237 695 237 c 1
 695 218 l 1
 700 221 730 237 734 237 c 2
 916 237 l 2
 950 237 978 218 1015 218 c 1
 1015 197 l 1
 1036 197 l 1
 1015 177 l 1
 1036 155 l 1
 1015 155 l 1
 995 133 l 1
 995 91 l 1
 975 91 l 1
 995 72 l 1
 995 7 l 2
 995 -20 953 -74 953 -109 c 0
 953 -113 953 -116 955 -120 c 1
 934 -120 l 2
 916 -120 913 -105 913 -90 c 0
 913 -78 914 -64 916 -55 c 1
 874 -55 837 -35 794 -35 c 2
 654 -35 l 1
 674 -55 l 1
 654 -55 l 2
 637 -55 634 -50 634 -41 c 0
 634 -35 635 -25 635 -18 c 0
 635 5 612 7 593 7 c 0
 584 7 562 -16 531 -16 c 0
 525 -16 519 -16 514 -15 c 1
 494 -35 l 1
 514 -35 l 1
 510 -55 l 1
 498 -51 l 1
 454 -78 l 1
 435 -64 433 -33 433 -15 c 1
 429 -16 l 1
 394 28 l 1
 394 112 l 1
 420 147 444 193 454 237 c 1
 473 237 l 1
 459 260 l 1
 473 323 l 1
 494 323 l 1
 494 343 l 1
 514 343 l 1
 512 352 510 363 510 378 c 0
 510 411 518 453 535 470 c 1
 554 470 l 1
 554 555 l 1
 572 573 590 640 616 640 c 1
 614 645 614 652 614 658 c 0
 614 705 647 747 689 765 c 1
 654 765 l 2
 610 765 372 715 372 660 c 1
 354 660 l 1
 313 623 l 1
 313 640 l 1
EndSplineSet
EndChar

StartChar: D
Encoding: 37 68 52
Width: 1131
VWidth: 2308
Flags: HW
LayerCount: 2
Fore
SplineSet
627 -282 m 1
 586 -240 l 1
 586 -136 569 -42 566 56 c 1
 271 56 428 -123 326 -219 c 1
 326 -138 286 -48 284 33 c 1
 300 33 l 1
 291 56 282 77 282 100 c 0
 282 121 284 158 307 160 c 1
 262 237 212 719 205 835 c 1
 192 1008 152 1078 85 1233 c 1
 105 1233 l 1
 105 1255 l 2
 105 1261 89 1290 85 1298 c 1
 63 1292 l 1
 70 1298 l 1
 43 1298 l 1
 298 1308 548 1361 808 1361 c 0
 919 1361 901 1275 947 1275 c 1
 953 1233 1067 1200 1073 1157 c 1
 1051 1128 l 1
 1091 1120 1093 1021 1093 990 c 0
 1093 726 957 452 957 228 c 0
 957 61 898 79 847 -30 c 1
 828 -7 l 1
 808 -30 l 1
 819 -30 l 1
 767 -50 l 1
 752 -41 l 1
 730 -44 724 -101 724 -141 c 0
 724 -157 727 -169 727 -177 c 1
 690 -177 680 -157 680 -125 c 0
 680 -109 684 -88 685 -74 c 1
 667 -50 l 1
 667 -72 l 1
 653 -76 l 1
 643 -144 638 -213 627 -282 c 1
627 181 m 1
 627 223 l 1
 729 246 747 219 747 309 c 0
 747 332 750 354 767 371 c 1
 767 413 l 1
 784 413 785 434 785 452 c 0
 785 462 785 472 785 478 c 1
 808 478 l 1
 808 498 l 1
 785 478 l 1
 785 518 l 1
 796 518 l 1
 787 524 785 545 785 568 c 0
 785 584 787 601 787 608 c 0
 787 693 769 770 667 770 c 2
 627 770 l 1
 627 749 l 1
 606 749 l 1
 606 730 l 1
 586 708 l 1
 586 666 l 1
 566 643 l 1
 566 518 l 1
 546 518 l 1
 546 507 555 498 566 498 c 1
 566 434 l 1
 586 413 l 1
 566 413 l 1
 566 286 l 1
 585 286 595 236 606 223 c 1
 606 181 l 1
 627 181 l 1
586 708 m 1
 566 730 l 1
 566 712 566 708 586 708 c 1
66 1289 m 0
 64 1290 63 1290 63 1292 c 1
 64 1292 66 1290 68 1290 c 1
 68 1289 68 1289 66 1289 c 0
EndSplineSet
EndChar

StartChar: A
Encoding: 34 65 53
Width: 1029
VWidth: 2308
Flags: HW
LayerCount: 2
Fore
SplineSet
537 -194 m 1
 533 -132 l 1
 533 -114 547 -81 556 -66 c 1
 537 -46 l 1
 558 12 l 1
 558 37 498 100 465 100 c 1
 435 81 l 1
 449 81 l 1
 456 59 l 1
 447 59 l 1
 435 -25 l 1
 411 -25 424 -6 396 -6 c 1
 396 -249 l 1
 374 -199 374 -153 374 -99 c 1
 370 -138 354 -151 315 -151 c 1
 315 -111 l 1
 294 -88 l 1
 275 -111 l 1
 298 -169 l 1
 294 -171 l 1
 284 -260 l 1
 275 -258 l 1
 238 -197 234 -114 234 -39 c 0
 234 -11 234 17 234 42 c 0
 234 98 199 174 199 239 c 0
 199 258 208 306 229 311 c 1
 213 311 l 1
 238 360 l 1
 236 378 212 408 212 418 c 2
 213 480 l 1
 234 480 l 1
 213 501 l 1
 213 538 234 570 234 606 c 1
 213 627 l 1
 229 642 236 671 236 691 c 0
 236 756 213 816 213 881 c 0
 213 911 234 937 234 964 c 0
 234 1032 213 1104 213 1174 c 1
 234 1174 l 1
 234 1196 l 1
 206 1196 180 1233 146 1238 c 1
 155 1238 l 1
 123 1270 76 1287 35 1301 c 1
 92 1340 352 1344 519 1344 c 0
 699 1344 820 1327 977 1301 c 1
 720 1169 825 944 765 714 c 1
 776 730 l 1
 771 675 757 619 757 564 c 1
 763 588 776 614 776 640 c 2
 776 582 l 2
 776 538 763 527 763 499 c 0
 763 485 767 466 776 439 c 1
 776 492 l 1
 780 439 l 2
 780 429 762 385 757 374 c 1
 771 348 776 321 776 291 c 0
 776 256 753 207 753 162 c 0
 753 123 715 63 715 17 c 1
 735 17 l 1
 690 -78 704 -276 656 -276 c 1
 656 -299 l 1
 639 -301 l 1
 616 -267 l 1
 616 -258 l 1
 641 -231 637 -215 637 -180 c 1
 656 -151 l 1
 637 -132 l 1
 616 -159 l 1
 599 -87 l 1
 538 -138 567 -114 537 -194 c 1
435 459 m 1
 456 459 l 1
 456 437 424 380 415 354 c 1
 494 354 l 2
 507 354 547 354 555 343 c 1
 549 409 537 476 537 543 c 1
 540 543 l 1
 535 545 533 559 533 570 c 0
 533 584 535 601 537 606 c 1
 514 627 l 1
 537 633 l 1
 537 649 l 1
 535 649 531 647 528 647 c 0
 516 647 514 680 514 706 c 0
 514 721 514 733 514 739 c 1
 505 649 456 570 456 480 c 1
 435 481 l 1
 435 459 l 1
575 -403 m 1
 556 -403 l 1
 556 -363 l 2
 556 -326 588 -280 595 -241 c 1
 595 -299 l 2
 595 -306 582 -322 581 -338 c 1
 575 -359 575 -382 575 -403 c 1
757 700 m 1
 757 691 l 1
 767 691 l 2
 763 691 759 696 757 700 c 1
537 12 m 2
 537 17 l 1
 540 17 l 2
 538 17 537 13 537 12 c 2
EndSplineSet
EndChar

StartChar: B
Encoding: 35 66 54
Width: 1081
VWidth: 2308
Flags: HW
LayerCount: 2
Fore
SplineSet
524 -60 m 1
 522 -59 l 1
 506 -32 l 1
 506 -44 502 -74 465 -81 c 1
 462 -42 448 12 404 12 c 0
 367 12 351 -7 343 -32 c 1
 325 -60 l 1
 288 -48 281 -11 281 30 c 0
 281 118 284 203 284 244 c 1
 265 244 260 281 260 323 c 0
 260 352 262 381 264 390 c 1
 246 390 240 455 240 518 c 0
 240 571 244 625 244 642 c 0
 244 728 233 905 203 981 c 1
 244 1001 l 1
 244 1021 l 1
 203 1001 l 1
 203 1021 l 1
 225 1021 l 1
 225 1120 109 1248 43 1317 c 1
 78 1314 l 1
 85 1322 485 1379 525 1379 c 0
 675 1379 1007 1382 1007 1169 c 0
 1007 993 900 534 902 534 c 1
 896 534 889 540 887 545 c 1
 887 490 852 474 806 453 c 1
 872 453 887 378 887 327 c 0
 887 242 867 158 867 74 c 1
 847 44 810 -57 768 -57 c 2
 763 -57 l 1
 769 -64 l 1
 752 -70 734 -76 715 -76 c 0
 712 -76 708 -74 705 -74 c 1
 705 -53 l 1
 690 -70 l 1
 657 -57 622 -32 587 -32 c 1
 571 -46 546 -72 544 -87 c 1
 533 -87 525 -76 524 -60 c 1
666 327 m 1
 634 360 585 328 564 369 c 1
 564 327 525 383 525 306 c 1
 506 306 l 1
 506 284 l 1
 524 284 527 256 527 230 c 0
 527 209 525 188 525 179 c 2
 525 138 l 1
 583 138 596 140 645 116 c 1
 638 116 l 1
 645 105 l 1
 645 125 653 144 666 158 c 1
 666 232 l 2
 666 242 669 244 675 244 c 2
 686 244 l 1
 686 265 664 258 664 299 c 0
 664 306 664 315 666 327 c 1
645 566 m 1
 645 579 l 1
 668 575 l 1
 662 564 l 1
 666 559 l 1
 666 590 687 553 687 617 c 0
 687 645 682 675 682 703 c 0
 682 710 687 721 694 724 c 1
 686 730 684 743 684 756 c 0
 684 759 686 765 686 768 c 1
 649 804 606 774 564 811 c 1
 564 789 l 1
 525 789 l 1
 544 768 l 1
 525 768 l 1
 525 761 l 2
 525 756 527 750 529 747 c 1
 533 749 l 1
 544 749 544 684 544 673 c 2
 544 642 l 1
 525 623 l 1
 544 623 l 1
 544 601 l 1
 550 601 638 577 645 566 c 1
EndSplineSet
EndChar

StartChar: C
Encoding: 36 67 55
Width: 1087
VWidth: 2308
Flags: HW
LayerCount: 2
Fore
SplineSet
940 327 m 1
 935 346 l 1
 955 327 l 1
 973 327 l 1
 955 304 l 1
 955 264 l 1
 937 264 931 247 931 228 c 0
 931 214 935 197 935 188 c 1
 914 158 l 1
 914 116 l 1
 894 94 l 1
 874 94 l 1
 874 75 872 44 856 31 c 1
 833 52 l 2
 835 50 835 48 835 44 c 0
 835 37 828 28 820 28 c 0
 819 28 817 30 815 31 c 1
 815 -20 802 -2 775 -33 c 1
 775 -53 l 1
 750 -78 722 -74 693 -74 c 1
 697 -146 l 2
 699 -171 691 -201 673 -222 c 1
 654 -199 l 1
 654 -107 613 -59 613 -11 c 1
 594 -11 l 1
 594 -85 613 -146 613 -215 c 1
 610 -208 597 -169 594 -169 c 1
 592 -168 588 -168 586 -168 c 0
 577 -168 569 -173 569 -178 c 1
 555 -178 550 -162 550 -162 c 1
 550 -138 573 -138 573 -125 c 2
 573 -94 l 1
 559 -79 553 -53 553 -33 c 1
 514 -11 l 1
 494 -33 l 1
 472 -33 l 1
 453 -53 l 1
 453 -138 l 1
 459 -144 462 -151 467 -157 c 1
 453 -171 l 1
 453 -177 l 1
 413 -194 l 1
 413 -94 l 2
 413 -51 372 -44 372 -11 c 1
 293 -11 l 1
 293 12 l 1
 253 12 l 1
 238 28 230 63 230 93 c 0
 230 102 230 109 232 116 c 1
 214 116 l 1
 232 137 l 1
 216 166 198 199 172 221 c 1
 172 242 l 1
 191 264 l 1
 172 284 l 1
 172 286 173 290 173 293 c 0
 173 311 161 334 153 346 c 1
 163 346 l 1
 112 579 l 1
 133 610 l 1
 112 599 l 1
 98 715 63 835 63 951 c 0
 63 1049 109 1189 191 1252 c 1
 221 1231 l 1
 214 1252 l 1
 232 1273 l 1
 253 1273 l 1
 298 1344 418 1379 494 1379 c 2
 754 1379 l 1
 793 1333 852 1335 894 1294 c 1
 894 1252 l 1
 914 1252 l 1
 914 1273 l 1
 935 1273 l 1
 973 1231 l 1
 955 1211 l 1
 995 1211 991 1146 1034 1146 c 1
 1034 1064 l 1
 1016 1064 l 1
 1034 1041 l 1
 1034 894 l 2
 1034 849 1014 599 995 579 c 1
 995 557 l 1
 946 577 931 580 868 580 c 0
 833 580 796 577 784 564 c 1
 770 575 748 580 730 580 c 0
 724 580 719 579 715 579 c 1
 693 557 l 1
 673 579 l 1
 693 599 l 1
 693 621 l 2
 693 661 654 682 654 726 c 1
 634 726 l 1
 615 756 625 789 594 789 c 0
 585 789 580 767 575 767 c 1
 575 767 573 767 573 768 c 2
 553 749 l 1
 514 749 l 1
 507 735 492 712 492 693 c 0
 492 689 492 686 494 684 c 1
 472 684 l 1
 472 661 l 1
 494 661 l 1
 494 557 l 2
 494 520 472 478 472 431 c 0
 472 372 494 309 494 242 c 1
 514 242 l 1
 514 199 l 1
 553 158 l 1
 571 158 l 1
 594 179 615 199 634 221 c 1
 632 223 631 225 631 228 c 0
 631 236 640 246 647 246 c 0
 649 246 652 244 654 242 c 1
 654 304 l 1
 673 327 l 1
 673 369 l 1
 754 369 l 1
 770 367 907 339 940 327 c 1
133 642 m 1
 119 633 112 615 112 599 c 1
 127 615 133 619 133 642 c 1
472 -151 m 1
 472 -173 l 1
 467 -157 l 1
 472 -151 l 1
474 -197 m 1
 472 -183 l 1
 472 -173 l 1
 474 -180 474 -188 474 -197 c 1
573 -185 m 2
 571 -183 569 -180 569 -178 c 2
 573 -185 l 2
EndSplineSet
EndChar

StartChar: one
Encoding: 19 49 56
Width: 782
VWidth: 2308
Flags: HW
LayerCount: 2
Fore
SplineSet
505 -18 m 1
 465 3 l 1
 463 9 463 17 463 24 c 0
 463 42 466 63 475 75 c 1
 444 50 l 1
 384 50 l 1
 365 17 l 1
 365 5 352 3 343 3 c 1
 324 22 l 1
 313 107 224 1043 206 1078 c 1
 162 1056 111 1043 62 1032 c 1
 43 1074 l 1
 62 1097 l 1
 43 1095 l 1
 16 1095 7 1178 4 1194 c 1
 -17 1194 l 1
 -17 1202 74 1233 85 1236 c 2
 365 1314 l 1
 365 1292 l 1
 387 1359 466 1359 525 1377 c 1
 544 1361 l 1
 564 1377 l 1
 595 1377 627 1373 653 1355 c 1
 653 1272 l 1
 630 1272 l 1
 630 1250 l 1
 653 1250 l 1
 645 1102 l 1
 664 1102 673 1093 685 1080 c 1
 662 967 658 811 625 703 c 1
 604 703 l 1
 604 680 608 656 625 640 c 1
 625 470 l 1
 590 470 l 1
 606 464 606 439 606 426 c 1
 604 408 l 1
 586 387 l 1
 586 365 l 1
 610 365 608 317 608 302 c 0
 608 223 586 149 586 72 c 0
 586 65 601 35 604 28 c 1
 586 7 l 1
 604 7 l 1
 604 -11 612 -22 625 -35 c 1
 586 -35 l 1
 564 -15 l 1
 544 -15 l 1
 529 7 l 1
 505 -18 l 1
544 12 m 1
 544 22 l 1
 535 13 l 1
 538 13 540 12 544 12 c 1
EndSplineSet
EndChar

StartChar: two
Encoding: 20 50 57
Width: 1246
VWidth: 2308
Flags: HW
LayerCount: 2
Fore
SplineSet
97 -94 m 1
 86 -64 l 1
 103 -79 l 1
 107 -20 112 -4 134 52 c 1
 128 75 l 1
 128 116 154 162 169 197 c 1
 206 179 l 1
 232 190 l 1
 289 166 l 1
 297 186 l 1
 313 177 l 1
 478 308 l 1
 477 328 l 1
 496 328 l 1
 534 371 l 1
 534 411 l 1
 556 411 l 1
 556 452 l 1
 577 434 l 1
 577 494 l 2
 577 503 559 545 556 557 c 1
 659 661 l 1
 680 661 l 1
 680 684 l 1
 659 684 l 1
 659 686 659 687 659 691 c 0
 659 708 645 737 638 749 c 1
 598 749 l 1
 578 768 l 1
 558 768 l 1
 558 789 l 1
 538 789 l 1
 538 786 540 784 540 780 c 0
 540 761 527 739 519 726 c 1
 497 726 l 1
 497 675 459 668 459 599 c 1
 478 579 l 1
 459 557 l 1
 438 579 l 1
 433 579 427 580 422 580 c 0
 401 580 381 575 368 564 c 1
 355 577 318 580 283 580 c 0
 221 580 208 577 158 557 c 1
 158 579 l 1
 140 597 118 848 118 894 c 2
 118 1041 l 1
 136 1064 l 1
 118 1064 l 1
 118 1146 l 1
 160 1146 156 1211 197 1211 c 1
 179 1231 l 1
 217 1273 l 1
 237 1273 l 1
 237 1252 l 1
 258 1252 l 1
 258 1294 l 1
 300 1335 359 1333 397 1379 c 1
 659 1379 l 2
 689 1379 721 1357 759 1357 c 0
 766 1357 772 1357 779 1359 c 1
 794 1344 818 1338 838 1336 c 1
 899 1273 l 1
 919 1273 l 1
 939 1252 l 1
 930 1231 l 1
 960 1252 l 1
 1043 1189 1089 1049 1089 951 c 0
 1089 835 1054 715 1039 599 c 1
 1020 610 l 1
 1039 579 l 1
 1009 527 947 355 886 346 c 1
 895 346 l 1
 888 334 875 311 875 293 c 0
 875 290 875 286 877 284 c 1
 856 264 l 1
 864 255 l 1
 939 255 1018 232 1090 232 c 0
 1120 232 1133 255 1155 255 c 0
 1164 255 1176 255 1187 255 c 0
 1192 255 1222 271 1227 274 c 1
 1227 232 l 1
 1207 232 l 1
 1207 168 l 1
 1187 168 l 1
 1207 149 l 1
 1178 89 1168 3 1168 -62 c 1
 1146 -62 l 1
 1108 -103 l 1
 1108 -105 1108 -107 1108 -109 c 0
 1108 -131 1083 -190 1067 -199 c 1
 1027 -157 l 1
 1025 -148 1025 -136 1025 -125 c 0
 1025 -103 1027 -79 1036 -62 c 1
 1027 -62 l 1
 986 -20 l 1
 967 -42 l 1
 969 -88 l 2
 969 -109 960 -132 947 -148 c 1
 925 -125 l 1
 925 -32 886 24 886 42 c 1
 847 40 840 -18 840 -69 c 0
 840 -96 844 -122 844 -132 c 1
 837 -92 825 -50 825 -7 c 1
 807 -7 l 1
 784 13 l 1
 784 -20 l 1
 766 -20 l 1
 746 -6 l 1
 739 -7 l 1
 739 -53 l 1
 698 -74 l 1
 698 -53 l 1
 680 -33 l 1
 668 -33 l 1
 643 -50 645 -87 645 -113 c 1
 598 -32 l 1
 598 -35 601 -41 601 -44 c 0
 601 -70 589 -99 578 -118 c 1
 578 -113 l 1
 558 -113 l 1
 538 -70 l 1
 547 -11 l 1
 538 -11 l 1
 538 -42 505 -59 497 -87 c 1
 497 -76 l 1
 487 -87 457 -144 455 -144 c 1
 459 -74 l 1
 457 -74 455 -74 453 -74 c 0
 443 -74 438 -76 429 -76 c 0
 425 -76 418 -76 411 -72 c 1
 403 -90 l 1
 385 -83 l 1
 394 -111 l 1
 388 -114 385 -114 378 -114 c 0
 362 -114 344 -107 334 -103 c 1
 324 -123 l 1
 298 -136 l 1
 262 -120 l 1
 228 -129 l 1
 188 -109 l 1
 153 -118 l 1
 116 -101 l 1
 90 -113 l 1
 97 -94 l 1
EndSplineSet
EndChar

StartChar: three
Encoding: 21 51 58
Width: 1117
VWidth: 2308
Flags: HW
LayerCount: 2
Fore
SplineSet
438 441 m 1
 438 529 l 1
 454 550 l 1
 528 550 l 1
 548 534 l 1
 548 550 l 1
 583 601 607 636 607 700 c 2
 607 743 l 1
 568 786 l 1
 528 765 l 1
 528 786 l 1
 507 765 l 1
 524 765 l 1
 495 754 519 743 467 743 c 1
 487 723 l 1
 465 696 452 664 428 638 c 1
 288 638 l 1
 288 660 l 1
 248 617 l 1
 207 638 l 1
 207 617 l 1
 187 596 l 1
 106 596 l 1
 106 617 l 1
 148 617 l 1
 126 638 l 1
 87 1101 l 1
 67 1101 l 1
 65 1102 65 1106 65 1110 c 0
 65 1134 89 1173 106 1185 c 1
 106 1220 167 1213 167 1250 c 1
 196 1250 259 1375 507 1375 c 0
 513 1375 542 1359 548 1355 c 1
 568 1375 l 1
 616 1375 660 1355 709 1355 c 1
 862 1257 1008 1125 1008 925 c 2
 1008 743 l 2
 1008 658 950 582 950 513 c 1
 926 483 l 1
 936 468 996 354 996 343 c 2
 996 216 l 1
 976 216 l 1
 976 140 952 131 915 70 c 1
 915 31 855 2 855 -78 c 1
 834 -66 l 1
 834 -78 l 1
 828 -74 799 -57 795 -57 c 0
 767 -57 744 -78 716 -78 c 1
 716 -57 l 1
 655 -57 l 1
 655 -78 l 1
 635 -78 l 1
 614 -57 l 1
 614 -78 l 1
 533 -78 l 1
 491 -103 l 1
 433 -99 l 1
 354 -15 l 1
 354 31 297 91 273 129 c 1
 273 175 l 1
 259 186 l 1
 253 175 l 1
 233 175 l 1
 233 201 273 207 273 237 c 1
 299 237 333 244 354 258 c 1
 554 258 l 1
 554 281 l 1
 576 281 l 1
 576 216 l 1
 594 197 l 1
 576 175 l 1
 576 156 596 153 611 153 c 2
 614 153 l 1
 639 133 l 1
 675 133 l 1
 716 197 l 1
 716 237 l 1
 693 258 l 1
 693 369 l 1
 675 348 l 1
 655 369 l 1
 593 369 528 372 465 378 c 1
 472 389 l 1
 463 380 l 1
 438 441 l 1
EndSplineSet
EndChar

StartChar: eight
Encoding: 26 56 59
Width: 963
VWidth: 2308
Flags: HW
LayerCount: 2
Fore
SplineSet
402 1379 m 0
 551 1379 883 1382 883 1169 c 0
 883 979 776 534 778 534 c 1
 772 534 765 540 763 545 c 1
 763 490 728 474 682 453 c 1
 748 453 763 378 763 327 c 0
 763 242 743 158 743 74 c 1
 723 46 686 -57 644 -57 c 0
 641 -57 641 -57 639 -57 c 1
 646 -64 l 1
 628 -70 610 -76 592 -76 c 0
 588 -76 584 -74 581 -74 c 1
 581 -53 l 1
 565 -70 l 1
 535 -57 496 -32 463 -32 c 0
 439 -32 421 -157 421 -178 c 1
 402 -178 398 -150 398 -120 c 0
 398 -96 400 -74 402 -64 c 1
 385 -48 l 1
 385 -69 l 1
 365 -69 l 2
 352 -69 335 -62 322 -59 c 1
 326 -53 l 1
 284 -53 245 50 225 79 c 1
 225 165 205 247 205 332 c 0
 205 383 219 459 286 459 c 1
 240 476 205 494 205 550 c 1
 196 540 l 1
 185 542 l 1
 185 580 85 984 85 1174 c 0
 85 1333 277 1379 402 1379 c 0
542 327 m 1
 511 360 461 328 440 369 c 1
 440 327 402 383 402 306 c 1
 382 306 l 1
 382 284 l 1
 400 284 403 256 403 230 c 0
 403 209 402 188 402 179 c 2
 402 138 l 1
 459 138 472 140 521 116 c 1
 514 116 l 1
 521 105 l 1
 521 125 529 144 542 158 c 1
 542 232 l 2
 542 242 546 244 551 244 c 0
 555 244 558 244 562 244 c 1
 562 265 540 258 540 299 c 0
 540 306 540 315 542 327 c 1
521 566 m 1
 521 579 l 1
 544 575 l 1
 538 564 l 1
 542 559 l 1
 542 590 564 553 564 617 c 0
 564 645 558 675 558 703 c 0
 558 710 564 721 570 724 c 1
 562 730 560 743 560 756 c 0
 560 759 562 765 562 768 c 1
 525 804 483 774 440 811 c 1
 440 789 l 1
 402 789 l 1
 421 768 l 1
 402 768 l 1
 402 761 l 2
 402 756 403 750 405 747 c 1
 409 749 l 1
 421 749 421 684 421 673 c 2
 421 642 l 1
 402 623 l 1
 421 623 l 1
 421 601 l 1
 426 601 520 575 521 566 c 1
565 -70 m 1
 579 -74 l 1
 562 -74 l 1
 565 -70 l 1
EndSplineSet
EndChar

StartChar: bracketleft
Encoding: 60 91 60
Width: 856
VWidth: 2308
Flags: HW
LayerCount: 2
Fore
SplineSet
753 1591 m 1
 732 1570 l 1
 755 1549 l 1
 795 1549 l 1
 795 1290 l 1
 815 1290 l 1
 804 1281 794 1268 788 1254 c 1
 795 1211 l 1
 699 1226 l 1
 694 1236 l 1
 676 1226 525 1218 480 1215 c 1
 462 1229 l 1
 449 1194 l 1
 465 1174 l 1
 458 1152 l 1
 467 1152 l 1
 438 1117 l 1
 444 1111 454 1110 463 1110 c 0
 465 1110 469 1110 471 1110 c 1
 451 1090 l 1
 458 800 463 511 467 221 c 1
 479 203 497 199 517 199 c 0
 561 199 602 209 646 209 c 0
 670 209 692 205 711 195 c 1
 716 207 l 1
 856 207 l 1
 834 162 l 1
 812 162 l 1
 832 142 l 1
 812 142 l 1
 804 93 760 57 753 7 c 1
 713 7 l 1
 690 -15 l 1
 709 -35 l 1
 669 -35 l 1
 651 7 l 1
 632 7 l 1
 632 -64 l 1
 613 -64 l 1
 615 -44 l 1
 597 -22 l 1
 576 -22 l 1
 574 -44 l 1
 554 -44 l 2
 539 -44 535 -27 535 -11 c 0
 535 0 537 13 539 21 c 1
 521 42 l 1
 480 42 l 1
 458 21 l 1
 458 -22 l 1
 395 -22 l 1
 397 -2 l 1
 336 -2 l 1
 335 -18 310 -24 294 -24 c 0
 289 -24 285 -22 281 -22 c 1
 285 -30 l 1
 268 -30 l 1
 268 -46 254 -51 240 -51 c 1
 228 -50 l 1
 210 -30 l 1
 143 358 l 1
 163 378 l 1
 145 378 l 1
 126 400 l 1
 148 441 l 1
 128 441 l 1
 130 457 132 476 132 492 c 0
 132 543 122 596 124 645 c 2
 126 693 l 1
 165 693 l 1
 165 712 143 715 126 715 c 1
 136 728 150 752 150 772 c 0
 150 774 150 776 150 777 c 1
 132 777 l 1
 138 851 147 946 147 1032 c 0
 147 1067 145 1101 141 1130 c 1
 156 1148 139 1169 178 1194 c 1
 156 1213 l 1
 156 1586 l 1
 182 1605 l 1
 206 1607 l 1
 219 1607 222 1598 222 1586 c 1
 231 1589 261 1602 270 1602 c 0
 405 1596 541 1589 676 1589 c 0
 701 1589 727 1591 753 1591 c 1
EndSplineSet
EndChar

StartChar: bracketright
Encoding: 62 93 61
Width: 862
VWidth: 2308
Flags: HW
LayerCount: 2
Fore
SplineSet
635 1586 m 1
 660 1607 l 1
 695 1586 l 1
 695 1213 l 1
 681 1194 l 1
 705 1178 709 1173 709 1148 c 0
 709 1036 714 888 727 777 c 1
 707 777 l 1
 707 776 707 774 707 772 c 0
 707 752 720 728 732 715 c 1
 693 693 l 1
 733 693 l 1
 735 647 l 2
 737 579 727 508 729 441 c 1
 709 441 l 1
 733 400 l 1
 714 378 l 1
 695 378 l 1
 714 358 l 1
 722 -30 l 1
 713 -33 678 -53 670 -53 c 0
 642 -53 611 -48 589 -30 c 1
 574 -30 l 1
 579 -22 l 1
 554 -9 516 0 484 0 c 0
 475 0 468 -2 462 -2 c 1
 464 -22 l 1
 204 -22 l 1
 204 -25 l 1
 193 -25 l 1
 173 -6 l 1
 169 -6 l 1
 169 7 l 1
 147 7 l 1
 148 5 148 3 148 2 c 0
 148 -2 143 -7 138 -7 c 0
 136 -7 134 -7 132 -6 c 1
 123 -18 106 -27 92 -32 c 1
 110 -15 l 1
 88 7 l 1
 48 7 l 1
 48 142 l 1
 27 142 l 1
 46 162 l 1
 25 162 l 1
 32 207 l 1
 143 207 l 1
 147 195 l 1
 165 205 191 209 220 209 c 0
 263 209 313 201 357 201 c 0
 377 201 394 203 410 207 c 1
 419 221 l 1
 426 399 427 575 427 752 c 0
 427 863 414 979 407 1090 c 1
 389 1110 l 1
 408 1110 l 1
 419 1117 l 1
 390 1152 l 1
 401 1152 l 1
 394 1171 l 1
 410 1194 l 1
 398 1229 l 1
 377 1215 l 1
 331 1220 182 1226 164 1236 c 1
 160 1226 l 1
 64 1226 l 1
 71 1270 l 1
 62 1270 l 1
 44 1290 l 1
 64 1290 l 1
 64 1549 l 1
 102 1549 l 1
 125 1570 l 1
 106 1591 l 1
 204 1591 329 1604 445 1604 c 0
 514 1604 580 1598 635 1586 c 1
EndSplineSet
EndChar

StartChar: acute
Encoding: 108 180 62
Width: 931
VWidth: 2308
Flags: HW
LayerCount: 2
Fore
SplineSet
252 1616 m 1
 616 1885 l 1
 628 1843 678 1816 685 1785 c 2
 688 1771 l 1
 670 1767 674 1749 678 1734 c 1
 679 1727 l 1
 695 1716 704 1713 709 1692 c 1
 722 1695 l 1
 715 1670 l 1
 735 1676 l 1
 759 1660 l 1
 769 1622 l 1
 783 1644 l 1
 801 1650 l 1
 806 1628 818 1611 829 1591 c 1
 372 1473 l 2
 370 1473 354 1469 354 1473 c 1
 311 1463 l 1
 313 1458 l 1
 169 1419 l 1
 164 1442 141 1465 134 1493 c 0
 115 1569 211 1587 252 1616 c 1
EndSplineSet
EndChar

StartChar: grave
Encoding: 65 96 64
Width: 944
VWidth: 2308
Flags: HW
LayerCount: 2
Fore
SplineSet
810 1495 m 0
 802 1465 782 1443 777 1421 c 1
 633 1458 l 1
 633 1463 l 1
 592 1475 l 1
 590 1469 575 1473 573 1473 c 2
 114 1589 l 1
 126 1609 137 1626 142 1648 c 1
 161 1642 l 1
 174 1620 l 1
 184 1659 l 1
 209 1674 l 1
 228 1670 l 1
 221 1694 l 1
 235 1690 l 1
 240 1711 247 1716 264 1727 c 1
 265 1734 l 1
 269 1748 273 1766 255 1771 c 1
 258 1785 l 2
 265 1813 316 1843 325 1884 c 1
 691 1618 l 1
 734 1589 830 1570 810 1495 c 0
EndSplineSet
EndChar

StartChar: period
Encoding: 16 46 65
Width: 778
VWidth: 2308
Flags: HW
LayerCount: 2
Fore
SplineSet
340 94 m 1
 299 94 l 2
 275 94 242 96 222 77 c 1
 222 89 212 94 203 94 c 1
 192 86 185 74 170 74 c 1
 170 242 154 395 131 561 c 1
 119 573 100 597 80 597 c 1
 98 614 l 1
 110 614 122 610 133 610 c 0
 148 610 161 617 168 631 c 1
 305 631 l 1
 349 656 465 656 507 656 c 0
 560 656 616 634 664 634 c 1
 664 596 666 422 641 422 c 1
 650 415 662 406 675 406 c 1
 655 96 l 1
 639 114 l 1
 620 114 l 2
 607 114 585 100 572 100 c 0
 539 100 559 118 511 118 c 0
 479 118 360 114 340 94 c 1
EndSplineSet
EndChar

StartChar: comma
Encoding: 14 44 66
Width: 751
VWidth: 2308
Flags: HW
LayerCount: 2
Fore
SplineSet
580 -264 m 1
 388 -271 l 1
 385 -254 383 -236 383 -219 c 0
 383 -186 388 -155 388 -123 c 1
 396 -127 l 1
 396 -76 399 -62 416 -11 c 1
 414 -13 l 1
 432 77 l 1
 385 79 322 74 278 100 c 1
 142 81 l 1
 142 86 140 98 132 102 c 1
 126 98 l 1
 108 114 l 1
 107 128 105 138 105 151 c 0
 105 311 125 476 125 638 c 1
 138 638 151 627 158 617 c 1
 175 617 180 640 217 640 c 0
 306 640 394 612 485 612 c 0
 532 612 513 631 545 631 c 0
 560 631 578 615 593 615 c 2
 612 615 l 1
 628 634 l 1
 643 418 l 2
 643 415 643 409 643 406 c 0
 643 378 647 352 648 325 c 1
 643 325 l 1
 643 308 l 1
 631 304 l 1
 631 291 643 271 643 267 c 0
 643 234 638 203 638 170 c 1
 636 151 l 1
 638 146 643 118 643 114 c 2
 580 -264 l 1
EndSplineSet
EndChar

StartChar: circumflex
Encoding: 299 710 67
Width: 1139
VWidth: 2308
Flags: HW
LayerCount: 2
Fore
SplineSet
924 1314 m 1
 867 1357 620 1607 564 1663 c 1
 492 1591 419 1519 344 1451 c 1
 339 1452 l 1
 310 1423 l 1
 314 1419 l 1
 207 1314 l 1
 191 1327 l 1
 184 1324 l 1
 168 1335 107 1380 89 1380 c 1
 365 1941 l 1
 393 1941 439 1934 474 1934 c 0
 483 1934 490 1934 499 1936 c 1
 513 1926 l 1
 553 1926 596 1929 636 1932 c 1
 634 1934 l 1
 673 1939 714 1947 754 1947 c 1
 773 1945 l 1
 766 1941 l 1
 1064 1423 l 1
 946 1324 l 1
 940 1327 l 1
 924 1314 l 1
497 1939 m 1
 497 1939 499 1938 499 1936 c 1
 502 1939 l 1
 497 1939 l 1
494 1941 m 1
 497 1939 l 1
 494 1939 494 1939 494 1941 c 1
EndSplineSet
EndChar

StartChar: caron
Encoding: 300 711 72
Width: 1048
VWidth: 2308
Flags: HW
LayerCount: 2
Fore
SplineSet
515 1598 m 1
 638 1718 701 1880 838 1983 c 1
 854 1971 l 1
 859 1974 l 1
 1014 1838 l 1
 716 1320 l 1
 723 1317 l 1
 704 1314 l 1
 664 1314 623 1322 585 1327 c 1
 585 1329 l 1
 544 1331 504 1335 463 1335 c 1
 449 1324 l 1
 443 1326 434 1327 423 1327 c 0
 388 1327 336 1320 316 1320 c 1
 39 1880 l 1
 57 1880 168 1959 191 1974 c 1
 196 1971 l 1
 212 1983 l 1
 319 1878 l 1
 316 1875 l 1
 345 1845 l 1
 349 1847 l 1
 393 1760 452 1674 515 1598 c 1
452 1322 m 1
 451 1322 451 1324 449 1324 c 1
 449 1324 446 1322 446 1320 c 1
 446 1322 451 1322 452 1322 c 1
EndSplineSet
EndChar

StartChar: dotlessi
Encoding: 223 305 73
Width: 881
VWidth: 2308
Flags: HW
LayerCount: 2
Fore
SplineSet
491 -7 m 1
 492 -7 l 1
 492 19 478 35 452 35 c 0
 417 35 394 -6 373 -27 c 1
 312 -25 325 297 312 352 c 0
 276 505 240 652 240 811 c 0
 240 883 251 953 251 1025 c 1
 271 1025 l 1
 211 1150 l 2
 188 1196 88 1218 91 1289 c 0
 91 1290 91 1292 91 1296 c 1
 50 1320 l 1
 61 1340 l 1
 32 1320 l 1
 14 1340 l 1
 141 1340 264 1382 391 1382 c 1
 411 1361 l 1
 465 1361 517 1382 572 1382 c 1
 619 1340 765 1357 834 1340 c 1
 807 1317 753 1273 753 1235 c 1
 772 1235 l 1
 734 1194 710 1141 691 1088 c 1
 712 1067 l 1
 672 929 633 767 633 623 c 0
 633 580 653 540 653 498 c 1
 640 483 635 459 633 439 c 1
 612 457 l 1
 612 426 633 400 633 371 c 1
 592 352 l 1
 610 352 614 332 614 317 c 0
 614 201 592 86 592 -27 c 1
 609 -27 612 -46 612 -60 c 0
 612 -64 612 -69 612 -70 c 1
 594 -66 577 -55 572 -37 c 1
 572 -50 l 1
 544 -51 l 1
 520 -53 487 -44 487 -20 c 0
 487 -16 489 -13 491 -7 c 1
EndSplineSet
EndChar

StartChar: ogonek
Encoding: 304 731 74
Width: 750
VWidth: 2308
Flags: HW
LayerCount: 2
Fore
SplineSet
173 633 m 1
 365 640 l 1
 369 623 370 605 370 588 c 0
 370 555 365 524 365 492 c 1
 358 496 l 1
 358 445 354 431 337 380 c 1
 339 382 l 1
 321 292 l 1
 313 247 324 75 386 -3 c 1
 436 -27 l 1
 436 -27 451 -35 568 -35 c 1
 622 -33 l 1
 645 -25 l 1
 647 -39 648 -49 648 -62 c 0
 648 -130 629 -200 629 -269 c 1
 615 -269 603 -258 595 -248 c 1
 578 -248 573 -271 536 -271 c 0
 179 -271 110 -93 110 102 c 0
 110 135 116 166 116 199 c 1
 117 218 l 1
 116 223 110 251 110 255 c 2
 173 633 l 1
EndSplineSet
EndChar

StartChar: cedilla
Encoding: 112 184 76
Width: 564
VWidth: 2308
Flags: HW
LayerCount: 2
Fore
SplineSet
430 -621 m 1
 300 -621 l 1
 298 -616 296 -602 296 -591 c 0
 296 -570 300 -547 300 -525 c 1
 304 -527 l 1
 304 -492 307 -483 318 -447 c 1
 316 -447 l 1
 330 -387 l 1
 295 -385 254 -389 223 -370 c 1
 128 -384 l 1
 128 -382 126 -368 123 -368 c 0
 121 -368 121 -370 119 -372 c 1
 106 -361 l 1
 105 -354 103 -343 103 -336 c 0
 114 -223 117 -114 117 0 c 1
 126 0 134 -7 140 -13 c 1
 149 -13 158 2 178 2 c 0
 241 2 302 -16 365 -16 c 0
 399 -16 386 -6 407 -6 c 0
 420 -6 432 -15 448 -15 c 0
 449 -15 451 -15 453 -15 c 1
 464 -2 l 1
 475 -151 l 2
 475 -155 475 -159 475 -164 c 0
 475 -180 476 -199 479 -215 c 1
 475 -215 l 1
 475 -227 l 1
 467 -231 l 1
 475 -256 l 1
 469 -322 l 2
 469 -326 467 -330 467 -333 c 0
 467 -336 469 -336 469 -336 c 1
 469 -339 475 -359 475 -361 c 2
 430 -621 l 1
EndSplineSet
EndChar

StartChar: OE
Encoding: 253 338 77
Width: 1723
VWidth: 2308
Flags: HW
LayerCount: 2
Fore
SplineSet
179 170 m 1
 200 170 l 1
 200 265 139 332 139 439 c 0
 139 596 80 741 80 885 c 1
 58 907 l 1
 80 890 l 1
 80 894 80 898 80 902 c 0
 80 918 78 935 75 951 c 1
 67 946 l 1
 58 949 l 1
 80 972 l 1
 58 990 l 1
 58 1196 309 1370 500 1370 c 1
 520 1349 l 1
 541 1370 l 1
 576 1370 606 1349 640 1349 c 1
 661 1370 l 1
 687 1349 l 1
 801 1364 917 1370 1031 1370 c 0
 1243 1370 1455 1349 1663 1312 c 1
 1607 1264 1496 984 1481 909 c 1
 1482 911 l 1
 1482 848 1463 786 1463 723 c 1
 1336 723 1193 787 1060 787 c 1
 1060 617 l 1
 1042 596 l 1
 1081 617 l 1
 1262 617 l 2
 1291 617 1315 594 1346 594 c 0
 1352 594 1355 594 1361 596 c 1
 1361 555 1339 365 1322 343 c 1
 1310 346 1273 365 1262 365 c 2
 1081 365 l 1
 1042 343 l 1
 1042 216 l 1
 1060 197 l 1
 1060 237 l 1
 1243 237 l 2
 1289 237 1329 214 1382 214 c 0
 1389 214 1396 214 1403 216 c 1
 1403 162 1361 125 1361 77 c 0
 1361 2 1357 -92 1317 -150 c 1
 1322 -225 l 1
 1282 -267 l 1
 1262 -225 l 1
 1269 -213 1302 -79 1302 -74 c 0
 1302 -2 1299 28 1221 28 c 0
 1183 28 1138 -50 1123 -81 c 1
 1058 -81 1060 -74 1060 -15 c 1
 1042 5 l 1
 1042 -22 1051 -87 1051 -150 c 0
 1051 -219 1039 -287 981 -287 c 1
 981 50 l 1
 965 65 932 72 904 72 c 0
 870 72 838 33 838 -18 c 0
 838 -24 840 -32 842 -35 c 1
 826 -57 808 -177 803 -210 c 1
 784 -180 780 -150 780 -118 c 0
 780 -96 782 -74 782 -50 c 1
 754 -18 l 1
 742 -20 l 1
 687 -76 679 -96 679 -138 c 0
 679 -157 680 -178 680 -210 c 1
 640 -250 l 1
 606 -250 599 -210 599 -171 c 0
 599 -153 601 -136 601 -125 c 0
 601 -88 598 2 546 2 c 0
 469 2 458 -78 458 -146 c 0
 458 -173 460 -199 460 -217 c 1
 453 -231 l 1
 402 -231 401 -116 401 -83 c 0
 401 -24 297 7 258 42 c 1
 261 40 261 39 261 35 c 0
 261 28 253 19 246 19 c 0
 244 19 242 21 240 22 c 1
 258 42 l 1
 230 77 179 120 179 170 c 1
620 339 m 1
 640 360 l 1
 640 527 l 2
 640 588 620 601 620 678 c 0
 620 684 620 689 620 696 c 1
 581 759 l 1
 581 782 555 780 541 780 c 1
 541 802 l 1
 520 802 l 1
 520 791 513 780 500 780 c 1
 500 759 l 1
 480 759 l 1
 441 696 l 1
 441 642 419 621 419 550 c 0
 419 520 419 487 441 464 c 1
 419 464 l 1
 419 446 423 444 441 444 c 1
 441 339 l 1
 462 317 464 234 480 234 c 1
 499 210 502 170 541 170 c 0
 596 170 620 274 620 317 c 1
 601 317 l 1
 601 339 l 1
 620 339 l 1
EndSplineSet
EndChar

StartChar: oe
Encoding: 254 339 78
Width: 1711
VWidth: 2308
Flags: HW
LayerCount: 2
Fore
SplineSet
218 155 m 1
 220 155 l 1
 220 244 94 826 72 955 c 1
 65 951 l 1
 57 953 l 1
 78 975 l 1
 57 975 l 1
 57 1018 l 1
 67 1016 l 1
 74 1030 80 1049 80 1065 c 0
 80 1071 78 1076 78 1080 c 1
 59 1080 l 1
 102 1092 171 1375 558 1375 c 1
 558 1355 l 1
 579 1375 l 1
 620 1375 658 1355 699 1355 c 1
 699 1375 l 1
 736 1375 771 1362 804 1345 c 1
 898 1355 994 1362 1088 1362 c 0
 1276 1362 1464 1338 1648 1303 c 1
 1601 1255 1488 1076 1488 1018 c 0
 1488 992 1486 964 1467 946 c 1
 1469 935 1469 923 1469 912 c 0
 1469 835 1443 741 1427 671 c 1
 1390 689 1331 714 1304 714 c 0
 1276 714 1246 715 1228 733 c 1
 1184 733 1140 733 1095 741 c 1
 1068 566 l 1
 1327 566 l 1
 1327 418 l 2
 1327 406 1293 291 1286 271 c 1
 1228 313 l 1
 1047 313 l 1
 1027 293 l 1
 1027 144 l 1
 1047 129 l 1
 1066 151 l 1
 1047 188 l 1
 1151 186 1256 166 1368 166 c 1
 1368 144 l 2
 1368 120 1348 89 1348 61 c 1
 1340 54 1325 40 1325 31 c 1
 1348 19 l 1
 1348 17 1349 17 1349 17 c 1
 1349 9 1327 5 1327 -2 c 2
 1327 -22 l 1
 1348 -44 l 1
 1323 -72 1327 -114 1327 -150 c 1
 1309 -127 l 1
 1286 -127 l 1
 1286 -66 l 1
 1267 -44 l 1
 1167 -44 l 2
 1135 -44 1110 -66 1075 -66 c 0
 1070 -66 1062 -66 1056 -64 c 1
 1027 -87 l 1
 987 -44 l 1
 987 -22 l 1
 971 -16 935 -2 920 -2 c 0
 913 -2 872 -4 872 -20 c 0
 872 -22 874 -22 874 -24 c 1
 866 -22 l 1
 866 -44 l 1
 837 -72 l 1
 837 -141 l 1
 818 -141 l 1
 793 -118 l 1
 799 -83 l 1
 799 -60 783 -35 760 -35 c 1
 760 -37 762 -39 762 -41 c 0
 762 -48 756 -59 750 -59 c 0
 748 -59 748 -57 746 -53 c 1
 719 -78 l 1
 699 -62 l 1
 699 -99 l 1
 671 -122 l 1
 574 -94 649 5 558 5 c 0
 540 5 518 -4 507 -20 c 1
 498 -15 l 1
 454 -66 l 1
 410 -66 422 39 354 39 c 0
 341 39 294 19 278 15 c 1
 273 75 218 84 218 155 c 1
679 365 m 1
 658 385 l 1
 658 408 l 2
 658 427 665 435 679 448 c 1
 679 513 l 2
 679 550 658 582 658 621 c 0
 658 668 646 787 577 787 c 2
 539 787 l 1
 539 765 l 1
 518 765 l 1
 481 724 458 675 458 617 c 2
 458 448 l 2
 458 443 465 431 468 427 c 1
 458 427 l 1
 458 365 l 2
 458 348 467 334 479 323 c 1
 479 281 509 207 539 175 c 1
 558 175 l 2
 627 175 625 249 636 260 c 1
 638 323 l 1
 658 323 l 1
 658 365 l 1
 679 365 l 1
78 912 m 1
 57 912 l 1
 57 933 l 1
 78 912 l 1
78 892 m 1
 57 892 l 1
 61 902 l 1
 78 892 l 1
EndSplineSet
EndChar

StartChar: ae
Encoding: 152 230 79
Width: 1639
VWidth: 2308
Flags: HW
LayerCount: 2
Fore
SplineSet
689 -120 m 1
 645 -83 l 1
 608 -107 l 1
 585 -105 l 1
 604 -76 l 1
 604 -39 615 -4 615 33 c 1
 597 22 l 1
 580 42 l 1
 595 42 l 1
 551 105 l 1
 518 100 l 1
 492 114 l 1
 472 83 l 1
 476 86 479 86 481 86 c 0
 490 86 494 72 494 63 c 0
 494 61 492 61 492 61 c 1
 486 61 479 65 477 65 c 1
 474 54 l 1
 477 9 l 1
 455 -24 l 1
 453 -24 453 -25 453 -25 c 1
 448 -25 446 -4 439 -4 c 0
 423 -4 425 -92 425 -97 c 0
 425 -107 411 -138 407 -148 c 1
 385 -127 l 1
 385 -169 361 -169 328 -169 c 1
 326 -148 l 1
 251 -164 l 1
 217 -129 214 -81 214 -32 c 0
 214 -18 216 -6 216 5 c 0
 216 19 214 31 214 42 c 0
 214 44 216 44 217 44 c 0
 221 44 226 40 230 40 c 1
 234 63 l 1
 197 207 l 1
 228 207 234 267 234 291 c 1
 214 271 l 1
 210 341 l 1
 210 390 223 499 235 545 c 1
 217 545 l 1
 223 559 252 625 252 636 c 0
 252 708 219 776 219 848 c 0
 219 874 232 903 256 916 c 1
 235 990 219 1062 219 1139 c 1
 235 1157 l 1
 36 1322 l 1
 31 1322 l 1
 35 1359 439 1388 625 1388 c 0
 630 1388 662 1370 667 1366 c 1
 733 1386 805 1389 875 1389 c 0
 1113 1389 1345 1335 1582 1308 c 1
 1535 1263 1421 1082 1421 1025 c 0
 1421 999 1419 972 1401 951 c 1
 1403 940 1403 929 1403 916 c 0
 1403 839 1377 747 1360 677 c 1
 1325 691 1264 719 1237 719 c 0
 1211 719 1179 721 1161 739 c 1
 1086 739 1019 752 945 761 c 1
 960 724 963 687 963 649 c 0
 963 623 962 597 960 571 c 1
 1260 571 l 1
 1260 424 l 2
 1260 411 1225 297 1220 276 c 1
 1161 319 l 1
 981 319 l 1
 960 299 l 1
 960 149 l 1
 981 135 l 1
 999 156 l 1
 981 193 l 1
 1084 192 1188 172 1301 172 c 1
 1301 149 l 2
 1301 125 1281 94 1281 66 c 1
 1274 59 1259 46 1259 37 c 1
 1281 24 l 1
 1281 22 1283 22 1283 22 c 1
 1283 15 1260 12 1260 3 c 2
 1260 -16 l 1
 1281 -39 l 1
 1257 -66 1260 -109 1260 -144 c 1
 1242 -122 l 1
 1220 -122 l 1
 1220 -60 l 1
 1200 -39 l 1
 1100 -39 l 2
 1069 -39 1044 -60 1008 -60 c 0
 1002 -60 995 -60 990 -59 c 1
 960 -81 l 1
 919 -39 l 1
 919 -16 l 1
 905 -13 870 3 857 3 c 0
 782 3 833 -129 785 -136 c 1
 770 -122 l 1
 747 -125 l 1
 729 -105 l 1
 685 -123 l 1
 689 -120 l 1
485 418 m 1
 466 418 l 1
 468 395 474 371 474 346 c 0
 474 327 466 306 453 291 c 1
 455 271 l 1
 474 291 l 1
 594 291 l 1
 592 319 592 348 588 376 c 0
 588 380 576 392 576 397 c 0
 576 411 585 424 585 439 c 1
 583 457 590 524 558 524 c 1
 576 545 l 1
 558 545 l 1
 575 564 l 1
 557 564 l 1
 555 586 l 1
 566 586 573 596 573 606 c 1
 553 606 l 1
 548 708 l 1
 531 606 485 525 485 418 c 1
782 -136 m 1
 785 -136 l 1
 791 -141 l 1
 782 -136 l 1
684 -125 m 2
 684 -123 684 -123 685 -123 c 2
 684 -125 l 2
EndSplineSet
EndChar

StartChar: dieresis
Encoding: 102 168 83
Width: 1370
VWidth: 2308
Flags: HW
LayerCount: 2
Fore
SplineSet
869 1497 m 0
 853 1497 836 1498 821 1504 c 1
 821 1521 819 1521 802 1521 c 1
 792 1514 784 1500 770 1500 c 1
 768 1850 l 2
 768 1855 755 1882 753 1887 c 1
 772 1904 l 1
 788 1901 l 1
 797 1902 802 1913 804 1920 c 1
 923 1920 l 1
 952 1941 1018 1947 1052 1947 c 0
 1118 1947 1208 1928 1208 1906 c 0
 1208 1852 1206 1713 1184 1713 c 1
 1194 1705 1206 1695 1219 1695 c 1
 1199 1497 l 1
 1182 1515 l 1
 1164 1515 l 2
 1155 1515 1125 1500 1116 1500 c 0
 1094 1500 1107 1517 1076 1517 c 0
 1006 1517 937 1497 869 1497 c 0
431 1904 m 0
 462 1904 449 1920 471 1920 c 0
 501 1920 528 1904 559 1904 c 0
 563 1904 567 1906 572 1906 c 1
 574 1725 l 1
 570 1725 568 1725 568 1722 c 0
 568 1720 568 1718 568 1714 c 0
 568 1713 568 1711 567 1709 c 1
 570 1709 576 1709 576 1704 c 0
 576 1635 563 1567 563 1497 c 1
 512 1497 458 1491 406 1491 c 2
 346 1491 l 2
 334 1491 324 1493 315 1500 c 1
 222 1500 l 1
 218 1497 l 1
 215 1498 207 1500 202 1500 c 0
 200 1500 198 1500 197 1500 c 0
 195 1507 190 1512 183 1512 c 0
 176 1512 169 1507 162 1504 c 1
 158 1563 154 1622 154 1681 c 0
 154 1757 162 1834 162 1910 c 1
 172 1910 183 1908 195 1908 c 0
 211 1908 213 1908 213 1924 c 1
 218 1920 225 1919 232 1919 c 0
 252 1919 270 1926 290 1926 c 0
 331 1926 382 1904 431 1904 c 0
EndSplineSet
EndChar

StartChar: Scaron
Encoding: 267 352 109
Width: 1087
VWidth: 2308
Flags: HW
LayerCount: 2
Fore
SplineSet
998 660 m 1
 1018 660 l 1
 998 638 l 1
 998 660 l 1
374 -57 m 1
 374 -37 l 1
 397 -57 l 1
 416 -57 l 1
 416 -79 l 1
 455 -125 l 1
 455 -94 435 -66 435 -35 c 1
 537 -35 l 1
 537 -62 l 1
 557 -83 l 1
 560 -76 576 -48 576 -42 c 0
 576 -41 571 -39 571 -35 c 1
 618 -35 l 1
 631 -33 634 -32 636 -30 c 1
 636 -57 l 1
 620 -79 618 -114 618 -141 c 2
 618 -162 l 1
 636 -162 l 1
 636 -132 634 -101 657 -79 c 1
 657 -57 l 1
 736 -16 l 1
 796 -57 l 1
 736 -57 l 1
 736 -60 754 -90 757 -97 c 1
 796 -79 l 1
 796 -64 l 1
 820 -64 l 1
 817 -35 l 1
 857 28 l 1
 857 98 957 160 957 216 c 1
 938 236 l 2
 940 234 942 234 944 234 c 0
 963 234 972 313 972 323 c 0
 972 496 724 615 576 615 c 1
 557 596 l 1
 557 615 l 1
 516 615 476 684 476 721 c 1
 496 743 l 1
 496 765 l 1
 502 768 531 786 537 786 c 2
 576 786 l 1
 618 743 l 1
 636 765 l 1
 634 747 631 726 631 708 c 0
 631 682 640 660 676 660 c 2
 837 660 l 1
 837 680 l 1
 898 638 l 1
 919 660 l 2
 920 660 922 661 924 661 c 0
 947 661 1003 623 1018 615 c 1
 1038 638 l 1
 1038 660 l 1
 1018 660 l 1
 1018 814 1038 967 1038 1122 c 1
 1058 1122 l 1
 1058 1143 l 1
 1009 1196 946 1236 898 1290 c 1
 891 1281 l 1
 782 1357 727 1375 595 1375 c 1
 581 1361 135 1312 135 1122 c 1
 74 1018 l 1
 74 951 54 883 54 813 c 0
 54 568 129 483 335 385 c 1
 356 406 l 1
 372 376 419 362 455 362 c 0
 463 362 470 362 476 363 c 1
 494 343 523 337 550 339 c 2
 618 343 l 1
 618 300 l 1
 636 281 l 1
 636 258 l 1
 657 237 l 1
 625 205 597 177 557 153 c 1
 537 153 l 1
 537 172 522 177 507 177 c 1
 496 175 l 1
 496 258 l 1
 478 258 474 273 474 290 c 1
 476 300 l 1
 455 281 l 1
 406 281 341 290 279 290 c 0
 203 290 133 276 94 216 c 1
 117 216 l 2
 129 216 135 212 135 192 c 0
 135 153 173 102 196 70 c 1
 198 37 251 -13 275 -35 c 1
 310 -35 317 -74 345 -74 c 0
 352 -74 369 -60 374 -57 c 1
552 1971 m 1
 675 2091 738 2253 875 2356 c 1
 891 2344 l 1
 896 2347 l 1
 1051 2211 l 1
 753 1693 l 1
 760 1690 l 1
 741 1687 l 1
 701 1687 660 1695 622 1700 c 1
 622 1702 l 1
 581 1704 541 1708 500 1708 c 1
 486 1697 l 1
 480 1699 471 1700 460 1700 c 0
 425 1700 373 1693 353 1693 c 1
 76 2253 l 1
 94 2253 205 2332 228 2347 c 1
 233 2344 l 1
 249 2356 l 1
 356 2251 l 1
 353 2248 l 1
 382 2218 l 1
 386 2220 l 1
 430 2133 489 2047 552 1971 c 1
489 1695 m 1
 488 1695 488 1697 486 1697 c 1
 486 1697 483 1695 483 1693 c 1
 483 1695 488 1695 489 1695 c 1
EndSplineSet
EndChar

StartChar: AE
Encoding: 120 198 122
Width: 1593
VWidth: 2308
Flags: HW
LayerCount: 2
Fore
SplineSet
598 -87 m 1
 554 -111 l 1
 554 -140 545 -168 535 -194 c 1
 531 -132 l 2
 531 -123 551 -78 554 -66 c 1
 535 -46 l 1
 556 12 l 1
 554 17 l 1
 512 17 533 100 461 100 c 1
 433 81 l 1
 433 79 436 77 438 77 c 0
 443 77 446 79 448 81 c 1
 454 59 l 1
 446 59 l 1
 435 44 429 22 429 2 c 0
 429 -7 431 -18 433 -25 c 1
 409 -25 422 -6 394 -6 c 1
 394 -243 l 1
 373 -201 373 -155 373 -107 c 1
 328 -151 l 1
 313 -151 l 1
 313 -111 l 1
 293 -88 l 1
 273 -111 l 1
 297 -169 l 1
 293 -171 l 1
 293 -178 295 -185 295 -190 c 0
 295 -213 290 -238 282 -260 c 1
 251 -219 l 1
 255 -219 255 -213 255 -208 c 0
 255 -134 232 -42 232 42 c 0
 232 105 197 174 197 239 c 0
 197 247 223 302 227 311 c 1
 212 311 l 1
 236 360 l 1
 220 374 210 397 210 418 c 2
 212 480 l 1
 232 480 l 1
 212 501 l 1
 212 538 232 570 232 606 c 1
 212 627 l 1
 218 642 234 678 234 691 c 0
 234 851 212 1012 212 1174 c 1
 214 1173 216 1171 220 1171 c 0
 227 1171 236 1180 236 1189 c 0
 236 1206 169 1235 144 1238 c 1
 153 1238 l 1
 121 1270 74 1287 33 1301 c 1
 86 1336 783 1370 901 1370 c 0
 1113 1370 1326 1349 1534 1312 c 1
 1474 1264 1366 984 1351 909 c 1
 1353 911 l 1
 1353 848 1333 786 1333 723 c 1
 1205 723 1064 787 931 787 c 1
 931 617 l 1
 913 596 l 1
 951 617 l 1
 1131 617 l 2
 1161 617 1185 594 1217 594 c 0
 1222 594 1226 594 1231 596 c 1
 1231 553 1211 365 1192 343 c 1
 1180 346 1143 365 1131 365 c 2
 951 365 l 1
 913 343 l 1
 913 216 l 1
 914 212 922 195 927 195 c 0
 929 195 929 195 931 197 c 1
 931 237 l 1
 1113 237 l 2
 1159 237 1200 214 1252 214 c 0
 1259 214 1266 214 1273 216 c 1
 1263 190 1254 160 1254 133 c 1
 1246 133 l 1
 1231 111 l 1
 1231 31 1235 -83 1187 -150 c 1
 1192 -225 l 1
 1152 -267 l 1
 1131 -225 l 1
 1139 -213 1173 -79 1173 -74 c 0
 1173 -2 1168 28 1091 28 c 0
 1052 28 1008 -50 994 -81 c 1
 929 -81 931 -74 931 -15 c 1
 913 5 l 1
 913 -22 922 -87 922 -150 c 0
 922 -219 909 -287 851 -287 c 1
 851 50 l 1
 835 65 802 72 774 72 c 0
 741 72 721 46 714 17 c 1
 733 17 l 1
 707 -37 689 -276 654 -276 c 1
 656 -278 656 -280 656 -284 c 0
 656 -291 649 -303 643 -303 c 0
 642 -303 640 -303 638 -301 c 2
 614 -267 l 1
 614 -258 l 1
 636 -236 636 -210 636 -180 c 1
 654 -151 l 1
 636 -132 l 1
 614 -159 l 1
 598 -87 l 1
433 459 m 1
 454 459 l 1
 454 437 422 380 413 354 c 1
 494 354 l 2
 507 354 545 354 553 343 c 1
 547 409 535 476 535 543 c 1
 540 543 l 1
 535 545 533 561 533 575 c 0
 533 588 533 601 535 606 c 1
 512 627 l 1
 535 633 l 1
 535 649 l 1
 533 649 529 647 527 647 c 0
 514 647 512 687 512 715 c 0
 512 726 512 735 512 739 c 1
 503 649 454 570 454 480 c 1
 433 481 l 1
 433 459 l 1
573 -403 m 1
 554 -403 l 1
 554 -363 l 2
 554 -326 586 -280 593 -241 c 1
 593 -299 l 2
 593 -306 580 -322 579 -338 c 1
 573 -359 573 -382 573 -403 c 1
535 13 m 2
 535 17 l 1
 538 17 l 2
 536 17 535 15 535 13 c 2
EndSplineSet
EndChar

StartChar: Zcaron
Encoding: 294 381 123
Width: 1516
VWidth: 2308
Flags: HW
LayerCount: 2
Fore
SplineSet
107 1310 m 1
 81 1283 l 1
 88 1174 278 1056 278 680 c 1
 297 660 l 1
 318 660 l 1
 297 638 l 1
 436 723 l 1
 487 723 527 765 579 765 c 2
 698 765 l 1
 693 743 678 714 658 700 c 1
 658 651 558 640 558 490 c 1
 538 490 l 1
 538 448 l 1
 498 408 l 1
 517 408 l 1
 517 363 l 1
 496 363 l 2
 484 363 479 360 479 339 c 2
 479 323 l 1
 464 306 459 281 459 258 c 1
 436 258 l 1
 407 207 354 138 354 98 c 0
 354 65 361 24 378 5 c 1
 398 5 l 1
 398 -4 403 -15 459 -22 c 1
 459 -33 l 1
 479 -42 l 1
 477 -30 l 2
 477 -24 482 -18 498 -15 c 1
 498 5 l 1
 538 28 l 1
 605 28 623 3 623 -33 c 1
 637 -33 l 1
 637 -15 l 1
 656 -11 676 -6 695 -6 c 0
 767 -6 833 -35 899 -57 c 1
 899 -50 879 -41 879 -33 c 1
 899 -53 l 1
 920 -53 l 1
 1019 70 l 1
 999 91 l 1
 1019 133 l 1
 1059 153 l 1
 1064 197 l 1
 1059 216 l 1
 993 262 786 258 719 258 c 1
 739 281 l 1
 739 302 l 1
 779 323 l 1
 759 343 l 1
 779 343 l 1
 798 363 l 1
 795 367 792 371 792 374 c 0
 792 385 825 385 825 397 c 0
 825 400 823 404 820 408 c 1
 839 427 l 1
 837 429 835 431 835 435 c 0
 835 443 844 452 851 452 c 0
 853 452 857 450 858 448 c 1
 879 468 l 1
 879 490 l 1
 960 575 l 1
 960 596 l 1
 999 617 l 1
 1001 614 1002 612 1002 612 c 1
 1013 612 1029 680 1080 680 c 1
 1080 700 l 1
 1089 700 1098 698 1106 698 c 0
 1111 698 1115 698 1120 700 c 1
 1139 723 l 1
 1139 743 l 1
 1145 743 1164 741 1164 732 c 0
 1164 730 1164 728 1163 726 c 1
 1273 851 1331 1021 1421 1165 c 1
 1423 1202 1497 1245 1520 1270 c 1
 1391 1270 1279 1336 1154 1336 c 0
 1135 1336 1119 1335 1101 1333 c 1
 1101 1355 l 1
 1027 1355 953 1375 879 1375 c 2
 658 1375 l 1
 661 1371 663 1368 663 1364 c 0
 663 1359 656 1355 647 1355 c 0
 640 1355 632 1359 632 1364 c 0
 632 1368 633 1371 637 1375 c 1
 459 1375 l 2
 337 1375 227 1324 107 1310 c 1
786 1971 m 1
 909 2091 972 2253 1109 2356 c 1
 1125 2344 l 1
 1130 2347 l 1
 1285 2211 l 1
 987 1693 l 1
 994 1690 l 1
 975 1687 l 1
 935 1687 894 1695 856 1700 c 1
 856 1702 l 1
 815 1704 775 1708 734 1708 c 1
 720 1697 l 1
 714 1699 705 1700 694 1700 c 0
 659 1700 607 1693 587 1693 c 1
 310 2253 l 1
 328 2253 439 2332 462 2347 c 1
 467 2344 l 1
 483 2356 l 1
 590 2251 l 1
 587 2248 l 1
 616 2218 l 1
 620 2220 l 1
 664 2133 723 2047 786 1971 c 1
723 1695 m 1
 722 1695 722 1697 720 1697 c 1
 720 1697 717 1695 717 1693 c 1
 717 1695 722 1695 723 1695 c 1
EndSplineSet
EndChar

StartChar: zcaron
Encoding: 295 382 124
Width: 1352
VWidth: 2308
Flags: HW
LayerCount: 2
Fore
SplineSet
332 660 m 1
 312 640 l 1
 312 623 l 1
 353 660 l 1
 371 660 l 1
 371 715 609 765 653 765 c 2
 688 765 l 1
 646 747 613 705 613 658 c 0
 613 652 613 645 615 640 c 1
 589 640 571 573 553 555 c 1
 553 470 l 1
 534 470 l 1
 517 453 509 411 509 378 c 0
 509 363 511 352 513 343 c 1
 493 343 l 1
 493 323 l 1
 472 323 l 1
 458 260 l 1
 472 237 l 1
 453 237 l 1
 443 193 419 147 393 112 c 1
 393 28 l 1
 428 -16 l 1
 432 -15 l 1
 432 -33 434 -64 453 -78 c 1
 497 -51 l 1
 509 -55 l 1
 513 -35 l 1
 493 -35 l 1
 513 -15 l 1
 518 -16 524 -16 530 -16 c 0
 561 -16 583 7 592 7 c 0
 611 7 634 5 634 -18 c 0
 634 -25 633 -35 633 -41 c 0
 633 -50 636 -55 653 -55 c 2
 673 -55 l 1
 653 -35 l 1
 793 -35 l 2
 836 -35 873 -55 915 -55 c 1
 913 -64 912 -78 912 -90 c 0
 912 -105 915 -120 933 -120 c 2
 954 -120 l 1
 952 -116 952 -113 952 -109 c 0
 952 -74 994 -20 994 7 c 2
 994 72 l 1
 974 91 l 1
 994 91 l 1
 994 133 l 1
 1014 155 l 1
 1035 155 l 1
 1014 177 l 1
 1035 197 l 1
 1014 197 l 1
 1014 218 l 1
 977 218 949 237 915 237 c 2
 733 237 l 2
 729 237 699 221 694 218 c 1
 694 237 l 1
 708 237 715 244 715 258 c 2
 714 282 l 1
 733 260 l 1
 754 302 l 1
 752 306 752 309 752 315 c 0
 752 328 759 343 773 343 c 1
 754 365 l 1
 773 365 l 1
 773 387 l 1
 793 387 l 1
 793 429 l 1
 814 429 l 1
 814 448 l 1
 834 448 l 1
 834 513 l 1
 854 507 l 1
 854 540 895 538 895 597 c 1
 915 597 l 1
 933 617 l 1
 933 640 l 1
 965 640 974 677 974 703 c 1
 1014 703 l 1
 1035 723 l 1
 1035 765 l 1
 1055 745 l 1
 1070 745 1125 856 1134 870 c 1
 1134 1139 1274 1159 1274 1290 c 1
 1256 1290 l 1
 1256 1312 l 1
 1195 1335 l 1
 1174 1312 l 1
 1155 1312 l 1
 1155 1335 l 1
 1109 1353 1062 1355 1016 1355 c 0
 996 1355 974 1355 954 1355 c 1
 954 1377 l 1
 572 1377 l 1
 572 1355 l 1
 553 1355 l 1
 553 1377 l 1
 393 1377 l 2
 286 1377 184 1312 71 1312 c 1
 104 1182 224 1071 253 933 c 0
 274 833 279 743 312 643 c 1
 312 660 l 1
 332 660 l 1
675 1598 m 1
 798 1718 861 1880 998 1983 c 1
 1014 1971 l 1
 1019 1974 l 1
 1174 1838 l 1
 876 1320 l 1
 883 1317 l 1
 864 1314 l 1
 824 1314 783 1322 745 1327 c 1
 745 1329 l 1
 704 1331 664 1335 623 1335 c 1
 609 1324 l 1
 603 1326 594 1327 583 1327 c 0
 548 1327 496 1320 476 1320 c 1
 199 1880 l 1
 217 1880 328 1959 351 1974 c 1
 356 1971 l 1
 372 1983 l 1
 479 1878 l 1
 476 1875 l 1
 505 1845 l 1
 509 1847 l 1
 553 1760 612 1674 675 1598 c 1
612 1322 m 1
 611 1322 611 1324 609 1324 c 1
 609 1324 606 1322 606 1320 c 1
 606 1322 611 1322 612 1322 c 1
EndSplineSet
EndChar

StartChar: colon
Encoding: 28 58 125
Width: 804
VWidth: 2308
Flags: HW
LayerCount: 2
Fore
SplineSet
417 1045 m 1
 422 1032 l 1
 411 1032 398 1034 387 1034 c 0
 371 1034 347 1032 336 1018 c 1
 293 1014 247 1011 208 993 c 1
 216 1008 l 1
 204 1016 l 1
 195 1006 183 995 169 992 c 1
 172 1115 l 1
 172 1161 149 1213 149 1263 c 0
 149 1301 153 1342 176 1375 c 1
 140 1377 144 1471 120 1471 c 0
 118 1471 116 1471 114 1469 c 1
 113 1495 98 1519 72 1524 c 1
 94 1535 l 1
 107 1532 122 1528 135 1528 c 0
 151 1528 164 1537 169 1554 c 1
 208 1552 249 1551 288 1551 c 0
 299 1551 391 1574 402 1583 c 1
 553 1578 547 1569 669 1556 c 1
 671 1539 673 1523 673 1506 c 0
 673 1465 658 1426 658 1388 c 0
 658 1375 660 1361 665 1345 c 1
 658 1347 l 1
 653 1347 645 1345 640 1344 c 1
 649 1336 660 1329 671 1327 c 1
 677 1045 l 1
 656 1038 638 1036 617 1036 c 0
 603 1036 588 1025 573 1025 c 0
 531 1025 475 1045 417 1045 c 1
411 114 m 1
 422 111 l 1
 410 111 398 112 385 112 c 0
 359 112 347 83 322 83 c 0
 299 83 276 89 253 89 c 0
 236 89 218 84 212 68 c 1
 216 83 l 1
 199 96 l 1
 192 84 179 74 166 74 c 1
 183 183 l 1
 139 284 149 383 129 489 c 1
 129 487 l 1
 127 494 l 2
 125 498 125 501 125 505 c 0
 125 518 129 534 129 545 c 0
 129 580 104 590 76 605 c 1
 100 615 148 608 160 631 c 1
 166 631 380 651 394 661 c 1
 464 652 535 668 603 643 c 1
 610 647 l 1
 623 638 638 631 654 631 c 0
 658 631 663 631 667 633 c 1
 658 597 645 559 645 522 c 0
 645 487 658 453 671 422 c 1
 660 426 l 1
 653 422 644 420 636 420 c 1
 649 413 660 406 675 406 c 1
 649 103 l 1
 638 112 l 1
 617 114 l 2
 614 114 579 100 573 98 c 1
 545 107 549 125 518 125 c 0
 483 125 446 118 411 114 c 1
EndSplineSet
EndChar

StartChar: semicolon
Encoding: 29 59 126
Width: 783
VWidth: 2308
Flags: HW
LayerCount: 2
Fore
SplineSet
592 -287 m 1
 393 -267 l 1
 388 -240 386 -203 386 -175 c 0
 386 -164 386 -148 391 -138 c 1
 391 -123 l 1
 393 -134 l 1
 395 -111 399 -18 421 -9 c 1
 432 77 l 1
 391 81 323 75 287 98 c 1
 145 81 l 1
 145 84 145 103 136 103 c 0
 134 103 130 102 128 100 c 1
 117 111 108 125 101 140 c 1
 112 181 126 228 126 273 c 1
 124 284 l 1
 131 330 145 378 145 426 c 0
 145 466 119 508 119 543 c 0
 119 575 122 605 124 636 c 1
 131 636 l 2
 147 636 150 617 163 617 c 0
 182 617 187 636 198 649 c 1
 246 634 309 614 358 614 c 0
 368 614 377 614 384 619 c 1
 388 599 l 1
 425 603 523 636 539 636 c 0
 556 636 585 615 597 615 c 2
 615 615 l 1
 644 636 l 1
 644 418 l 1
 646 418 l 1
 648 413 655 399 655 395 c 0
 655 371 653 348 652 325 c 1
 646 325 l 1
 646 308 l 1
 632 300 l 1
 634 295 646 271 646 267 c 0
 646 239 643 197 641 170 c 1
 639 170 l 1
 639 166 639 160 639 156 c 0
 639 153 639 149 639 149 c 1
 637 149 637 149 637 151 c 2
 652 102 l 1
 639 86 598 -238 592 -287 c 1
312 1027 m 1
 312 1029 309 1029 307 1029 c 0
 292 1029 226 981 175 979 c 1
 180 990 185 1001 194 1011 c 1
 184 1016 l 1
 176 1008 163 999 150 999 c 2
 145 999 l 1
 156 1119 l 1
 139 1122 138 1183 138 1194 c 0
 138 1231 143 1268 157 1301 c 1
 145 1301 141 1314 141 1329 c 0
 141 1345 147 1366 148 1371 c 1
 112 1386 121 1454 117 1486 c 1
 93 1469 l 1
 93 1486 75 1528 54 1528 c 1
 73 1533 l 1
 112 1524 l 1
 147 1565 256 1563 326 1563 c 0
 347 1563 366 1581 379 1596 c 1
 421 1591 467 1589 508 1579 c 1
 519 1583 528 1587 539 1587 c 0
 574 1587 620 1549 657 1537 c 1
 652 1530 646 1519 646 1510 c 0
 646 1491 657 1473 657 1451 c 0
 657 1423 650 1396 646 1368 c 1
 646 1370 644 1370 643 1370 c 0
 639 1370 637 1368 637 1364 c 0
 637 1357 644 1345 646 1344 c 2
 637 1347 l 1
 632 1344 622 1344 616 1344 c 1
 650 1329 l 1
 650 1062 l 1
 616 1034 l 1
 606 1036 597 1036 585 1036 c 0
 569 1036 544 1029 535 1029 c 0
 517 1029 488 1043 463 1043 c 0
 414 1043 360 1039 312 1027 c 1
353 1034 m 1
 366 1034 l 1
 366 1034 370 1036 372 1036 c 0
 377 1036 379 1034 382 1032 c 1
 353 1034 l 1
653 94 m 1
 652 102 l 2
 653 102 653 94 653 94 c 1
EndSplineSet
EndChar

StartChar: Oslash
Encoding: 138 216 127
Width: 1356
VWidth: 2308
Flags: HW
LayerCount: 2
Fore
SplineSet
-48 -113 m 1
 -37 -94 l 1
 -39 -94 -39 -90 -39 -88 c 0
 -39 -62 -9 -70 -9 -48 c 0
 -9 -46 -11 -46 -13 -46 c 0
 -20 -46 -48 -59 -54 -62 c 1
 -52 -60 l 1
 -55 -59 l 1
 -20 -16 15 28 54 68 c 0
 156 174 282 256 381 365 c 0
 387 371 404 385 404 397 c 2
 404 397 404 397 404 399 c 1
 506 499 1216 1202 1343 1264 c 1
 1336 1246 l 1
 1315 1246 l 1
 1320 1238 l 1
 1345 1241 l 1
 1343 1231 l 1
 1350 1233 l 1
 1364 1218 l 1
 1294 1143 1220 1074 1137 1012 c 1
 1141 1001 l 1
 1109 964 518 402 488 385 c 1
 488 390 l 1
 483 390 483 381 479 376 c 1
 481 376 l 1
 431 327 l 1
 414 327 13 -60 -48 -113 c 1
485 381 m 1
 485 380 l 1
 483 378 481 378 481 376 c 1
 486 380 l 2
 486 381 488 383 488 385 c 1
 488 383 486 383 485 381 c 1
729 -123 m 1
 730 -118 l 2
 730 -120 730 -122 729 -123 c 1
 729 -127 l 1
 721 -144 703 -159 690 -159 c 0
 657 -159 649 -157 649 -159 c 1
 649 -146 651 -134 651 -125 c 0
 651 -88 648 2 596 2 c 0
 524 2 509 -60 507 -125 c 1
 505 -129 502 -134 502 -138 c 1
 452 -138 451 -97 451 -83 c 0
 451 -24 345 7 308 42 c 1
 308 22 l 1
 290 22 l 1
 308 42 l 1
 279 77 229 120 229 170 c 1
 250 170 l 1
 250 274 189 350 189 468 c 0
 189 615 130 749 130 885 c 1
 108 907 l 1
 130 890 l 1
 124 951 l 1
 117 946 l 1
 108 949 l 1
 130 972 l 1
 108 990 l 1
 108 1196 359 1370 550 1370 c 1
 570 1349 l 1
 591 1370 l 1
 625 1370 655 1349 690 1349 c 1
 711 1370 l 1
 753 1327 834 1312 891 1307 c 1
 931 1264 l 1
 931 1287 l 1
 952 1287 l 1
 950 1264 l 1
 970 1243 l 1
 952 1222 l 1
 966 1222 1035 1217 1035 1191 c 0
 1035 1187 1033 1185 1031 1182 c 1
 1072 1137 l 1
 1052 1137 l 1
 1052 1080 1050 993 1092 949 c 1
 1063 949 1052 927 1052 905 c 0
 1052 886 1057 868 1066 856 c 1
 1059 844 1050 826 1050 811 c 0
 1050 807 1050 805 1052 802 c 1
 1072 802 l 1
 1072 789 l 2
 1072 737 1072 422 1011 422 c 1
 1011 380 992 337 992 295 c 1
 1011 295 l 1
 963 227 l 1
 970 212 l 1
 964 151 929 89 891 42 c 1
 891 -13 869 -62 852 -118 c 1
 838 -118 830 -122 829 -127 c 1
 829 -96 832 -66 832 -55 c 0
 832 -44 820 -18 804 -18 c 1
 792 -20 l 1
 742 -70 730 -90 729 -123 c 1
670 339 m 1
 690 360 l 1
 690 527 l 2
 690 588 670 601 670 678 c 2
 670 696 l 1
 631 759 l 1
 631 782 605 780 591 780 c 1
 591 802 l 1
 570 802 l 1
 570 791 563 780 550 780 c 1
 550 759 l 1
 530 759 l 1
 491 696 l 1
 491 642 469 621 469 550 c 0
 469 520 469 487 491 464 c 1
 469 464 l 1
 469 446 473 444 491 444 c 1
 491 339 l 1
 512 317 514 234 530 234 c 1
 548 210 552 170 591 170 c 0
 646 170 670 274 670 317 c 1
 651 317 l 1
 651 339 l 1
 670 339 l 1
509 -120 m 1
 509 -122 507 -125 507 -129 c 2
 507 -125 l 2
 507 -123 509 -122 509 -120 c 1
EndSplineSet
EndChar

StartChar: fraction
Encoding: 322 8260 128
Width: 793
VWidth: 2308
Flags: HW
LayerCount: 2
Fore
SplineSet
451 -7 m 1
 452 -7 l 1
 452 19 438 35 412 35 c 0
 377 35 354 -6 333 -27 c 1
 272 -25 285 297 272 352 c 0
 236 505 200 652 200 811 c 0
 200 883 211 953 211 1025 c 1
 231 1025 l 1
 171 1150 l 2
 148 1196 48 1218 51 1289 c 0
 51 1290 51 1292 51 1296 c 1
 10 1320 l 1
 21 1340 l 1
 -8 1320 l 1
 -26 1340 l 1
 101 1340 224 1382 351 1382 c 1
 371 1361 l 1
 425 1361 477 1382 532 1382 c 1
 579 1340 725 1357 794 1340 c 1
 767 1317 713 1273 713 1235 c 1
 732 1235 l 1
 694 1194 670 1141 651 1088 c 1
 672 1067 l 1
 632 929 593 767 593 623 c 0
 593 580 613 540 613 498 c 1
 600 483 595 459 593 439 c 1
 572 457 l 1
 572 426 593 400 593 371 c 1
 552 352 l 1
 570 352 574 332 574 317 c 0
 574 201 552 86 552 -27 c 1
 569 -27 572 -46 572 -60 c 0
 572 -64 572 -69 572 -70 c 1
 554 -66 537 -55 532 -37 c 1
 532 -50 l 1
 504 -51 l 1
 480 -53 447 -44 447 -20 c 0
 447 -16 449 -13 451 -7 c 1
EndSplineSet
EndChar

StartChar: slash
Encoding: 17 47 129
Width: 597
VWidth: 2308
Flags: HW
LayerCount: 2
Fore
SplineSet
102 -186 m 1
 89 -162 l 1
 75 -162 68 -157 68 -150 c 0
 68 -138 80 -122 80 -111 c 0
 80 -109 78 -103 76 -103 c 0
 63 -103 26 -144 12 -151 c 1
 15 -141 24 -127 24 -118 c 1
 13 -141 l 1
 6 -144 l 1
 -11 -144 -18 -132 -18 -118 c 0
 -18 35 124 223 124 341 c 1
 105 369 l 1
 221 804 l 1
 275 846 318 967 318 1036 c 1
 344 1058 l 1
 340 1182 l 1
 373 1241 400 1331 427 1396 c 1
 430 1414 l 1
 481 1467 l 1
 497 1451 l 1
 462 1438 l 1
 465 1436 469 1436 472 1436 c 0
 489 1436 511 1445 522 1449 c 1
 534 1440 l 1
 552 1449 l 1
 598 1442 l 1
 576 1375 564 1366 564 1290 c 0
 564 1248 509 1154 489 1115 c 1
 518 1108 l 1
 508 1049 362 638 330 547 c 1
 334 562 l 1
 321 538 l 1
 325 524 327 513 327 501 c 0
 327 459 299 443 283 400 c 1
 284 406 l 1
 281 417 l 1
 279 406 l 2
 277 395 279 325 270 325 c 0
 238 325 209 91 150 7 c 1
 154 2 154 -2 154 -6 c 0
 154 -18 152 -32 144 -42 c 1
 144 -48 144 -51 144 -55 c 0
 144 -103 117 -138 102 -186 c 1
EndSplineSet
EndChar

StartChar: oslash
Encoding: 169 248 130
Width: 1455
VWidth: 2308
Flags: HW
LayerCount: 2
Fore
SplineSet
-18 -39 m 1
 -7 -20 l 2
 -8 -20 -8 -16 -8 -15 c 0
 -8 12 20 3 20 26 c 0
 20 28 19 28 17 28 c 0
 10 28 -18 15 -24 12 c 2
 -22 13 l 1
 -25 15 l 1
 10 57 45 102 83 142 c 1
 187 247 312 330 412 439 c 0
 417 444 434 459 434 470 c 2
 434 470 434 470 434 472 c 1
 537 573 1246 1275 1374 1338 c 1
 1366 1320 l 1
 1346 1320 l 1
 1350 1312 l 1
 1376 1314 l 1
 1374 1305 l 1
 1381 1307 l 1
 1394 1292 l 1
 1324 1217 1250 1148 1167 1086 c 1
 1171 1074 l 1
 1140 1038 548 476 518 459 c 1
 518 464 l 1
 513 464 513 455 509 450 c 1
 511 450 l 1
 461 400 l 1
 444 400 43 13 -18 -39 c 1
515 455 m 1
 516 457 518 457 518 459 c 1
 518 457 516 455 516 453 c 1
 511 450 l 1
 511 452 513 452 515 453 c 1
 515 455 l 1
242 155 m 1
 244 155 l 1
 244 201 214 276 201 323 c 0
 145 522 131 750 96 955 c 1
 89 951 l 1
 82 953 l 1
 102 975 l 1
 82 975 l 1
 82 997 l 1
 85 997 l 1
 82 1018 l 1
 91 1016 l 1
 98 1030 104 1049 104 1065 c 0
 104 1071 102 1076 102 1080 c 1
 83 1080 l 1
 126 1092 196 1375 583 1375 c 1
 583 1355 l 1
 604 1375 l 1
 644 1375 683 1355 723 1355 c 1
 723 1375 l 1
 808 1375 919 1301 983 1250 c 1
 1003 1270 l 1
 1005 1254 l 1
 987 1250 l 1
 1024 1227 l 1
 1005 1208 l 1
 1012 1194 1047 1165 1066 1165 c 0
 1068 1165 1068 1165 1070 1165 c 1
 1123 1102 l 1
 1109 1102 l 1
 1103 1078 1103 1053 1103 1027 c 0
 1103 1001 1103 975 1105 953 c 1
 1123 933 l 1
 1123 876 1105 822 1105 765 c 1
 1123 765 l 1
 1100 594 1066 464 1005 302 c 0
 989 260 963 219 963 175 c 1
 983 155 l 1
 950 155 929 96 924 70 c 1
 869 13 863 -25 863 -83 c 0
 863 -101 863 -120 863 -141 c 1
 843 -141 l 2
 822 -141 819 -131 819 -116 c 0
 819 -99 824 -79 824 -69 c 0
 824 -48 801 -37 784 -35 c 1
 784 -55 l 1
 771 -53 l 1
 743 -78 l 1
 723 -60 l 1
 723 -99 l 1
 695 -122 l 1
 597 -105 677 5 583 5 c 0
 557 5 542 -20 530 -20 c 0
 528 -20 524 -18 522 -15 c 1
 478 -66 l 1
 458 -35 419 39 379 39 c 0
 369 39 314 19 303 15 c 1
 298 75 242 84 242 155 c 1
703 365 m 1
 683 385 l 1
 683 408 l 2
 683 427 690 435 703 448 c 1
 703 513 l 2
 703 534 699 559 683 575 c 1
 683 621 l 2
 683 669 671 787 602 787 c 2
 563 787 l 1
 563 765 l 1
 542 765 l 1
 506 724 481 675 481 617 c 2
 481 448 l 2
 481 441 488 431 493 427 c 1
 481 427 l 1
 481 365 l 2
 481 348 491 334 504 323 c 1
 504 281 533 207 563 175 c 1
 583 175 l 2
 646 175 664 239 664 293 c 0
 664 304 664 313 662 323 c 1
 683 323 l 1
 683 365 l 1
 703 365 l 1
102 912 m 1
 82 912 l 1
 82 933 l 1
 102 912 l 1
102 892 m 1
 82 892 l 1
 85 902 l 1
 102 892 l 1
EndSplineSet
EndChar

StartChar: hyphen
Encoding: 15 45 131
Width: 1028
VWidth: 2308
Flags: HW
LayerCount: 2
Fore
SplineSet
277 542 m 1
 211 584 l 1
 211 570 206 557 188 557 c 0
 165 557 143 570 124 584 c 1
 137 896 l 1
 404 896 l 1
 404 883 415 879 426 879 c 0
 452 879 478 890 505 890 c 0
 539 890 575 892 612 892 c 0
 655 892 697 888 736 876 c 1
 740 890 l 1
 929 890 l 1
 878 767 l 1
 872 770 l 1
 881 743 l 1
 872 745 l 1
 867 721 865 696 865 673 c 0
 865 651 867 627 867 603 c 0
 867 580 865 561 860 540 c 1
 758 536 l 1
 760 550 l 1
 760 562 755 582 737 582 c 1
 730 580 l 1
 756 559 l 1
 716 553 681 552 640 552 c 0
 637 552 623 553 607 553 c 0
 589 553 568 550 568 542 c 0
 568 540 568 538 570 536 c 1
 544 534 l 1
 540 542 l 1
 526 542 515 540 515 559 c 2
 515 566 l 1
 540 545 l 1
 544 566 l 1
 515 566 l 1
 517 575 l 1
 489 571 l 1
 485 545 l 1
 476 543 463 540 454 540 c 2
 277 542 l 1
EndSplineSet
EndChar

StartChar: zero
Encoding: 18 48 132
Width: 1110
VWidth: 2308
Flags: HW
LayerCount: 2
Fore
SplineSet
118 912 m 1
 97 912 l 1
 97 933 l 1
 118 912 l 1
 112 955 l 1
 104 951 l 1
 97 953 l 1
 118 975 l 1
 97 975 l 1
 97 997 l 1
 101 997 l 1
 97 1018 l 1
 106 1016 l 1
 114 1030 120 1049 120 1065 c 0
 120 1071 118 1076 118 1080 c 1
 99 1080 l 1
 136 1092 193 1375 525 1375 c 1
 525 1355 l 1
 545 1375 l 1
 586 1375 624 1355 665 1355 c 1
 665 1375 l 1
 733 1375 822 1296 869 1250 c 1
 890 1270 l 1
 892 1254 l 1
 873 1250 l 1
 910 1227 l 1
 892 1208 l 1
 899 1194 934 1165 952 1165 c 0
 954 1165 954 1165 957 1165 c 1
 1010 1102 l 1
 995 1102 l 1
 989 1078 989 1053 989 1027 c 0
 989 1001 989 975 991 953 c 1
 1010 933 l 1
 1010 876 1008 821 991 765 c 1
 1010 765 l 1
 1006 706 984 422 967 385 c 0
 939 325 886 242 886 175 c 1
 906 155 l 1
 873 155 853 96 848 70 c 1
 801 39 805 19 805 -32 c 1
 785 -32 l 1
 760 -11 l 1
 755 -25 741 -35 726 -35 c 1
 726 -55 l 1
 713 -53 l 1
 685 -78 l 1
 665 -62 l 1
 665 -99 l 1
 637 -122 l 1
 604 -114 558 -105 525 -105 c 0
 489 -105 482 12 473 12 c 0
 442 12 442 -44 420 -66 c 1
 375 -62 390 39 320 39 c 0
 311 39 255 19 245 15 c 1
 239 77 183 83 183 155 c 1
 185 155 l 1
 185 192 165 309 153 343 c 0
 129 408 120 824 118 892 c 1
 118 912 l 1
644 365 m 1
 624 385 l 1
 624 408 l 2
 624 427 632 435 644 448 c 1
 644 513 l 2
 644 534 641 559 624 575 c 1
 624 621 l 2
 624 669 614 787 543 787 c 2
 505 787 l 1
 505 765 l 1
 484 765 l 1
 447 724 424 675 424 617 c 2
 424 448 l 2
 424 441 429 431 435 427 c 1
 424 427 l 1
 424 365 l 2
 424 348 433 334 445 323 c 1
 445 281 475 207 505 175 c 1
 525 175 l 2
 588 175 606 239 606 293 c 0
 606 304 606 313 604 323 c 1
 624 323 l 1
 624 365 l 1
 644 365 l 1
118 892 m 1
 97 892 l 1
 101 902 l 1
 118 892 l 1
EndSplineSet
EndChar

StartChar: plus
Encoding: 13 43 133
Width: 950
VWidth: 2308
Flags: HW
LayerCount: 2
Fore
SplineSet
345 840 m 1
 345 890 l 2
 345 949 338 1012 334 1071 c 1
 412 1074 l 1
 408 1069 l 1
 435 1078 l 1
 433 1069 l 1
 454 1064 476 1062 498 1062 c 0
 521 1062 540 1064 563 1064 c 0
 583 1064 602 1062 620 1056 c 1
 623 955 l 1
 609 955 609 909 609 902 c 2
 609 831 l 1
 638 831 665 830 693 830 c 0
 743 830 800 840 852 844 c 1
 850 813 848 590 837 559 c 1
 736 555 l 1
 730 577 l 1
 702 571 674 570 644 570 c 0
 635 570 627 570 618 570 c 1
 618 559 618 550 618 538 c 0
 618 476 614 413 614 350 c 1
 593 321 l 1
 338 321 l 1
 338 559 l 1
 268 559 201 564 131 564 c 1
 102 584 l 1
 102 840 l 1
 345 840 l 1
716 580 m 2
 708 580 l 1
 730 577 l 1
 727 580 721 580 716 580 c 2
EndSplineSet
EndChar

StartChar: backslash
Encoding: 61 92 134
Width: 598
VWidth: 2308
Flags: HW
LayerCount: 2
Fore
SplineSet
458 -42 m 1
 453 -33 447 -22 447 -11 c 0
 447 -4 449 2 453 7 c 1
 390 96 366 325 331 325 c 1
 321 350 323 417 321 417 c 0
 319 417 318 408 318 402 c 2
 318 400 l 1
 291 441 279 464 279 505 c 0
 279 515 279 525 281 538 c 1
 268 562 l 1
 272 547 l 1
 240 638 94 1049 84 1108 c 1
 113 1115 l 1
 75 1189 41 1238 41 1322 c 0
 41 1366 17 1401 4 1442 c 1
 50 1449 l 1
 69 1440 l 1
 80 1449 l 1
 91 1445 115 1436 126 1436 c 1
 141 1438 l 1
 106 1451 l 1
 120 1467 l 1
 173 1414 l 1
 176 1396 l 1
 201 1331 229 1241 263 1182 c 1
 259 1058 l 1
 284 1036 l 1
 284 967 327 846 381 804 c 1
 497 369 l 1
 482 367 478 352 478 341 c 0
 478 225 618 35 620 -118 c 1
 597 -144 l 1
 588 -141 l 1
 578 -118 l 1
 576 -118 574 -120 574 -122 c 0
 574 -127 587 -141 590 -151 c 1
 576 -144 539 -103 526 -103 c 0
 523 -103 523 -105 523 -109 c 0
 523 -122 534 -148 534 -153 c 0
 534 -159 519 -162 513 -162 c 1
 500 -186 l 1
 486 -138 458 -103 458 -55 c 0
 458 -51 458 -48 458 -42 c 1
319 397 m 2
 318 400 l 2
 319 399 319 399 319 397 c 2
EndSplineSet
EndChar

StartChar: underscore
Encoding: 64 95 135
Width: 964
VWidth: 2308
Flags: HW
LayerCount: 2
Fore
SplineSet
138 -39 m 1
 109 -37 l 1
 109 237 l 1
 389 237 l 1
 389 225 400 221 411 221 c 0
 456 221 505 232 557 232 c 0
 612 232 667 230 720 218 c 1
 725 232 l 1
 859 242 l 1
 850 131 l 1
 852 135 l 1
 850 121 850 107 850 94 c 0
 850 66 852 40 852 15 c 0
 852 -6 850 -25 845 -44 c 1
 743 -48 l 1
 745 -46 l 1
 745 -41 719 -41 715 -41 c 1
 741 -25 l 1
 701 -32 666 -33 625 -33 c 0
 621 -33 609 -32 592 -32 c 0
 574 -32 553 -35 553 -42 c 0
 553 -44 553 -46 555 -48 c 1
 529 -50 l 1
 527 -46 l 1
 529 -55 l 1
 500 -55 l 1
 520 -42 l 1
 505 -42 488 -48 474 -50 c 1
 470 -39 l 1
 461 -41 448 -44 439 -44 c 0
 340 -44 238 -39 138 -39 c 1
EndSplineSet
EndChar

StartChar: section
Encoding: 101 167 136
Width: 1005
VWidth: 2308
Flags: HW
LayerCount: 2
Fore
SplineSet
754 46 m 1
 754 -70 l 1
 738 -72 l 1
 732 -122 724 -144 690 -178 c 1
 690 -199 l 2
 690 -241 643 -276 627 -319 c 1
 625 -317 624 -315 622 -315 c 0
 618 -315 615 -319 615 -322 c 1
 615 -322 615 -324 616 -324 c 2
 581 -312 l 1
 522 -336 l 1
 515 -308 l 1
 460 -308 l 1
 462 -324 l 1
 444 -324 l 1
 428 -310 l 1
 428 -324 l 1
 356 -319 l 1
 354 -339 343 -357 319 -357 c 0
 304 -357 286 -352 270 -348 c 1
 272 -341 l 1
 272 -308 175 -293 175 -186 c 1
 133 -141 135 -166 135 -109 c 1
 133 -101 131 -99 129 -99 c 0
 122 -99 115 -111 105 -111 c 0
 103 -111 102 -111 100 -109 c 1
 102 -83 133 -81 135 -53 c 1
 149 -55 l 1
 221 -55 304 -37 378 -33 c 1
 374 -22 l 1
 393 -18 l 1
 390 -76 l 1
 408 -90 l 1
 395 -107 l 1
 432 -125 l 1
 432 -127 432 -129 432 -131 c 0
 432 -140 435 -148 448 -148 c 2
 481 -146 l 1
 480 -132 l 1
 480 -114 490 -99 506 -90 c 1
 515 -55 l 1
 498 -41 l 1
 489 22 l 1
 481 2 l 1
 463 19 l 1
 446 19 430 19 413 19 c 0
 390 19 365 19 339 15 c 1
 336 30 323 50 304 50 c 2
 304 50 302 50 300 50 c 1
 309 72 l 1
 290 72 l 1
 272 54 l 1
 264 54 l 2
 214 54 112 116 112 170 c 0
 112 201 57 265 57 302 c 0
 57 309 59 315 65 321 c 1
 57 341 54 362 54 383 c 0
 54 494 149 584 225 652 c 1
 203 668 l 1
 205 675 l 1
 205 793 161 925 161 1047 c 0
 161 1229 369 1389 537 1389 c 1
 553 1379 l 1
 581 1398 l 1
 631 1388 791 1359 828 1317 c 1
 830 1329 l 1
 854 1298 933 1263 933 1227 c 1
 946 1218 968 1185 968 1174 c 0
 968 1167 961 1159 953 1159 c 0
 951 1159 949 1159 948 1161 c 1
 916 1029 872 898 845 765 c 1
 804 745 l 1
 778 782 l 1
 775 765 l 1
 659 750 l 1
 634 780 624 816 601 848 c 1
 618 856 l 1
 585 858 592 861 571 881 c 1
 587 874 l 1
 568 890 l 1
 568 874 l 1
 533 888 l 1
 502 858 l 1
 496 807 l 1
 496 768 527 741 550 714 c 1
 568 728 l 1
 603 717 821 661 826 636 c 1
 821 625 817 612 817 597 c 0
 817 562 837 529 859 501 c 1
 858 404 l 1
 845 404 l 1
 840 332 817 343 784 286 c 1
 786 273 l 1
 786 246 745 192 738 149 c 1
 734 151 l 1
 723 133 715 111 715 91 c 0
 715 68 724 46 749 46 c 0
 750 46 752 46 754 46 c 1
562 225 m 1
 564 328 l 1
 573 328 583 327 590 323 c 1
 588 327 588 330 588 334 c 0
 588 367 622 374 622 399 c 0
 622 417 620 437 603 437 c 1
 596 492 l 1
 592 489 588 483 588 478 c 1
 570 496 l 1
 553 494 l 1
 529 494 507 508 483 508 c 0
 480 508 474 505 472 501 c 1
 453 513 441 525 418 525 c 1
 415 547 l 1
 408 547 l 1
 402 481 393 411 393 346 c 0
 393 311 408 290 437 276 c 1
 444 237 l 1
 446 246 453 253 462 253 c 0
 487 253 539 234 562 225 c 1
723 156 m 1
 724 156 l 1
 723 158 723 158 723 160 c 2
 723 156 l 1
EndSplineSet
EndChar

StartChar: yen
Encoding: 99 165 137
Width: 1492
VWidth: 2308
Flags: HW
LayerCount: 2
Fore
SplineSet
185 608 m 0
 164 608 143 614 122 619 c 1
 144 739 l 1
 312 739 484 730 649 728 c 1
 644 774 627 819 603 859 c 1
 579 859 557 859 533 859 c 0
 443 859 350 856 260 856 c 0
 215 856 174 865 125 865 c 1
 122 990 l 1
 524 984 l 1
 521 1071 485 1143 439 1215 c 1
 461 1215 l 1
 395 1222 377 1290 317 1299 c 1
 324 1336 l 1
 301 1340 l 1
 301 1362 l 1
 206 1454 23 1493 -61 1587 c 1
 115 1576 l 1
 122 1579 141 1581 159 1581 c 0
 183 1581 208 1579 218 1579 c 1
 201 1593 l 1
 220 1593 l 2
 251 1593 275 1569 308 1569 c 1
 319 1595 l 1
 575 1595 l 1
 563 1572 l 1
 574 1560 621 1491 621 1471 c 0
 621 1469 621 1467 621 1467 c 1
 644 1445 l 1
 662 1445 l 1
 662 1443 664 1442 664 1440 c 0
 664 1436 662 1430 662 1426 c 2
 662 1425 l 1
 746 1254 l 1
 867 1451 l 2
 869 1454 872 1465 872 1473 c 0
 872 1480 869 1488 861 1488 c 1
 863 1510 l 1
 881 1510 l 1
 880 1515 878 1523 878 1528 c 0
 878 1558 896 1586 904 1613 c 1
 918 1593 931 1586 950 1586 c 0
 957 1586 966 1587 975 1589 c 1
 1047 1552 1161 1576 1198 1549 c 1
 1313 1549 l 1
 1304 1547 l 1
 1501 1533 l 1
 1492 1500 l 1
 1342 1495 1295 1335 1246 1320 c 1
 1242 1318 l 1
 1244 1318 l 1
 1242 1312 1241 1294 1232 1294 c 0
 1228 1294 1226 1296 1223 1299 c 1
 1175 1254 1132 1198 1082 1152 c 1
 1082 1110 1079 1069 1062 1029 c 1
 1082 1020 1105 1018 1126 1018 c 0
 1138 1018 1149 1018 1160 1018 c 1
 1158 1023 l 1
 1409 1004 l 1
 1401 960 l 1
 1385 957 l 1
 1403 940 l 1
 1385 942 l 1
 1376 935 1372 930 1372 927 c 0
 1372 920 1379 914 1379 903 c 0
 1379 865 1204 872 1170 870 c 1
 1178 876 1187 883 1187 894 c 0
 1187 903 1170 907 1163 907 c 2
 1142 905 l 1
 1186 892 l 1
 1156 890 1126 888 1097 888 c 0
 1079 888 1061 888 1042 890 c 1
 1031 839 1008 786 1007 732 c 1
 1405 741 l 1
 1409 638 l 2
 1409 614 1397 606 1377 596 c 1
 1328 601 1277 605 1228 605 c 2
 996 601 l 1
 992 547 990 494 990 443 c 0
 990 345 996 246 1003 146 c 1
 996 156 971 179 962 179 c 0
 955 179 975 158 943 158 c 1
 920 205 l 1
 887 193 850 165 813 165 c 0
 806 165 797 166 790 170 c 1
 778 156 773 137 767 120 c 1
 743 137 l 1
 697 267 651 457 651 596 c 1
 623 594 596 594 570 594 c 0
 440 594 312 608 185 608 c 0
1265 1320 m 1
 1244 1318 l 1
 1265 1320 l 1
EndSplineSet
EndChar

StartChar: cent
Encoding: 97 162 138
Width: 1174
VWidth: 2308
Flags: HW
LayerCount: 2
Fore
SplineSet
447 -83 m 1
 449 -51 l 1
 408 -20 l 1
 396 -24 359 -42 348 -42 c 0
 307 -42 278 52 269 84 c 1
 289 107 l 1
 215 107 209 265 208 317 c 1
 188 317 l 1
 188 397 146 468 146 547 c 1
 172 579 l 1
 167 590 l 1
 162 588 153 571 146 571 c 1
 146 590 l 1
 134 719 67 833 67 969 c 0
 67 1065 121 1174 188 1243 c 1
 228 1222 l 1
 228 1252 l 1
 306 1326 370 1338 468 1370 c 1
 468 1349 l 1
 530 1386 l 1
 523 1426 l 1
 523 1465 523 1507 523 1552 c 0
 523 1683 526 1829 558 1928 c 1
 573 1913 l 1
 552 1885 l 1
 561 1887 l 1
 589 1920 l 1
 600 1913 l 1
 610 1934 l 1
 642 1941 l 1
 635 1834 l 1
 635 1736 639 1642 639 1547 c 0
 639 1498 639 1451 635 1401 c 1
 656 1403 l 1
 658 1382 l 1
 812 1366 851 1388 969 1264 c 1
 964 1270 960 1272 958 1272 c 0
 948 1272 948 1248 948 1243 c 1
 969 1243 l 1
 991 1264 l 1
 1029 1222 l 1
 1029 1174 1080 1148 1109 1117 c 1
 1109 1086 1087 1056 1064 1038 c 1
 1076 1032 l 1
 1089 1018 1092 981 1092 944 c 0
 1092 830 1068 661 1050 527 c 1
 973 568 842 550 748 570 c 1
 730 547 l 1
 709 570 l 1
 730 612 l 1
 726 634 711 684 689 695 c 1
 709 717 l 1
 694 715 l 2
 693 715 683 733 676 733 c 0
 672 733 670 730 668 717 c 1
 659 730 647 750 647 770 c 0
 647 772 647 776 649 780 c 1
 617 780 584 761 573 732 c 1
 571 739 554 741 549 741 c 0
 521 741 514 712 514 677 c 0
 514 629 528 570 534 555 c 1
 526 550 505 499 505 492 c 0
 505 404 540 195 589 128 c 1
 649 168 l 1
 649 190 l 1
 683 228 700 288 709 337 c 1
 740 362 l 1
 797 362 928 336 969 295 c 1
 969 297 l 1
 991 295 l 1
 973 271 955 242 948 212 c 1
 969 212 l 1
 948 190 l 1
 950 181 952 172 952 160 c 0
 952 102 910 42 869 3 c 1
 849 22 l 1
 812 -18 786 -64 748 -103 c 1
 748 -83 l 1
 709 -125 l 1
 700 -87 674 -48 639 -30 c 1
 630 -78 626 -131 626 -186 c 0
 626 -317 644 -459 644 -575 c 1
 639 -704 l 1
 607 -658 l 1
 612 -627 l 1
 610 -618 l 1
 573 -695 l 1
 573 -647 l 1
 573 -682 l 1
 558 -690 l 1
 534 -690 536 -444 536 -431 c 0
 536 -336 550 -238 550 -141 c 1
 547 -42 l 1
 528 -42 l 1
 519 -30 505 -15 489 -9 c 1
 499 -37 508 -53 508 -83 c 1
 468 -103 l 1
 447 -83 l 1
355 -18 m 1
 355 -18 353 -16 352 -16 c 0
 350 -16 350 -18 350 -20 c 1
 350 -18 353 -18 355 -18 c 1
573 726 m 1
 573 732 l 1
 573 726 l 1
EndSplineSet
EndChar

StartChar: nine
Encoding: 27 57 139
Width: 1228
VWidth: 2308
Flags: HW
LayerCount: 2
Fore
SplineSet
676 -153 m 1
 658 -144 l 1
 658 -113 658 -79 667 -50 c 1
 660 -39 l 1
 636 -35 l 1
 604 -35 597 -70 597 -109 c 0
 597 -153 608 -206 608 -219 c 0
 608 -232 602 -250 599 -264 c 1
 574 -247 l 1
 560 -16 l 1
 509 -30 l 1
 512 2 l 1
 495 -18 477 -50 461 -69 c 1
 457 -39 l 1
 437 -39 l 1
 412 -18 l 1
 400 -33 l 1
 402 -46 l 1
 402 -57 393 -70 383 -76 c 1
 356 -72 349 -35 310 -30 c 1
 210 44 223 96 173 179 c 1
 175 205 l 2
 175 216 168 218 159 218 c 0
 149 218 140 216 134 216 c 1
 164 311 466 299 509 302 c 1
 503 299 l 1
 518 299 l 1
 516 295 516 290 516 284 c 0
 516 269 521 258 540 258 c 1
 534 175 l 1
 555 175 l 2
 567 175 573 172 573 162 c 0
 573 160 573 156 573 155 c 2
 597 153 l 1
 664 188 l 1
 669 219 695 236 713 260 c 1
 713 395 l 1
 512 395 l 1
 451 369 l 1
 414 381 l 1
 396 406 l 1
 376 385 l 1
 344 411 298 404 271 426 c 0
 131 534 90 664 90 839 c 0
 90 865 97 890 105 914 c 1
 99 923 96 935 96 948 c 0
 96 1008 159 1095 178 1128 c 1
 178 1137 l 2
 178 1169 214 1191 241 1196 c 1
 377 1430 592 1312 653 1384 c 1
 734 1351 801 1386 887 1335 c 1
 883 1331 880 1327 880 1324 c 0
 880 1307 910 1281 924 1272 c 1
 938 1290 l 1
 1005 1257 1056 1208 1107 1155 c 1
 1098 1122 l 1
 1078 1122 l 1
 1126 988 1139 839 1139 696 c 0
 1139 496 1021 362 1021 290 c 0
 1021 282 1023 273 1026 267 c 1
 977 237 l 1
 997 216 l 1
 968 114 889 147 857 -42 c 1
 862 -46 866 -53 866 -60 c 0
 866 -74 836 -87 827 -88 c 1
 835 -60 l 1
 799 -83 l 1
 776 -39 l 1
 852 -55 l 1
 781 -20 l 1
 691 -50 l 1
 674 -32 l 1
 676 -70 676 -114 676 -153 c 1
718 675 m 1
 720 708 693 715 680 739 c 1
 667 761 l 1
 662 761 658 749 658 745 c 1
 613 786 l 1
 577 786 l 2
 556 786 551 782 538 768 c 1
 536 743 l 1
 518 743 514 724 514 710 c 0
 514 677 556 608 592 605 c 1
 597 596 l 1
 618 617 l 1
 648 610 680 606 711 605 c 1
 713 629 718 652 718 675 c 1
EndSplineSet
EndChar

StartChar: Lslash
Encoding: 239 321 140
Width: 918
VWidth: 2308
Flags: HW
LayerCount: 2
Fore
SplineSet
946 232 m 1
 946 168 l 1
 926 168 l 1
 946 149 l 1
 917 89 907 3 907 -62 c 1
 886 -62 l 1
 847 -103 l 1
 849 -105 851 -109 851 -113 c 0
 851 -125 843 -138 806 -141 c 1
 773 -107 l 1
 779 -107 784 -105 784 -105 c 1
 784 -105 791 -125 806 -125 c 1
 806 -83 l 1
 786 -83 l 1
 806 -62 l 1
 766 -62 l 1
 725 -20 l 1
 707 -42 l 1
 708 -79 l 1
 705 -66 698 -55 687 -55 c 1
 664 -125 l 1
 664 -39 626 21 626 42 c 1
 589 40 581 -22 581 -79 c 1
 581 -78 583 -78 585 -76 c 2
 581 -83 l 1
 564 -118 l 1
 546 -118 l 1
 524 -97 l 1
 524 -20 l 1
 506 -20 l 1
 485 -6 l 1
 465 -20 l 1
 418 -20 397 -35 390 -62 c 1
 388 -59 384 -57 384 -57 c 1
 293 30 295 255 265 360 c 1
 284 380 l 1
 265 422 l 1
 284 443 l 1
 265 464 l 1
 265 485 l 1
 244 485 l 1
 244 717 l 1
 205 758 l 1
 224 800 l 1
 205 800 l 1
 205 1032 l 1
 177 1069 191 1119 163 1159 c 1
 185 1202 l 1
 163 1243 l 1
 150 1243 l 1
 163 1264 l 1
 145 1264 l 1
 124 1285 l 1
 124 1327 l 1
 104 1307 l 1
 84 1307 l 1
 84 1327 l 1
 31 1349 l 1
 63 1349 91 1370 124 1370 c 2
 465 1370 l 1
 485 1353 l 1
 491 1368 508 1371 524 1371 c 0
 534 1371 541 1370 546 1370 c 1
 564 1349 l 1
 606 1349 l 1
 606 1370 l 1
 786 1370 l 1
 742 1326 707 1289 646 1264 c 1
 646 1211 620 1196 585 1159 c 1
 585 1117 l 1
 564 1117 l 1
 564 1097 l 1
 589 1097 608 1092 608 1064 c 1
 606 1011 l 1
 587 990 583 951 583 912 c 0
 583 886 585 861 585 844 c 0
 585 833 569 793 564 780 c 1
 583 765 589 671 589 577 c 0
 589 492 585 408 585 380 c 1
 571 380 l 1
 571 362 608 317 608 284 c 0
 608 281 606 278 606 274 c 1
 626 255 l 1
 694 256 l 1
 743 258 791 230 838 232 c 0
 860 232 875 255 895 255 c 2
 926 255 l 2
 932 255 961 271 967 274 c 1
 967 232 l 1
 946 232 l 1
384 -125 m 1
 384 -99 384 -79 390 -62 c 1
 395 -70 406 -88 406 -88 c 1
 406 -125 384 -125 384 -125 c 1
926 212 m 1
 946 190 l 1
 926 190 l 1
 926 212 l 1
773 -107 m 1
 770 -109 766 -109 766 -109 c 1
 766 -99 l 1
 773 -107 l 1
239 542 m 1
 173 584 l 1
 173 570 168 557 150 557 c 0
 127 557 105 570 86 584 c 1
 99 896 l 1
 366 896 l 1
 366 883 377 879 388 879 c 0
 414 879 440 890 467 890 c 0
 501 890 537 892 574 892 c 0
 617 892 659 888 698 876 c 1
 702 890 l 1
 891 890 l 1
 840 767 l 1
 834 770 l 1
 843 743 l 1
 834 745 l 1
 829 721 827 696 827 673 c 0
 827 651 829 627 829 603 c 0
 829 580 827 561 822 540 c 1
 720 536 l 1
 722 550 l 1
 722 562 717 582 699 582 c 1
 692 580 l 1
 718 559 l 1
 678 553 643 552 602 552 c 0
 599 552 585 553 569 553 c 0
 551 553 530 550 530 542 c 0
 530 540 530 538 532 536 c 1
 506 534 l 1
 502 542 l 1
 488 542 477 540 477 559 c 2
 477 566 l 1
 502 545 l 1
 506 566 l 1
 477 566 l 1
 479 575 l 1
 451 571 l 1
 447 545 l 1
 438 543 425 540 416 540 c 2
 239 542 l 1
EndSplineSet
EndChar

StartChar: lslash
Encoding: 240 322 141
Width: 982
VWidth: 2308
Flags: HW
LayerCount: 2
Fore
SplineSet
1041 253 m 1
 1019 209 l 1
 996 209 l 1
 1017 188 l 1
 996 188 l 1
 989 94 945 9 938 -85 c 1
 897 -85 l 1
 875 -107 l 1
 894 -127 l 1
 853 -127 l 1
 836 -85 l 1
 816 -85 l 1
 818 -64 l 1
 797 -64 l 1
 799 -44 l 1
 781 -22 l 1
 760 -22 l 1
 759 -44 l 1
 739 -44 l 2
 724 -44 720 -27 720 -11 c 0
 720 0 722 13 724 21 c 1
 706 42 l 1
 665 42 l 1
 643 21 l 1
 643 -22 l 1
 580 -22 l 1
 582 -2 l 1
 521 -2 l 1
 519 -18 493 -24 473 -24 c 0
 468 -24 463 -22 458 -22 c 1
 454 -85 l 1
 470 -107 l 1
 453 -107 l 1
 453 -122 440 -129 427 -129 c 1
 412 -127 l 1
 394 -107 l 1
 328 358 l 1
 348 378 l 1
 329 378 l 1
 311 400 l 1
 333 441 l 1
 313 441 l 1
 315 466 l 1
 315 524 308 579 308 636 c 0
 308 654 310 675 311 693 c 1
 291 693 l 1
 291 712 269 715 252 715 c 1
 261 728 276 752 276 772 c 0
 276 774 276 776 276 777 c 1
 257 777 l 1
 238 798 l 1
 245 903 l 1
 232 920 226 942 226 964 c 0
 226 986 232 1011 234 1030 c 1
 215 1051 l 1
 217 1073 l 1
 199 1095 l 1
 201 1122 204 1157 224 1178 c 1
 204 1178 l 1
 185 1200 l 1
 166 1200 l 1
 167 1220 l 1
 187 1220 l 1
 189 1243 l 1
 148 1243 l 1
 148 1261 l 1
 132 1283 l 1
 81 1283 83 1289 39 1305 c 1
 141 1305 236 1368 338 1368 c 2
 558 1368 l 1
 579 1351 l 1
 579 1368 l 1
 600 1377 l 1
 598 1368 l 1
 619 1368 l 1
 621 1388 l 1
 641 1388 l 1
 658 1368 l 1
 718 1368 l 1
 702 1388 l 1
 922 1388 l 1
 915 1366 l 1
 857 1326 l 1
 816 1326 794 1283 753 1283 c 1
 762 1268 l 1
 759 1235 711 1213 706 1178 c 1
 685 1155 l 1
 683 1136 l 1
 663 1136 l 1
 661 1115 l 1
 681 1115 l 1
 695 1101 698 1082 698 1064 c 0
 698 1004 667 940 667 900 c 0
 667 853 676 809 676 770 c 0
 676 765 676 761 676 758 c 2
 652 420 l 1
 672 400 l 1
 650 400 l 1
 639 392 l 1
 669 358 l 1
 658 358 l 1
 665 336 l 1
 650 313 l 1
 663 281 l 1
 681 293 l 1
 679 255 883 249 895 242 c 1
 901 253 l 1
 1041 253 l 1
285 542 m 1
 219 584 l 1
 219 570 214 557 196 557 c 0
 173 557 151 570 132 584 c 1
 145 896 l 1
 412 896 l 1
 412 883 423 879 434 879 c 0
 460 879 486 890 513 890 c 0
 547 890 583 892 620 892 c 0
 663 892 705 888 744 876 c 1
 748 890 l 1
 937 890 l 1
 886 767 l 1
 880 770 l 1
 889 743 l 1
 880 745 l 1
 875 721 873 696 873 673 c 0
 873 651 875 627 875 603 c 0
 875 580 873 561 868 540 c 1
 766 536 l 1
 768 550 l 1
 768 562 763 582 745 582 c 1
 738 580 l 1
 764 559 l 1
 724 553 689 552 648 552 c 0
 645 552 631 553 615 553 c 0
 597 553 576 550 576 542 c 0
 576 540 576 538 578 536 c 1
 552 534 l 1
 548 542 l 1
 534 542 523 540 523 559 c 2
 523 566 l 1
 548 545 l 1
 552 566 l 1
 523 566 l 1
 525 575 l 1
 497 571 l 1
 493 545 l 1
 484 543 471 540 462 540 c 2
 285 542 l 1
EndSplineSet
EndChar

StartChar: exclam
Encoding: 3 33 142
Width: 724
VWidth: 2308
Flags: HW
LayerCount: 2
Fore
SplineSet
314 91 m 1
 309 91 303 89 297 89 c 0
 284 89 274 91 261 91 c 0
 242 91 211 91 200 70 c 1
 193 84 193 94 174 96 c 1
 168 84 158 75 145 75 c 2
 139 75 l 1
 145 138 152 201 152 265 c 0
 152 332 145 400 139 468 c 1
 137 468 l 2
 110 468 108 555 96 555 c 0
 95 555 95 553 95 553 c 1
 91 575 71 597 47 599 c 1
 71 614 l 1
 80 612 87 610 96 610 c 0
 113 610 126 619 133 634 c 1
 284 640 l 1
 293 649 309 651 325 651 c 0
 334 651 346 651 353 651 c 0
 395 651 437 664 480 664 c 0
 511 664 548 656 578 647 c 1
 581 649 583 651 587 651 c 0
 603 651 620 636 636 634 c 1
 622 573 624 513 615 450 c 1
 618 444 626 435 626 427 c 1
 613 422 l 1
 620 413 633 408 644 406 c 1
 620 112 l 1
 611 112 601 114 592 114 c 0
 589 114 546 100 541 98 c 1
 520 109 545 121 506 121 c 0
 471 121 336 112 314 91 c 1
255 872 m 0
 224 872 224 1058 224 1082 c 2
 226 1209 l 2
 228 1388 176 1578 108 1742 c 1
 139 1797 121 1860 139 1915 c 1
 163 1928 l 1
 165 1934 l 1
 165 1957 108 2019 89 2038 c 1
 82 2094 67 2168 50 2221 c 1
 59 2235 l 1
 87 2234 l 1
 156 2234 237 2297 312 2307 c 1
 305 2265 l 1
 356 2282 414 2271 467 2279 c 1
 515 2253 618 2245 646 2219 c 1
 644 2147 l 1
 664 2138 l 1
 624 2101 609 2048 574 2010 c 1
 601 1968 l 1
 550 1827 578 1665 513 1526 c 1
 520 1489 545 1460 545 1423 c 1
 541 1398 l 1
 530 1386 524 1373 524 1359 c 0
 524 1351 526 1344 527 1338 c 1
 506 1361 l 1
 506 1329 517 1301 530 1273 c 1
 515 1275 l 1
 502 1275 493 1263 482 1257 c 1
 509 1257 513 1191 513 1141 c 0
 513 1113 509 960 465 892 c 1
 491 885 506 865 506 839 c 2
 506 830 l 1
 465 861 l 1
 464 853 l 1
 437 849 l 1
 418 849 375 856 375 881 c 0
 375 883 375 885 375 886 c 1
 336 885 292 872 255 872 c 0
EndSplineSet
EndChar

StartChar: percent
Encoding: 7 37 143
Width: 1769
VWidth: 2308
Flags: HW
LayerCount: 2
Fore
SplineSet
1157 673 m 1
 1144 673 l 1
 1144 684 l 1
 1157 673 l 1
 1153 680 1153 689 1153 696 c 1
 1152 695 1148 695 1144 695 c 1
 1157 708 l 1
 1144 708 l 1
 1146 719 l 1
 1144 730 l 1
 1148 730 l 1
 1153 735 1159 747 1159 758 c 0
 1159 759 1157 763 1157 765 c 1
 1146 765 l 1
 1181 782 1213 918 1391 918 c 0
 1397 918 1405 918 1412 918 c 1
 1417 923 1423 923 1428 923 c 0
 1447 923 1465 914 1486 914 c 0
 1487 914 1491 916 1495 916 c 1
 1491 923 l 1
 1535 923 1586 881 1621 858 c 1
 1630 865 l 1
 1631 858 l 1
 1620 856 l 1
 1642 842 l 1
 1631 831 l 1
 1637 822 1658 809 1670 809 c 1
 1701 776 l 1
 1693 776 l 1
 1692 765 1690 754 1690 741 c 0
 1690 726 1692 710 1692 695 c 1
 1702 684 l 1
 1705 645 l 1
 1705 627 1701 606 1693 590 c 1
 1702 594 l 1
 1702 566 l 2
 1702 507 1697 450 1688 390 c 1
 1674 383 1630 286 1630 273 c 1
 1640 264 l 1
 1620 264 1611 236 1607 219 c 1
 1581 207 1577 199 1577 181 c 0
 1577 175 1577 170 1577 165 c 1
 1567 165 l 1
 1552 175 l 1
 1546 168 1537 162 1528 162 c 1
 1528 151 l 1
 1521 151 l 1
 1519 142 1513 138 1507 138 c 0
 1502 138 1495 142 1491 146 c 1
 1491 128 l 1
 1475 114 l 1
 1467 116 1415 123 1406 123 c 0
 1384 123 1377 186 1371 186 c 0
 1369 186 1368 175 1368 174 c 2
 1342 144 l 1
 1314 144 1324 201 1279 201 c 0
 1268 201 1238 199 1233 188 c 1
 1233 223 1198 228 1196 265 c 1
 1198 264 l 1
 1198 269 l 2
 1198 334 1159 390 1159 455 c 0
 1159 476 1162 494 1172 513 c 1
 1162 540 1159 564 1159 590 c 0
 1159 612 1161 636 1162 664 c 1
 1161 666 1157 669 1157 673 c 1
64 1137 m 1
 70 1143 75 1154 75 1165 c 0
 75 1167 73 1171 73 1173 c 1
 61 1173 l 1
 151 1257 116 1326 328 1333 c 1
 323 1320 l 1
 335 1331 l 1
 341 1331 l 2
 361 1331 381 1322 402 1322 c 0
 406 1322 407 1322 411 1322 c 1
 407 1331 l 1
 459 1331 501 1292 536 1259 c 1
 538 1261 l 1
 559 1250 l 1
 547 1238 l 1
 550 1229 577 1217 586 1217 c 1
 617 1183 l 1
 610 1183 l 1
 606 1157 606 1130 604 1102 c 1
 619 1092 l 1
 619 1065 l 2
 619 1043 617 1021 606 1001 c 1
 619 1001 l 1
 608 920 619 821 569 750 c 1
 568 705 545 703 541 678 c 1
 557 671 l 1
 531 671 494 596 494 592 c 0
 494 586 494 579 496 571 c 1
 483 571 l 1
 468 582 l 1
 462 575 453 570 444 570 c 1
 444 559 l 1
 437 559 l 1
 434 550 429 545 424 545 c 0
 418 545 411 550 407 553 c 1
 407 534 l 1
 390 522 l 1
 383 525 334 531 325 531 c 0
 298 531 295 594 289 594 c 0
 288 594 286 582 286 580 c 1
 258 552 l 1
 230 552 239 608 197 608 c 0
 190 608 158 597 149 596 c 1
 147 633 114 627 114 671 c 0
 114 698 103 723 103 750 c 0
 103 754 103 758 103 761 c 1
 94 772 l 1
 88 824 82 867 82 918 c 0
 82 937 82 958 82 984 c 0
 82 1038 81 1101 64 1137 c 1
658 -190 m 1
 645 -162 l 1
 631 -162 624 -157 624 -150 c 0
 624 -138 636 -122 636 -111 c 0
 636 -107 632 -103 629 -103 c 0
 613 -103 586 -140 573 -150 c 1
 577 -140 582 -127 582 -118 c 1
 569 -141 l 1
 562 -144 l 1
 550 -144 549 -134 549 -125 c 0
 549 -81 562 -42 562 2 c 0
 562 13 562 22 560 33 c 1
 601 105 671 234 671 317 c 0
 671 343 659 363 634 363 c 0
 632 363 631 363 629 363 c 1
 658 431 818 791 818 839 c 1
 875 890 895 1106 895 1174 c 1
 921 1222 918 1303 940 1336 c 0
 951 1351 986 1389 986 1410 c 0
 986 1412 986 1412 986 1414 c 1
 1041 1471 l 1
 1053 1451 l 1
 1018 1438 l 1
 1021 1436 1025 1436 1028 1436 c 0
 1046 1436 1071 1445 1081 1449 c 1
 1090 1440 l 1
 1108 1449 l 1
 1152 1442 l 1
 1150 1417 1111 1353 1111 1317 c 0
 1111 1307 1115 1298 1120 1294 c 1
 1097 1233 1071 1174 1039 1117 c 1
 1074 1108 l 1
 1065 1073 l 1
 1014 903 937 737 886 570 c 1
 883 547 l 1
 877 538 l 2
 875 536 875 534 875 534 c 1
 875 534 877 534 877 536 c 2
 877 533 l 1
 879 507 l 1
 875 464 l 2
 874 444 853 415 842 399 c 1
 837 417 l 1
 837 323 l 1
 820 311 800 319 800 288 c 0
 800 244 759 177 740 135 c 1
 745 109 l 1
 745 63 722 48 706 9 c 1
 712 0 712 -6 712 -15 c 0
 712 -70 675 -140 658 -190 c 1
267 796 m 1
 256 786 l 1
 267 786 l 1
 267 761 l 1
 280 761 l 1
 278 756 278 752 278 749 c 0
 278 687 309 686 341 680 c 1
 357 691 390 767 390 786 c 2
 390 819 l 1
 383 819 l 1
 387 821 388 824 388 826 c 0
 388 828 388 830 387 831 c 1
 387 865 388 898 388 930 c 0
 388 960 369 983 350 1002 c 1
 341 1001 l 1
 341 1012 l 1
 286 1001 265 977 265 933 c 0
 265 921 267 909 269 896 c 1
 258 890 256 876 256 865 c 2
 256 830 l 1
 269 816 267 814 267 796 c 1
1478 378 m 1
 1467 389 l 1
 1467 400 l 2
 1467 411 1470 415 1478 422 c 1
 1478 457 l 2
 1478 470 1477 483 1467 492 c 1
 1454 580 1480 575 1393 605 c 1
 1393 594 l 1
 1380 594 l 1
 1340 550 1345 487 1345 418 c 1
 1351 411 l 1
 1343 411 l 1
 1343 378 l 2
 1343 374 1386 278 1391 273 c 1
 1423 278 1456 278 1456 341 c 0
 1456 345 1454 348 1454 354 c 1
 1467 354 l 1
 1467 378 l 1
 1478 378 l 1
547 1264 m 0
 547 1263 547 1263 545 1263 c 2
 538 1263 l 1
 543 1270 l 1
 543 1266 547 1266 547 1264 c 0
1157 661 m 1
 1144 661 l 1
 1146 668 l 1
 1157 661 l 1
883 547 m 1
 883 545 881 540 879 538 c 1
 879 540 881 545 883 547 c 1
536 1263 m 1
 538 1263 l 1
 538 1261 l 1
 536 1261 536 1261 536 1263 c 1
EndSplineSet
EndChar

StartChar: six
Encoding: 24 54 144
Width: 1262
VWidth: 2308
Flags: HW
LayerCount: 2
Fore
SplineSet
868 -103 m 1
 865 -103 l 1
 865 -83 l 1
 845 -74 l 1
 824 -103 l 1
 799 -114 l 1
 784 -103 l 1
 766 -125 l 1
 745 -125 l 1
 745 -103 l 1
 724 -125 l 1
 745 -125 l 1
 745 -146 l 1
 724 -160 l 1
 724 -125 l 1
 705 -146 l 1
 664 -103 l 1
 624 -103 l 1
 624 -83 l 1
 606 -83 l 1
 606 -103 l 1
 587 -123 581 -140 580 -168 c 1
 550 -168 546 -127 543 -105 c 1
 524 -83 l 1
 504 -83 l 1
 504 -109 488 -144 456 -144 c 2
 445 -144 l 1
 423 -125 l 1
 443 -125 l 1
 443 -103 l 1
 404 -103 l 1
 384 -83 l 1
 358 -81 349 -42 347 -22 c 1
 328 -32 l 1
 293 -25 272 121 233 153 c 1
 211 372 249 317 145 575 c 1
 163 570 l 1
 128 601 89 953 89 1016 c 0
 89 1030 87 1041 87 1053 c 0
 87 1065 89 1078 104 1095 c 1
 100 1178 l 1
 177 1243 l 1
 222 1243 l 1
 222 1312 321 1353 390 1353 c 0
 402 1353 414 1351 423 1349 c 1
 445 1371 476 1368 506 1370 c 1
 504 1349 l 1
 524 1349 l 1
 524 1361 526 1371 539 1371 c 2
 565 1370 l 1
 524 1307 l 1
 567 1349 l 1
 606 1329 l 1
 583 1349 l 1
 583 1370 l 1
 624 1349 l 1
 636 1353 655 1359 668 1359 c 0
 937 1359 1079 1243 1199 1020 c 1
 1184 979 1164 933 1164 890 c 0
 1164 796 1118 717 1081 634 c 1
 1097 525 l 1
 1116 507 l 1
 1044 505 l 2
 993 503 896 503 858 543 c 1
 745 545 l 1
 731 562 724 575 724 599 c 2
 724 612 l 1
 745 612 l 1
 703 652 l 1
 724 675 l 1
 705 675 l 1
 685 696 l 1
 685 728 l 1
 664 717 l 1
 652 743 636 756 607 756 c 1
 583 780 l 1
 565 758 l 1
 524 758 l 1
 524 750 526 741 526 732 c 0
 526 678 504 627 504 571 c 1
 483 570 l 1
 483 547 l 1
 504 527 l 1
 504 524 506 520 506 516 c 0
 506 503 500 487 493 478 c 1
 541 483 589 498 634 498 c 0
 734 498 821 450 924 450 c 0
 1053 450 1088 408 1088 288 c 0
 1088 255 1081 223 1065 192 c 1
 1068 151 1074 109 1074 68 c 0
 1074 -114 1012 -62 886 -146 c 1
 868 -103 l 1
544 232 m 1
 544 212 l 1
 552 212 561 216 565 223 c 1
 565 209 572 199 583 190 c 1
 565 190 565 186 565 170 c 1
 583 170 l 1
 585 147 609 133 627 128 c 1
 624 107 l 1
 644 128 l 1
 664 128 l 1
 664 116 673 107 685 107 c 1
 685 128 l 1
 718 128 760 144 780 170 c 1
 796 170 l 1
 786 175 784 190 784 205 c 0
 784 223 787 242 787 253 c 2
 784 332 l 1
 742 332 701 354 659 354 c 0
 657 354 653 354 650 352 c 1
 644 352 638 352 634 352 c 0
 599 352 569 346 537 330 c 1
 543 297 544 260 562 230 c 1
 544 232 l 1
EndSplineSet
EndChar

StartChar: seven
Encoding: 25 55 145
Width: 1362
VWidth: 2308
Flags: HW
LayerCount: 2
Fore
SplineSet
423 -160 m 1
 409 -140 l 1
 453 -85 495 -20 502 50 c 2
 500 28 l 1
 576 177 l 1
 562 177 l 1
 606 258 634 343 675 426 c 1
 669 444 l 1
 687 448 l 1
 710 492 l 1
 703 513 l 1
 715 534 732 555 750 573 c 1
 752 603 766 636 784 660 c 1
 780 666 780 668 780 671 c 0
 780 698 803 733 817 761 c 1
 771 710 379 721 279 698 c 1
 263 721 l 1
 263 698 l 1
 145 691 l 1
 124 914 93 1110 38 1326 c 1
 52 1326 l 2
 140 1326 237 1355 318 1355 c 0
 525 1355 754 1386 966 1386 c 0
 1095 1386 1228 1379 1359 1375 c 1
 1346 1303 1302 1236 1299 1164 c 1
 1289 1152 1263 1101 1246 1101 c 0
 1245 1101 1243 1101 1241 1102 c 1
 1241 1080 l 1
 1260 1080 l 1
 1260 946 1155 849 1137 723 c 1
 1153 723 l 1
 1182 680 l 1
 1178 680 1176 678 1173 678 c 0
 1164 678 1156 680 1149 684 c 1
 1125 660 l 1
 1125 658 1125 656 1125 654 c 0
 1125 606 1033 462 1012 427 c 1
 1003 429 l 2
 1011 427 1009 422 1009 415 c 0
 1009 378 905 256 882 218 c 1
 882 177 l 1
 830 96 736 -69 725 -162 c 1
 683 -173 650 -185 609 -185 c 0
 601 -185 596 -183 588 -183 c 1
 638 -169 l 1
 599 -169 l 1
 613 -166 l 1
 613 -164 611 -164 609 -164 c 0
 607 -164 606 -164 604 -164 c 2
 562 -160 l 1
 423 -160 l 1
EndSplineSet
EndChar

StartChar: Euro
Encoding: 323 8364 146
Width: 1279
VWidth: 2308
Flags: HW
LayerCount: 2
Fore
SplineSet
1085 327 m 1
 1080 346 l 1
 1100 327 l 1
 1119 327 l 1
 1100 304 l 1
 1100 264 l 1
 1082 264 1078 246 1078 227 c 0
 1078 216 1080 205 1080 197 c 0
 1080 183 1078 158 1057 156 c 1
 1059 116 l 1
 1039 94 l 1
 1019 94 l 1
 1019 75 1015 44 1001 31 c 1
 978 52 l 2
 980 50 980 48 980 44 c 0
 980 37 973 28 966 28 c 0
 964 28 962 30 960 31 c 1
 960 -20 945 0 919 -32 c 1
 919 -53 l 1
 897 -76 869 -72 840 -76 c 1
 844 -125 l 2
 846 -157 838 -194 818 -219 c 1
 799 -199 l 1
 801 -96 l 2
 801 -62 760 -44 759 -11 c 1
 739 -11 l 1
 730 -267 l 1
 744 -284 759 -304 759 -328 c 0
 759 -350 750 -370 741 -391 c 1
 718 -391 l 1
 718 -405 l 1
 698 -378 695 -308 695 -250 c 1
 693 -166 720 -169 718 -125 c 2
 716 -92 l 1
 704 -79 698 -59 698 -41 c 0
 698 -39 698 -35 698 -33 c 1
 660 -11 l 1
 639 -33 l 1
 617 -33 l 1
 598 -53 l 1
 598 -138 l 1
 614 -151 619 -169 619 -188 c 2
 617 -243 l 1
 598 -264 l 1
 598 -306 l 1
 558 -285 l 1
 556 -87 l 2
 556 -55 519 -42 519 -15 c 0
 519 -13 519 -11 519 -9 c 1
 438 -9 l 1
 438 12 l 1
 398 12 l 1
 383 28 375 63 375 93 c 0
 375 102 375 109 377 116 c 1
 359 116 l 1
 377 137 l 1
 363 162 342 203 317 221 c 1
 317 242 l 1
 337 264 l 1
 317 284 l 1
 319 288 319 293 319 297 c 0
 319 325 273 332 222 332 c 0
 176 332 127 327 106 327 c 0
 86 327 64 334 42 337 c 1
 64 431 l 1
 292 431 l 1
 265 525 l 1
 175 520 l 1
 136 520 101 533 66 533 c 0
 58 533 51 533 44 531 c 1
 36 631 l 1
 261 627 l 1
 254 743 217 865 217 979 c 0
 217 1067 257 1200 337 1252 c 1
 366 1231 l 1
 359 1252 l 1
 377 1273 l 1
 398 1273 l 1
 454 1338 l 1
 532 1379 831 1380 899 1380 c 1
 934 1329 1003 1335 1047 1294 c 1
 1039 1252 l 1
 1059 1252 l 1
 1059 1273 l 1
 1080 1273 l 1
 1117 1231 l 1
 1100 1211 l 1
 1142 1211 1140 1145 1183 1145 c 1
 1179 1065 l 1
 1161 1064 l 1
 1179 1041 l 1
 1179 1006 1181 969 1181 933 c 0
 1181 888 1177 846 1163 807 c 1
 1168 784 1172 752 1172 719 c 0
 1172 664 1161 605 1131 571 c 1
 1140 557 l 1
 1089 573 1070 580 1010 580 c 0
 976 580 945 577 929 564 c 1
 915 575 894 580 875 580 c 0
 869 580 864 579 860 579 c 1
 838 557 l 1
 818 579 l 1
 838 599 l 1
 838 621 l 2
 838 660 794 678 794 726 c 1
 779 726 l 1
 760 756 770 789 739 789 c 0
 730 789 725 767 720 767 c 1
 720 767 718 767 718 768 c 2
 698 749 l 1
 660 749 l 1
 648 728 639 705 639 684 c 1
 617 684 l 1
 617 661 l 1
 639 661 l 1
 639 647 l 1
 737 647 l 1
 733 606 l 1
 716 603 l 1
 735 590 l 1
 716 592 l 1
 706 586 702 582 702 579 c 0
 702 573 709 570 709 561 c 0
 711 520 614 570 616 494 c 2
 617 429 l 1
 739 429 l 1
 741 355 l 2
 741 325 715 317 688 317 c 0
 670 317 650 321 637 323 c 1
 637 242 l 1
 660 242 l 1
 660 199 l 1
 698 158 l 1
 716 158 l 1
 739 179 760 199 779 221 c 1
 778 223 776 225 776 228 c 0
 776 236 785 246 792 246 c 0
 794 246 797 244 799 242 c 1
 797 304 l 1
 818 327 l 1
 818 369 l 1
 903 371 l 2
 913 371 1054 336 1085 327 c 1
EndSplineSet
EndChar

StartChar: quoteright
Encoding: 314 8217 147
Width: 770
VWidth: 2308
Flags: HW
LayerCount: 2
Fore
SplineSet
577 464 m 1
 385 457 l 1
 382 474 380 492 380 508 c 0
 380 542 385 573 385 605 c 1
 393 601 l 1
 393 652 396 666 413 717 c 1
 411 715 l 1
 429 805 l 1
 382 807 319 802 275 828 c 1
 139 809 l 1
 139 814 137 826 129 830 c 1
 123 826 l 1
 105 842 l 1
 104 856 102 867 102 879 c 0
 102 1039 122 1204 122 1366 c 1
 135 1366 148 1355 155 1345 c 1
 172 1345 177 1368 214 1368 c 0
 303 1368 391 1340 482 1340 c 0
 529 1340 510 1359 542 1359 c 0
 557 1359 575 1344 590 1344 c 2
 609 1344 l 1
 625 1362 l 1
 640 1146 l 2
 640 1143 640 1137 640 1134 c 0
 640 1106 644 1080 645 1053 c 1
 640 1053 l 1
 640 1036 l 1
 628 1032 l 1
 628 1020 640 999 640 995 c 0
 640 962 635 930 635 898 c 1
 633 879 l 1
 635 874 640 846 640 842 c 2
 577 464 l 1
EndSplineSet
EndChar

StartChar: quoteleft
Encoding: 313 8216 148
Width: 776
VWidth: 2308
Flags: HW
LayerCount: 2
Fore
SplineSet
195 1361 m 1
 386 1368 l 1
 390 1351 392 1333 392 1317 c 0
 392 1283 386 1252 386 1220 c 1
 379 1224 l 1
 379 1173 376 1159 358 1108 c 1
 360 1110 l 1
 342 1020 l 1
 390 1018 453 1023 497 997 c 1
 634 1016 l 1
 634 1011 636 999 643 995 c 1
 648 999 l 1
 666 983 l 1
 668 969 671 958 671 946 c 0
 671 786 650 621 650 459 c 1
 637 459 624 470 617 480 c 1
 601 480 592 457 558 457 c 0
 469 457 381 485 291 485 c 0
 242 485 261 466 230 466 c 0
 215 466 196 481 182 481 c 2
 163 481 l 1
 147 462 l 1
 132 678 l 2
 132 682 132 687 132 691 c 0
 132 719 128 745 126 772 c 1
 132 772 l 1
 132 789 l 1
 143 793 l 1
 143 805 132 826 132 830 c 0
 132 863 138 894 138 927 c 1
 140 946 l 1
 138 951 132 979 132 983 c 2
 195 1361 l 1
EndSplineSet
EndChar

StartChar: quotedblleft
Encoding: 316 8220 149
Width: 1430
VWidth: 2308
Flags: HW
LayerCount: 2
Fore
SplineSet
195 1361 m 1
 387 1368 l 1
 390 1351 392 1333 392 1317 c 0
 392 1283 387 1252 387 1220 c 1
 380 1224 l 1
 380 1173 376 1159 360 1108 c 1
 362 1110 l 1
 343 1020 l 1
 390 1018 453 1023 497 997 c 1
 634 1016 l 1
 634 1011 636 999 643 995 c 1
 649 999 l 1
 668 983 l 1
 669 969 671 958 671 946 c 0
 671 786 650 621 650 459 c 1
 638 459 624 470 617 480 c 1
 601 480 594 457 559 457 c 0
 470 457 381 485 291 485 c 0
 244 485 262 466 230 466 c 0
 216 466 197 481 182 481 c 2
 164 481 l 1
 147 462 l 1
 133 678 l 2
 133 682 133 687 133 691 c 0
 133 719 129 745 127 772 c 1
 133 772 l 1
 133 789 l 1
 144 793 l 1
 144 805 133 826 133 830 c 0
 133 863 138 894 138 927 c 1
 140 946 l 1
 138 951 133 979 133 983 c 2
 195 1361 l 1
849 1361 m 1
 1041 1368 l 1
 1045 1351 1046 1333 1046 1317 c 0
 1046 1283 1041 1252 1041 1220 c 1
 1034 1224 l 1
 1034 1173 1030 1159 1014 1108 c 1
 1016 1110 l 1
 997 1020 l 1
 1045 1018 1108 1023 1152 997 c 1
 1289 1016 l 1
 1289 1011 1290 999 1298 995 c 1
 1303 999 l 1
 1322 983 l 1
 1324 969 1325 958 1325 946 c 0
 1325 786 1305 621 1305 459 c 1
 1292 459 1279 470 1271 480 c 1
 1255 480 1248 457 1213 457 c 0
 1124 457 1036 485 946 485 c 0
 898 485 916 466 884 466 c 0
 870 466 851 481 837 481 c 2
 818 481 l 1
 802 462 l 1
 787 678 l 2
 787 682 787 687 787 691 c 0
 787 719 784 745 782 772 c 1
 787 772 l 1
 787 789 l 1
 798 793 l 1
 798 805 787 826 787 830 c 0
 787 863 793 894 793 927 c 1
 794 946 l 1
 793 951 787 979 787 983 c 2
 849 1361 l 1
EndSplineSet
EndChar

StartChar: quotedblright
Encoding: 317 8221 150
Width: 1477
VWidth: 2308
Flags: HW
LayerCount: 2
Fore
SplineSet
576 464 m 1
 384 457 l 1
 380 474 378 492 378 508 c 0
 378 542 384 573 384 605 c 1
 392 601 l 1
 392 652 395 666 411 717 c 1
 410 715 l 1
 429 805 l 1
 315 812 226 818 108 812 c 1
 108 837 100 839 100 879 c 0
 100 1039 121 1204 121 1366 c 1
 241 1366 364 1360 480 1360 c 0
 534 1360 531 1364 589 1364 c 2
 607 1344 l 1
 624 1362 l 1
 638 1146 l 2
 638 1143 638 1137 638 1134 c 0
 638 1106 642 1080 644 1053 c 1
 638 1053 l 1
 638 1036 l 1
 627 1032 l 1
 627 1020 638 999 638 995 c 0
 638 962 633 930 633 898 c 1
 631 879 l 1
 633 874 638 846 638 842 c 2
 576 464 l 1
1284 464 m 1
 1092 457 l 1
 1088 474 1086 492 1086 508 c 0
 1086 542 1092 573 1092 605 c 1
 1099 601 l 1
 1099 652 1103 666 1120 717 c 1
 1118 715 l 1
 1136 805 l 1
 1088 807 1025 802 981 828 c 1
 845 809 l 1
 845 814 843 826 835 830 c 1
 830 826 l 1
 812 842 l 1
 810 856 808 867 808 879 c 0
 808 1039 828 1204 828 1366 c 1
 841 1366 854 1355 861 1345 c 1
 878 1345 884 1368 921 1368 c 0
 1009 1368 1097 1340 1187 1340 c 0
 1236 1340 1217 1359 1248 1359 c 0
 1263 1359 1282 1344 1296 1344 c 2
 1315 1344 l 1
 1331 1362 l 1
 1347 1146 l 2
 1347 1143 1347 1137 1347 1134 c 0
 1347 1106 1350 1080 1352 1053 c 1
 1347 1053 l 1
 1347 1036 l 1
 1335 1032 l 1
 1335 1020 1347 999 1347 995 c 0
 1347 962 1340 930 1340 898 c 1
 1338 879 l 1
 1340 874 1347 846 1347 842 c 2
 1284 464 l 1
EndSplineSet
EndChar

StartChar: quotedblbase
Encoding: 318 8222 151
Width: 1456
VWidth: 2308
Flags: HW
LayerCount: 2
Fore
SplineSet
580 -558 m 1
 388 -566 l 1
 384 -549 382 -531 382 -514 c 0
 382 -481 388 -449 388 -419 c 1
 396 -422 l 1
 396 -370 399 -357 415 -306 c 1
 414 -308 l 1
 433 -217 l 1
 384 -215 322 -222 278 -195 c 1
 141 -213 l 1
 141 -208 139 -197 132 -194 c 1
 127 -197 l 1
 108 -180 l 1
 106 -168 104 -157 104 -144 c 0
 104 17 125 181 125 343 c 1
 137 343 150 332 158 323 c 1
 174 323 180 345 217 345 c 0
 305 345 394 317 484 317 c 0
 532 317 514 336 545 336 c 0
 559 336 577 321 593 321 c 2
 611 321 l 1
 628 339 l 1
 642 123 l 2
 642 120 642 114 642 111 c 0
 642 83 646 57 648 30 c 1
 642 30 l 1
 642 13 l 1
 631 9 l 1
 631 -4 642 -24 642 -27 c 0
 642 -60 637 -92 637 -125 c 1
 635 -144 l 1
 637 -150 642 -177 642 -180 c 2
 580 -558 l 1
1288 -558 m 1
 1096 -566 l 1
 1092 -549 1090 -531 1090 -514 c 0
 1090 -481 1096 -449 1096 -419 c 1
 1103 -422 l 1
 1103 -370 1107 -357 1124 -306 c 1
 1122 -308 l 1
 1140 -217 l 1
 1092 -215 1029 -222 985 -195 c 1
 849 -213 l 1
 849 -208 847 -197 839 -194 c 1
 834 -197 l 1
 816 -180 l 1
 814 -168 812 -157 812 -144 c 0
 812 17 832 181 832 343 c 1
 845 343 858 332 865 323 c 1
 882 323 888 345 925 345 c 0
 1013 345 1101 317 1191 317 c 0
 1240 317 1221 336 1252 336 c 0
 1267 336 1286 321 1300 321 c 2
 1319 321 l 1
 1335 339 l 1
 1351 123 l 2
 1351 120 1351 114 1351 111 c 0
 1351 83 1354 57 1356 30 c 1
 1351 30 l 1
 1351 13 l 1
 1339 9 l 1
 1339 -4 1351 -24 1351 -27 c 0
 1351 -60 1344 -92 1344 -125 c 1
 1342 -144 l 1
 1344 -150 1351 -177 1351 -180 c 2
 1288 -558 l 1
EndSplineSet
EndChar

StartChar: scaron
Encoding: 268 353 152
Width: 1030
VWidth: 2308
Flags: HW
LayerCount: 2
Fore
SplineSet
563 765 m 1
 546 765 l 1
 575 754 552 743 601 743 c 1
 581 723 l 1
 605 696 618 664 642 638 c 1
 782 638 l 1
 782 660 l 1
 821 617 l 1
 835 621 852 629 863 638 c 1
 863 617 l 1
 881 596 l 1
 963 596 l 1
 963 617 l 1
 923 617 l 1
 942 638 l 1
 983 1101 l 1
 1004 1101 l 1
 1004 1102 1005 1106 1005 1110 c 0
 1005 1134 981 1174 963 1185 c 1
 963 1220 902 1213 902 1250 c 1
 874 1250 812 1375 563 1375 c 0
 557 1375 527 1359 520 1355 c 1
 502 1375 l 1
 290 1375 61 1157 61 925 c 2
 61 743 l 2
 61 658 121 582 121 513 c 1
 163 448 251 397 320 363 c 1
 341 385 l 1
 362 385 l 1
 362 363 l 1
 376 362 392 354 401 343 c 1
 448 343 492 323 541 323 c 1
 563 302 l 1
 581 323 l 1
 581 258 l 1
 601 237 l 1
 601 197 l 1
 563 133 l 1
 526 131 l 2
 511 131 502 137 502 153 c 1
 500 153 496 153 494 153 c 0
 480 153 462 156 462 175 c 1
 482 197 l 1
 462 216 l 1
 462 281 l 1
 441 281 l 1
 441 258 l 1
 240 258 l 1
 218 242 186 237 161 237 c 1
 161 207 121 201 121 175 c 1
 140 175 l 1
 144 186 l 1
 161 175 l 1
 161 129 l 1
 185 94 240 28 240 -15 c 1
 320 -99 l 1
 378 -103 l 1
 397 -103 420 -101 420 -78 c 1
 502 -78 l 1
 502 -57 l 1
 520 -78 l 1
 541 -78 l 1
 541 -57 l 1
 601 -57 l 1
 601 -78 l 1
 629 -78 653 -57 680 -57 c 0
 686 -57 716 -74 721 -78 c 1
 721 -66 l 1
 742 -78 l 1
 742 2 802 31 802 70 c 1
 839 131 863 140 863 216 c 1
 881 216 l 1
 881 434 782 596 541 596 c 1
 520 580 l 1
 520 596 l 1
 491 627 462 652 462 700 c 2
 462 743 l 1
 502 786 l 1
 541 765 l 1
 541 786 l 1
 563 765 l 1
529 1598 m 1
 652 1718 715 1880 852 1983 c 1
 868 1971 l 1
 873 1974 l 1
 1028 1838 l 1
 730 1320 l 1
 737 1317 l 1
 718 1314 l 1
 678 1314 637 1322 599 1327 c 1
 599 1329 l 1
 558 1331 518 1335 477 1335 c 1
 463 1324 l 1
 457 1326 448 1327 437 1327 c 0
 402 1327 350 1320 330 1320 c 1
 53 1880 l 1
 71 1880 182 1959 205 1974 c 1
 210 1971 l 1
 226 1983 l 1
 333 1878 l 1
 330 1875 l 1
 359 1845 l 1
 363 1847 l 1
 407 1760 466 1674 529 1598 c 1
466 1322 m 1
 465 1322 465 1324 463 1324 c 1
 463 1324 460 1322 460 1320 c 1
 460 1322 465 1322 466 1322 c 1
EndSplineSet
EndChar

StartChar: mu
Encoding: 109 181 153
Width: 1456
VWidth: 2308
Flags: HW
LayerCount: 2
Fore
SplineSet
532 -6 m 1
 493 15 l 1
 493 56 395 61 371 61 c 1
 371 75 314 311 312 315 c 1
 310 313 307 311 305 311 c 0
 298 311 288 321 288 328 c 0
 288 330 290 334 292 336 c 1
 271 358 l 1
 292 400 l 1
 271 400 l 1
 271 404 273 408 273 413 c 0
 273 427 268 441 251 441 c 1
 251 505 l 1
 266 516 l 1
 251 525 l 1
 251 533 251 538 251 545 c 0
 251 696 194 859 170 1011 c 1
 157 1011 l 1
 170 1030 l 1
 127 1076 131 1141 131 1200 c 1
 57 1277 71 1305 -49 1305 c 1
 64 1329 244 1331 352 1368 c 1
 352 1347 l 1
 371 1368 l 1
 632 1368 l 1
 613 1347 l 1
 613 1283 l 1
 592 1263 l 2
 594 1264 595 1264 600 1264 c 0
 607 1264 616 1257 616 1250 c 0
 616 1246 614 1245 613 1243 c 2
 592 1220 l 1
 605 1202 614 1180 614 1155 c 0
 614 1134 607 1111 592 1095 c 1
 629 1058 639 939 639 835 c 0
 639 774 634 721 632 693 c 1
 613 693 l 1
 613 545 l 2
 613 508 632 462 632 420 c 1
 649 402 653 380 653 354 c 0
 653 336 651 313 651 295 c 0
 651 244 685 230 732 230 c 0
 736 230 767 249 773 253 c 1
 773 273 l 1
 793 293 l 1
 773 315 l 1
 819 365 813 461 813 525 c 1
 822 531 l 1
 793 568 l 1
 813 588 l 1
 813 633 l 1
 832 633 l 1
 832 772 854 914 854 1053 c 1
 832 1073 l 1
 832 1095 l 1
 854 1095 l 1
 854 1115 l 1
 832 1115 l 1
 832 1136 l 1
 813 1155 l 1
 815 1155 815 1154 817 1154 c 0
 824 1154 832 1164 832 1169 c 0
 832 1171 830 1173 829 1174 c 1
 850 1192 856 1243 856 1283 c 0
 856 1299 856 1314 854 1326 c 1
 832 1347 l 1
 954 1347 l 2
 1024 1347 1090 1329 1154 1305 c 1
 1172 1326 l 1
 1287 1326 1381 1243 1495 1243 c 1
 1432 1209 1381 1165 1333 1115 c 1
 1355 1095 l 1
 1333 1095 l 1
 1333 1073 l 1
 1355 1053 l 1
 1333 1053 l 1
 1234 876 1197 673 1197 470 c 0
 1197 446 1186 420 1172 400 c 1
 1172 358 l 1
 1154 358 l 1
 1156 337 l 1
 1156 323 1156 293 1134 293 c 1
 1154 253 l 1
 1114 168 l 2
 1116 170 1117 172 1121 172 c 0
 1128 172 1138 162 1138 155 c 0
 1138 151 1136 149 1134 147 c 1
 1114 168 l 1
 1093 125 l 1
 1114 105 l 1
 1093 105 l 1
 1053 42 l 1
 1053 21 l 1
 994 21 l 2
 987 21 942 39 933 42 c 1
 933 26 l 1
 913 15 l 1
 913 -9 901 -41 873 -42 c 1
 854 -2 l 1
 892 21 l 1
 832 42 l 1
 773 0 l 1
 773 3 l 2
 773 15 764 22 753 26 c 1
 753 30 753 31 753 35 c 0
 753 75 706 94 671 94 c 1
 653 83 l 1
 649 83 646 83 644 83 c 0
 634 83 631 79 631 72 c 0
 631 63 634 52 634 39 c 0
 634 19 625 -6 613 -22 c 1
 605 0 592 28 572 42 c 1
 567 42 l 2
 551 42 551 37 551 28 c 1
 532 -6 l 1
EndSplineSet
EndChar

StartChar: quotesinglbase
Encoding: 315 8218 154
Width: 770
VWidth: 2308
Flags: HW
LayerCount: 2
Fore
SplineSet
577 464 m 1
 385 457 l 1
 382 474 380 492 380 508 c 0
 380 542 385 573 385 605 c 1
 393 601 l 1
 393 652 396 666 413 717 c 1
 411 715 l 1
 429 805 l 1
 382 807 319 802 275 828 c 1
 139 809 l 1
 139 814 137 826 129 830 c 1
 123 826 l 1
 105 842 l 1
 104 856 102 867 102 879 c 0
 102 1039 122 1204 122 1366 c 1
 135 1366 148 1355 155 1345 c 1
 172 1345 177 1368 214 1368 c 0
 303 1368 391 1340 482 1340 c 0
 529 1340 510 1359 542 1359 c 0
 557 1359 575 1344 590 1344 c 2
 609 1344 l 1
 625 1362 l 1
 640 1146 l 2
 640 1143 640 1137 640 1134 c 0
 640 1106 644 1080 645 1053 c 1
 640 1053 l 1
 640 1036 l 1
 628 1032 l 1
 628 1020 640 999 640 995 c 0
 640 962 635 930 635 898 c 1
 633 879 l 1
 635 874 640 846 640 842 c 2
 577 464 l 1
EndSplineSet
EndChar

StartChar: endash
Encoding: 311 8211 155
Width: 1028
VWidth: 2308
Flags: HW
LayerCount: 2
Fore
SplineSet
277 542 m 1
 211 584 l 1
 211 570 206 557 188 557 c 0
 165 557 143 570 124 584 c 1
 137 896 l 1
 404 896 l 1
 404 883 415 879 426 879 c 0
 452 879 478 890 505 890 c 0
 539 890 575 892 612 892 c 0
 655 892 697 888 736 876 c 1
 740 890 l 1
 929 890 l 1
 878 767 l 1
 872 770 l 1
 881 743 l 1
 872 745 l 1
 867 721 865 696 865 673 c 0
 865 651 867 627 867 603 c 0
 867 580 865 561 860 540 c 1
 758 536 l 1
 760 550 l 1
 760 562 755 582 737 582 c 1
 730 580 l 1
 756 559 l 1
 716 553 681 552 640 552 c 0
 637 552 623 553 607 553 c 0
 589 553 568 550 568 542 c 0
 568 540 568 538 570 536 c 1
 544 534 l 1
 540 542 l 1
 526 542 515 540 515 559 c 2
 515 566 l 1
 540 545 l 1
 544 566 l 1
 515 566 l 1
 517 575 l 1
 489 571 l 1
 485 545 l 1
 476 543 463 540 454 540 c 2
 277 542 l 1
EndSplineSet
EndChar

StartChar: emdash
Encoding: 312 8212 156
Width: 1232
VWidth: 2308
Flags: HW
LayerCount: 2
Fore
SplineSet
277 542 m 1
 211 584 l 1
 211 570 206 557 188 557 c 0
 169 557 137 570 124 584 c 1
 137 896 l 1
 404 896 l 1
 404 879 432 879 443 879 c 0
 556 879 665 896 782 896 c 0
 836 896 889 892 939 876 c 1
 943 890 l 1
 1133 890 l 1
 1080 767 l 1
 1075 770 l 1
 1084 743 l 1
 1075 745 l 1
 1070 721 1068 696 1068 673 c 0
 1068 651 1070 627 1070 603 c 0
 1070 580 1068 561 1062 540 c 1
 961 536 l 1
 962 552 l 2
 962 564 955 582 941 582 c 1
 934 580 l 1
 959 559 l 1
 918 553 883 552 843 552 c 0
 839 552 827 553 809 553 c 0
 791 553 771 550 771 542 c 0
 771 540 771 538 773 536 c 1
 655 534 l 1
 651 542 l 1
 637 542 626 540 626 559 c 2
 626 566 l 1
 651 545 l 1
 655 566 l 1
 626 566 l 1
 628 575 l 1
 489 575 l 1
 485 545 l 1
 476 543 463 540 454 540 c 2
 277 542 l 1
EndSplineSet
EndChar

StartChar: ellipsis
Encoding: 319 8230 157
Width: 3266
VWidth: 2308
Flags: HW
LayerCount: 2
Fore
SplineSet
339 94 m 1
 299 94 l 2
 275 94 242 96 222 77 c 1
 222 89 213 94 204 94 c 1
 192 86 185 74 170 74 c 1
 170 242 153 395 132 561 c 1
 118 573 100 597 79 597 c 1
 98 614 l 1
 109 614 122 610 133 610 c 0
 148 610 160 617 168 631 c 1
 304 631 l 1
 348 656 465 656 508 656 c 0
 561 656 616 634 664 634 c 1
 664 596 666 422 640 422 c 1
 649 415 663 406 675 406 c 1
 654 96 l 1
 638 114 l 1
 619 114 l 2
 607 114 585 100 572 100 c 0
 538 100 559 118 511 118 c 0
 480 118 360 114 339 94 c 1
1584 94 m 1
 1543 94 l 2
 1519 94 1486 96 1465 77 c 1
 1465 89 1456 94 1447 94 c 1
 1437 86 1429 74 1414 74 c 1
 1414 242 1398 395 1375 561 c 1
 1363 573 1344 597 1324 597 c 1
 1342 614 l 1
 1354 614 1366 610 1377 610 c 0
 1392 610 1405 617 1412 631 c 1
 1549 631 l 1
 1593 656 1709 656 1752 656 c 0
 1805 656 1860 634 1908 634 c 1
 1908 596 1910 422 1884 422 c 1
 1894 415 1906 406 1919 406 c 1
 1899 96 l 1
 1882 114 l 1
 1864 114 l 2
 1851 114 1829 100 1816 100 c 0
 1783 100 1803 118 1755 118 c 0
 1724 118 1604 114 1584 94 c 1
2828 94 m 1
 2787 94 l 2
 2763 94 2730 96 2710 77 c 1
 2710 89 2701 94 2691 94 c 1
 2680 86 2673 74 2659 74 c 1
 2659 242 2642 395 2620 561 c 1
 2607 573 2589 597 2568 597 c 1
 2587 614 l 1
 2598 614 2610 610 2622 610 c 0
 2636 610 2649 617 2656 631 c 1
 2793 631 l 1
 2837 656 2953 656 2995 656 c 0
 3049 656 3104 634 3152 634 c 1
 3152 596 3154 422 3129 422 c 1
 3138 415 3150 406 3164 406 c 1
 3143 96 l 1
 3127 114 l 1
 3108 114 l 2
 3095 114 3073 100 3060 100 c 0
 3027 100 3048 118 2999 118 c 0
 2968 118 2848 114 2828 94 c 1
EndSplineSet
EndChar

StartChar: multiply
Encoding: 137 215 158
Width: 762
VWidth: 2308
Flags: HW
LayerCount: 2
Fore
SplineSet
21 861 m 1
 83 914 l 1
 83 911 l 1
 97 937 l 1
 102 927 l 1
 157 960 187 1023 244 1051 c 1
 322 981 l 1
 312 974 l 1
 334 940 366 912 394 883 c 1
 452 944 496 997 552 1065 c 1
 611 1001 695 927 748 858 c 1
 679 777 l 1
 661 789 l 1
 640 759 613 730 586 706 c 1
 639 658 690 601 739 547 c 1
 746 513 l 1
 565 343 l 1
 401 503 l 1
 379 485 359 462 338 443 c 1
 340 443 l 1
 307 415 275 389 246 358 c 1
 211 350 l 1
 34 547 l 1
 208 698 l 1
 152 758 83 809 21 861 c 1
EndSplineSet
EndChar

